<?xml version="1.0" encoding="UTF-8" standalone="no"?>
<!-- Created with Inkscape (http://www.inkscape.org/) -->

<svg
   xmlns:dc="http://purl.org/dc/elements/1.1/"
   xmlns:cc="http://creativecommons.org/ns#"
   xmlns:rdf="http://www.w3.org/1999/02/22-rdf-syntax-ns#"
   xmlns:svg="http://www.w3.org/2000/svg"
   xmlns="http://www.w3.org/2000/svg"
   xmlns:xlink="http://www.w3.org/1999/xlink"
   xmlns:sodipodi="http://sodipodi.sourceforge.net/DTD/sodipodi-0.dtd"
   xmlns:inkscape="http://www.inkscape.org/namespaces/inkscape"
   width="200"
   height="200"
   viewBox="0 0 52.916666 52.916669"
   version="1.1"
   id="svg8"
   inkscape:version="0.92.4 (fd57863, 2020-04-02)"
   sodipodi:docname="fitness_goal_icons.svg"
   inkscape:export-filename="/home/albert/Pictures/Academic images/weight_loss_icon.png"
   inkscape:export-xdpi="96"
   inkscape:export-ydpi="96">
  <defs
     id="defs2">
    <linearGradient
       id="linearGradient4800"
       inkscape:collect="always">
      <stop
         id="stop4796"
         offset="0"
         style="stop-color:#99beea;stop-opacity:1" />
      <stop
         id="stop4798"
         offset="1"
         style="stop-color:#ffffff;stop-opacity:1" />
    </linearGradient>
    <inkscape:path-effect
       effect="skeletal"
       id="path-effect4789"
       is_visible="true"
       pattern="M 0,5 C 0,2.24 2.24,0 5,0 7.76,0 10,2.24 10,5 10,7.76 7.76,10 5,10 2.24,10 0,7.76 0,5 Z"
       copytype="single_stretched"
       prop_scale="0.1"
       scale_y_rel="false"
       spacing="0"
       normal_offset="0"
       tang_offset="0.4"
       prop_units="false"
       vertical_pattern="false"
       fuse_tolerance="0" />
    <inkscape:path-effect
       effect="skeletal"
       id="path-effect1014"
       is_visible="true"
       pattern="M 0,5 C 0,2.24 2.24,0 5,0 7.76,0 10,2.24 10,5 10,7.76 7.76,10 5,10 2.24,10 0,7.76 0,5 Z"
       copytype="single_stretched"
       prop_scale="0.3"
       scale_y_rel="false"
       spacing="0"
       normal_offset="0"
       tang_offset="0"
       prop_units="false"
       vertical_pattern="false"
       fuse_tolerance="0" />
    <linearGradient
       inkscape:collect="always"
       id="linearGradient1772">
      <stop
         style="stop-color:#34b7b8;stop-opacity:1"
         offset="0"
         id="stop1768" />
      <stop
         id="stop1776"
         offset="0.5"
         style="stop-color:#ffffff;stop-opacity:1" />
      <stop
         style="stop-color:#85f3f5;stop-opacity:1"
         offset="1"
         id="stop1770" />
    </linearGradient>
    <linearGradient
       inkscape:collect="always"
       id="linearGradient1758">
      <stop
         style="stop-color:#2b5e9d;stop-opacity:1"
         offset="0"
         id="stop1754" />
      <stop
         style="stop-color:#5a96de;stop-opacity:1"
         offset="1"
         id="stop1756" />
    </linearGradient>
    <inkscape:path-effect
       effect="fill_between_strokes"
       id="path-effect4957"
       is_visible="true"
       linkedpath=""
       secondpath=""
       reversesecond="false" />
    <inkscape:path-effect
       effect="bend_path"
       id="path-effect1250"
       is_visible="true"
       bendpath="m 224.99699,171.69216 c 166.45826,-2.97781 67.23041,27.7284 231.87703,27.7284"
       prop_scale="1.3304699"
       scale_y_rel="false"
       vertical="false"
       bendpath-nodetypes="cc" />
    <inkscape:path-effect
       effect="bounding_box"
       id="path-effect1238"
       is_visible="true"
       linkedpath=""
       visualbounds="false" />
    <inkscape:perspective
       sodipodi:type="inkscape:persp3d"
       inkscape:vp_x="735.05616 : 706.51277 : 1"
       inkscape:vp_y="-7348.1888 : -4.4994682e-13 : 0"
       inkscape:vp_z="735.05616 : 3598.2904 : 1"
       inkscape:persp3d-origin="968.36113 : 2152.4017 : 1"
       id="perspective1150" />
    <inkscape:perspective
       sodipodi:type="inkscape:persp3d"
       inkscape:vp_x="460.6785 : 383.75859 : 1"
       inkscape:vp_y="0 : -1297.8538 : 0"
       inkscape:vp_z="-784.83838 : 383.75859 : 1"
       inkscape:persp3d-origin="-162.07998 : 424.96545 : 1"
       id="perspective1062" />
    <linearGradient
       inkscape:collect="always"
       xlink:href="#linearGradient1758"
       id="linearGradient1741"
       gradientUnits="userSpaceOnUse"
       gradientTransform="matrix(0.05935796,0,0,0.05935796,-5.4549291,27.418955)"
       x1="535.71429"
       y1="1618.5713"
       x2="535.71429"
       y2="1541.4285" />
    <linearGradient
       inkscape:collect="always"
       xlink:href="#linearGradient1772"
       id="linearGradient1774"
       x1="194.83949"
       y1="115.45425"
       x2="194.83949"
       y2="87.941223"
       gradientUnits="userSpaceOnUse"
       gradientTransform="matrix(0.22434505,0,0,0.22434505,-11.729914,98.264748)" />
    <linearGradient
       inkscape:collect="always"
       xlink:href="#linearGradient4800"
       id="linearGradient4751"
       x1="27.221401"
       y1="189.75166"
       x2="27.221401"
       y2="152.521"
       gradientUnits="userSpaceOnUse" />
    <linearGradient
       inkscape:collect="always"
       xlink:href="#linearGradient1758"
       id="linearGradient4759"
       x1="28.839584"
       y1="35.454166"
       x2="28.839584"
       y2="13.626041"
       gradientUnits="userSpaceOnUse"
       gradientTransform="matrix(1.1040761,0,0,1.1040761,-3.716006,-1.1204339)" />
    <linearGradient
       inkscape:collect="always"
       xlink:href="#linearGradient1758"
       id="linearGradient4828"
       x1="-73.289581"
       y1="175.94792"
       x2="125.94167"
       y2="175.94792"
       gradientUnits="userSpaceOnUse"
       gradientTransform="translate(-203.1783,48.268877)" />
    <linearGradient
       inkscape:collect="always"
       xlink:href="#linearGradient1758"
       id="linearGradient4857"
       x1="32.146877"
       y1="100.27708"
       x2="32.146877"
       y2="57.679169"
       gradientUnits="userSpaceOnUse"
       gradientTransform="matrix(0.51660776,0,0,0.51660776,13.173129,-15.6623)" />
    <linearGradient
       inkscape:collect="always"
       xlink:href="#linearGradient1758"
       id="linearGradient4861"
       gradientUnits="userSpaceOnUse"
       gradientTransform="matrix(1.1040761,0,0,1.1040761,85.338202,3.5567829)"
       x1="28.839584"
       y1="35.454166"
       x2="28.839584"
       y2="13.626041" />
    <linearGradient
       inkscape:collect="always"
       xlink:href="#linearGradient1758"
       id="linearGradient4929"
       gradientUnits="userSpaceOnUse"
       gradientTransform="matrix(0.51660776,0,0,0.51660776,13.173129,-15.6623)"
       x1="32.146877"
       y1="100.27708"
       x2="32.146877"
       y2="57.679169" />
    <linearGradient
       inkscape:collect="always"
       xlink:href="#linearGradient1758"
       id="linearGradient4937"
       x1="27.502035"
       y1="46.555653"
       x2="27.502035"
       y2="10.26045"
       gradientUnits="userSpaceOnUse"
       gradientTransform="matrix(0.93092158,0,0,0.93092158,1.7815539,-0.16308212)" />
  </defs>
  <sodipodi:namedview
     id="base"
     pagecolor="#ffffff"
     bordercolor="#666666"
     borderopacity="1.0"
     inkscape:pageopacity="0.0"
     inkscape:pageshadow="2"
     inkscape:zoom="2"
     inkscape:cx="111.62173"
     inkscape:cy="-0.29616053"
     inkscape:document-units="px"
     inkscape:current-layer="g4903"
     showgrid="false"
     inkscape:window-width="1847"
     inkscape:window-height="1025"
     inkscape:window-x="73"
     inkscape:window-y="27"
     inkscape:window-maximized="1"
     units="px"
     inkscape:snap-global="false" />
  <metadata
     id="metadata5">
    <rdf:RDF>
      <cc:Work
         rdf:about="">
        <dc:format>image/svg+xml</dc:format>
        <dc:type
           rdf:resource="http://purl.org/dc/dcmitype/StillImage" />
        <dc:title></dc:title>
      </cc:Work>
    </rdf:RDF>
  </metadata>
  <g
     style="display:inline"
     inkscape:label="Background"
     id="g1729"
     inkscape:groupmode="layer"
     transform="translate(0,-137.58334)"
     sodipodi:insensitive="true">
    <rect
       style="display:inline;opacity:1;fill:url(#linearGradient4828);fill-opacity:1;stroke:none;stroke-width:0.5291667;stroke-linecap:square;stroke-miterlimit:4;stroke-dasharray:none;stroke-dashoffset:0;stroke-opacity:1"
       id="rect4805"
       width="209.81459"
       height="137.58333"
       x="-282.81787"
       y="147.48764" />
    <path
       style="display:inline;opacity:1;fill:#5b62a5;fill-opacity:0.50196078;stroke:none;stroke-width:1.39921594;stroke-linecap:round;stroke-miterlimit:4;stroke-dasharray:none;stroke-opacity:1"
       d="m 8.9412151,106.89557 a 13.082213,12.975466 0 0 0 -11.5339222,6.86356 c 1.21959,-1.0842 3.08618704,-1.78306 4.912448,-1.65765 4.5069463,0.3095 3.8145425,2.40098 6.9373308,3.24538 4.1573903,1.12416 8.2990413,-1.43911 10.3259283,-2.99475 A 13.082213,12.975466 0 0 0 8.9412151,106.89557 Z m 1.9434399,1.90049 a 2.5673834,2.9633437 19.925418 0 1 0.927286,0.20026 2.5673834,2.9633437 19.925418 0 1 1.166912,3.7828 2.5673834,2.9633437 19.925418 0 1 -3.5114912,1.65667 2.5673834,2.9633437 19.925418 0 1 -1.1667843,-3.78268 2.5673834,2.9633437 19.925418 0 1 2.5840775,-1.85705 z m 9.965008,5.74233 c -0.173502,0.38852 -0.430087,0.77044 -0.803523,1.11876 -1.891425,1.7643 -8.517509,3.19675 -8.517509,3.19675 l -1.366298,3.26135 c 0,0 5.806957,1.02726 6.390146,3.46211 0.291597,1.21742 -0.836098,4.18459 -2.884474,6.25275 -0.07029,0.071 -0.141824,0.14072 -0.214119,0.20955 a 13.082213,12.975466 0 0 0 8.569494,-12.16861 13.082213,12.975466 0 0 0 -1.173717,-5.33266 z m -20.23300406,0.49298 c -1.087216,-0.004 -2.40332504,0.22579 -4.03306204,0.62368 a 13.082213,12.975466 0 0 0 -0.724673,4.216 13.082213,12.975466 0 0 0 2.653265,7.81424 c 2.985739,-1.68908 6.561716,-4.71245 6.487552,-9.48651 -1.009561,-2.26466 -2.259986,-3.16032 -4.38308196,-3.16741 z m 6.24137176,10.85021 c 0,0 -2.0754028,1.77343 -4.4547488,2.90304 -0.708228,0.33624 -1.41180496,0.60094 -2.13330396,0.78582 a 13.082213,12.975466 0 0 0 8.67123716,3.27608 13.082213,12.975466 0 0 0 0.8673832,-0.0306 l 2.6548737,-5.16185 z"
       id="path1240-3-6-2"
       inkscape:connector-curvature="0" />
    <path
       inkscape:connector-curvature="0"
       d="m 46.306257,115.69955 c 0.409041,0 0.734184,0.12066 0.97558,0.36206 0.241418,0.23469 0.362178,0.55657 0.362178,0.96561 v 2.42429 c 0.146474,-0.2837 0.338746,-0.54546 0.578044,-0.78476 0.616908,-0.61691 1.381323,-0.92538 2.293283,-0.92538 0.596792,0 1.176783,0.16427 1.740045,0.49284 0.650443,0.3755 0.975693,0.84497 0.975693,1.40824 0,0.18104 -0.03355,0.34869 -0.100627,0.50291 0.06706,0.16094 0.100627,0.32859 0.100627,0.50293 0,0.42244 -0.171017,0.77113 -0.513006,1.04607 -0.05363,0.0536 -0.147495,0.15087 -0.2816,0.29168 0.201163,0.2414 0.301778,0.52971 0.301778,0.86498 0,0.17434 -0.03018,0.34199 -0.09055,0.50292 0.06036,0.16094 0.09055,0.32857 0.09055,0.50292 0,0.38221 -0.127429,0.70072 -0.382232,0.95552 -0.248105,0.25482 -0.563218,0.38224 -0.94544,0.38224 h -0.895238 c -0.905251,0 -1.669666,-0.31185 -2.293283,-0.93547 -0.239275,-0.23927 -0.431575,-0.50098 -0.578044,-0.78464 v 0.37227 c 0,0.38221 -0.13079,0.69745 -0.392319,0.94555 -0.254808,0.25481 -0.569921,0.38212 -0.945439,0.38212 -0.382205,0 -0.700717,-0.12731 -0.955525,-0.38212 -0.01369,-0.0137 -0.02682,-0.0276 -0.03977,-0.0417 -0.04095,0.70862 -0.313447,1.31281 -0.818722,1.81192 -0.543146,0.54986 -1.210328,0.82476 -2.001591,0.82476 -0.395617,0 -0.724154,-0.12405 -0.985672,-0.37215 -0.261512,-0.2481 -0.392319,-0.5666 -0.392319,-0.95552 0,-0.17435 0.03018,-0.34199 0.09055,-0.50293 -0.06034,-0.15423 -0.09055,-0.32187 -0.09055,-0.50291 0,-0.0738 0.0067,-0.14418 0.02014,-0.21124 -0.449262,-0.2414 -0.804608,-0.58333 -1.06612,-1.02589 -0.07995,-0.13325 -0.147613,-0.27154 -0.203115,-0.41481 -0.135575,0.34937 -0.343824,0.66553 -0.626159,0.94787 -0.543163,0.54986 -1.210345,0.82475 -2.001596,0.82475 -0.79795,0 -1.468509,-0.27152 -2.011678,-0.81467 -0.543146,-0.54315 -0.814778,-1.21371 -0.814778,-2.01167 v -1.3133 c -0.227377,0.21924 -0.509948,0.34274 -0.849098,0.36786 0,-0.007 -0.0067,-0.0201 -0.02014,-0.0402 -0.01341,-0.0201 -0.02003,-0.0335 -0.02003,-0.0402 -0.0067,0.16764 -0.0101,0.37877 -0.0101,0.63358 v 0.19118 c 0,0.50291 -0.03686,0.88844 -0.110601,1.15666 -0.107296,0.39563 -0.325288,0.76111 -0.653864,1.09639 -0.509618,0.50962 -1.129822,0.76446 -1.860733,0.76446 -0.382206,0 -0.7007,-0.12742 -0.955524,-0.38223 -0.248101,-0.24811 -0.372146,-0.56333 -0.372146,-0.94555 0,-0.17435 0.03007,-0.34188 0.09043,-0.50281 -0.06035,-0.16093 -0.09043,-0.32858 -0.09043,-0.50292 0,-0.37551 0.120664,-0.69074 0.362059,-0.94555 0.248119,-0.25482 0.55997,-0.3855 0.935468,-0.3922 v -0.12081 c 0,-0.0738 0.0033,-0.15082 0.01,-0.23129 -0.0067,-0.0872 -0.01,-0.16097 -0.01,-0.22131 v -0.55324 c 0,-0.7376 0.251452,-1.35781 0.75438,-1.86073 0.509615,-0.50962 1.133203,-0.76446 1.87082,-0.76447 0.369398,0 0.679142,0.11941 0.929552,0.35743 v -0.21656 c 0,-0.38222 0.124165,-0.70072 0.372265,-0.95553 0.254825,-0.25481 0.57332,-0.38223 0.955525,-0.38223 0.355396,0 0.657107,0.11401 0.905206,0.342 0.254826,0.22799 0.399034,0.51967 0.432552,0.87507 h 1.649499 c 0.382205,0 0.697435,0.12742 0.945557,0.38223 0.0717,0.0698 0.132922,0.14505 0.184446,0.22549 0.05256,-0.0881 0.116491,-0.17005 0.192104,-0.24566 0.254809,-0.25481 0.573304,-0.38224 0.955525,-0.38224 0.409025,0 0.73428,0.12079 0.975693,0.36218 0.241401,0.2347 0.36206,0.55657 0.36206,0.96561 v 2.27311 c 0,0.10729 0.05363,0.16092 0.160919,0.16091 0.100587,1e-5 0.150945,-0.0536 0.150945,-0.16091 v -2.27311 c 0,-0.38222 0.127307,-0.69745 0.382115,-0.94555 0.254809,-0.25481 0.573422,-0.38224 0.955643,-0.38224 0.382216,0 0.697334,0.12743 0.945434,0.38224 0.01503,0.0147 0.02956,0.0296 0.0437,0.0448 v -1.14113 c 0,-0.38222 0.124025,-0.69734 0.372147,-0.94544 0.254808,-0.25481 0.57332,-0.38224 0.955519,-0.38224 z m -35.773838,-0.02 c 0.38222,0 0.700716,0.12731 0.955524,0.38212 0.254807,0.24811 0.382233,0.56334 0.382233,0.94555 v 4.3351 c 0,0.10729 0.05362,0.16092 0.160916,0.16092 h 0.442518 c 0.376952,0 0.688614,0.1242 0.93512,0.37203 v -2.80605 c 0,-0.38222 0.124144,-0.69746 0.372262,-0.94556 0.254809,-0.25481 0.573321,-0.38224 0.955524,-0.38224 0.409044,0 0.734185,0.12079 0.97558,0.36218 0.241414,0.2347 0.362176,0.55658 0.362176,0.96562 v 2.2731 c 0,0.10729 0.05364,0.16092 0.160916,0.16092 0.100589,0 0.150829,-0.0536 0.150829,-0.16092 v -2.2731 c 2e-6,-0.38222 0.127426,-0.69746 0.382235,-0.94556 0.254809,-0.25481 0.573302,-0.38224 0.955524,-0.38224 0.382221,0 0.697453,0.12743 0.945553,0.38224 0.02075,0.0202 0.04029,0.041 0.05936,0.0621 0.06413,-0.65873 0.330158,-1.22273 0.799014,-1.69159 0.543164,-0.54315 1.213725,-0.81466 2.01168,-0.81466 0.791247,0 1.458429,0.27489 2.001592,0.82475 0.543145,0.54315 0.814665,1.21034 0.814665,2.00159 v 0.0704 c 0,0.13411 -0.01667,0.26153 -0.0502,0.38223 0.02677,0.14455 0.04225,0.29138 0.04765,0.4402 0.142767,-0.2634 0.325733,-0.50751 0.550106,-0.73189 0.616911,-0.61691 1.381342,-0.92537 2.293279,-0.92538 0.59681,1e-5 1.176899,0.16427 1.740162,0.49284 0.650442,0.37551 0.975697,0.84497 0.975697,1.40824 0,0.18105 -0.03357,0.34869 -0.10063,0.50292 0.06706,0.16093 0.10063,0.32858 0.10063,0.50292 0,0.42245 -0.17102,0.77113 -0.513005,1.04607 -0.05365,0.0536 -0.147485,0.15087 -0.281603,0.29168 0.201177,0.24141 0.301659,0.52971 0.301659,0.86498 0,0.17435 -0.03007,0.34199 -0.09043,0.50292 0.06035,0.16094 0.09043,0.32858 0.09043,0.50292 0,0.38221 -0.127408,0.70072 -0.382232,0.95552 -0.248103,0.25482 -0.563234,0.38224 -0.94544,0.38224 h -0.895238 c -0.905247,0 -1.669679,-0.31185 -2.293279,-0.93547 -0.474279,-0.47428 -0.765412,-1.03608 -0.875067,-1.68474 -0.0048,0.005 -0.0094,0.0101 -0.01438,0.0151 -0.248121,0.24811 -0.56335,0.37215 -0.945554,0.37215 h -1.689731 v 0.88516 c 0,0.38221 -0.127427,0.69745 -0.382233,0.94555 -0.254809,0.25481 -0.573304,0.38212 -0.955524,0.38212 -0.382205,0 -0.700816,-0.12731 -0.95564,-0.38212 -0.01369,-0.0137 -0.02673,-0.0277 -0.03965,-0.0417 -0.04096,0.70864 -0.313446,1.31282 -0.818723,1.81193 -0.543143,0.54985 -1.210325,0.82476 -2.001591,0.82476 -0.395616,0 -0.724136,-0.12405 -0.985666,-0.37215 -0.261515,-0.2481 -0.392321,-0.5666 -0.392321,-0.95552 0,-0.17435 0.03019,-0.342 0.09055,-0.50293 -0.06035,-0.15422 -0.09055,-0.32186 -0.09055,-0.50291 0,-0.0738 0.0066,-0.14418 0.02005,-0.21123 -0.449263,-0.24141 -0.80461,-0.58334 -1.066124,-1.0259 -4.49e-4,-6.7e-4 -6.73e-4,-0.001 -0.0011,-0.002 2.24e-4,0.0107 0.0014,0.0212 0.0014,0.032 0,0.38222 -0.127426,0.69745 -0.382232,0.94556 -0.248104,0.25481 -0.563333,0.38212 -0.945555,0.38212 h -0.442518 c -0.797955,0 -1.468516,-0.27152 -2.011679,-0.81468 -0.543146,-0.54314 -0.8146647,-1.21371 -0.8146647,-2.01167 v -5.34094 c 0,-0.38221 0.1240446,-0.69744 0.3721469,-0.94555 0.2548255,-0.25481 0.5733198,-0.38212 0.9555238,-0.38212 z"
       style="fill:url(#linearGradient1741);fill-opacity:1;stroke:none;stroke-width:0.29678982;stroke-miterlimit:4;stroke-dasharray:none;stroke-opacity:1"
       id="path1721" />
    <path
       inkscape:connector-curvature="0"
       d="m 50.515342,118.39524 c -0.730913,0 -1.341095,0.2447 -1.830591,0.7342 -0.489517,0.48951 -0.734324,1.09968 -0.734324,1.83059 0,0.73091 0.244807,1.34447 0.734324,1.84067 0.489496,0.48951 1.099678,0.73433 1.830591,0.73433 h 0.895238 c 0.201158,0 0.362038,-0.0638 0.482747,-0.19117 0.127391,-0.12741 0.191061,-0.29167 0.191061,-0.49284 0,-0.20116 -0.06367,-0.36205 -0.191061,-0.48274 -0.120709,-0.12741 -0.281589,-0.19118 -0.482747,-0.19118 h -0.895238 c -0.335279,0 -0.620206,-0.11728 -0.854893,-0.35197 -0.234709,-0.24141 -0.352092,-0.52982 -0.352092,-0.8651 0,-0.33527 0.117383,-0.6202 0.352092,-0.85489 0.234687,-0.2347 0.519614,-0.35209 0.854893,-0.35209 0.08716,0 0.174366,0.007 0.261546,0.0202 l -0.724238,0.71415 c -0.147529,0.14752 -0.221319,0.30502 -0.221319,0.47266 0,0.18776 0.06714,0.35213 0.201259,0.49294 0.140809,0.14083 0.305071,0.21124 0.492839,0.21124 0.167628,0 0.325243,-0.0704 0.472772,-0.21124 l 1.287445,-1.25729 c 0.194454,-0.14752 0.291687,-0.33195 0.291687,-0.55323 0,-0.16764 -0.06704,-0.32188 -0.201147,-0.46269 -0.509628,-0.52304 -1.129952,-0.78453 -1.860844,-0.78453 z m -9.513276,0 c -0.201174,0 -0.365437,0.0637 -0.492833,0.19105 -0.120703,0.12071 -0.181086,0.2817 -0.181086,0.48287 v 2.2731 c 0,0.62362 0.204478,1.14333 0.61352,1.55907 0.41575,0.40905 0.935476,0.61353 1.559071,0.61353 0.281651,0 0.549889,-0.0503 0.804698,-0.15083 v 0.19105 c 0,0.22128 -0.08043,0.41248 -0.241374,0.57341 -0.160925,0.16094 -0.352114,0.24138 -0.573405,0.24138 h -0.04022 c -0.201175,0 -0.365437,0.0636 -0.492833,0.19105 -0.127413,0.12741 -0.19106,0.29167 -0.19106,0.49284 0,0.20116 0.06365,0.36216 0.19106,0.48286 0.127396,0.12741 0.291658,0.19106 0.492833,0.19106 h 0.04022 c 0.616908,0 1.133235,-0.20787 1.548985,-0.62361 0.415751,-0.41574 0.623606,-0.93208 0.623606,-1.54899 v -4.48592 c 0,-0.20117 -0.06365,-0.36216 -0.19106,-0.48287 -0.120704,-0.1274 -0.281701,-0.19105 -0.482859,-0.19105 -0.201163,0 -0.365426,0.0637 -0.492839,0.19105 -0.127396,0.12071 -0.191054,0.2817 -0.191054,0.48287 v 2.2731 c 0,0.22799 -0.07717,0.42245 -0.231405,0.58338 -0.154222,0.15423 -0.345288,0.2314 -0.573293,0.2314 -0.227983,0 -0.422449,-0.0772 -0.583379,-0.2314 -0.154233,-0.16093 -0.2314,-0.35539 -0.2314,-0.58338 v -2.2731 c 0,-0.44928 -0.227921,-0.67392 -0.683893,-0.67392 z m -7.522231,0 c -0.556572,0 -1.025922,0.19107 -1.408128,0.57329 -0.375513,0.37551 -0.563319,0.84148 -0.563319,1.39804 v 0.55323 c 0,0.0469 -0.0033,0.18439 -0.01,0.41238 v 0.20126 c 0,0.17434 -0.06038,0.32182 -0.181088,0.44252 -0.113982,0.11399 -0.258194,0.171 -0.432548,0.171 -0.201161,0 -0.365422,0.0636 -0.492832,0.19105 -0.120691,0.12741 -0.181089,0.29179 -0.181089,0.49296 0,0.20116 0.0604,0.36542 0.181089,0.49283 0.12741,0.1207 0.291671,0.18097 0.492832,0.18097 0.54987,0 1.012575,-0.19108 1.388072,-0.57329 0.382221,-0.38221 0.576673,-0.84819 0.583378,-1.39804 l 0.0101,-1.16687 c 0,-0.10058 0.0066,-0.17427 0.02005,-0.22121 0.02012,-0.0536 0.07385,-0.12405 0.161031,-0.21122 0.08716,-0.0872 0.238019,-0.14757 0.452606,-0.18109 0.22128,-0.0402 0.385559,-0.11403 0.492833,-0.22132 0.114,-0.11399 0.171,-0.26812 0.171,-0.46257 0,-0.20117 -0.06378,-0.36216 -0.191172,-0.48287 -0.127413,-0.1274 -0.291676,-0.19105 -0.492833,-0.19105 z m -6.283364,0 c -0.730895,0 -1.341091,0.2447 -1.83059,0.7342 -0.489516,0.48951 -0.734207,1.09968 -0.734207,1.83059 0,0.73091 0.244691,1.34447 0.734207,1.84067 0.489499,0.48951 1.099695,0.73433 1.83059,0.73433 h 0.895239 c 0.201161,0 0.362059,-0.0638 0.482748,-0.19117 0.127414,-0.12741 0.191175,-0.29167 0.191175,-0.49284 0,-0.20116 -0.06376,-0.36205 -0.191175,-0.48274 -0.120689,-0.12741 -0.281587,-0.19118 -0.482748,-0.19118 h -0.895239 c -0.335263,0 -0.620185,-0.11728 -0.854893,-0.35197 -0.23469,-0.24141 -0.352089,-0.52982 -0.352089,-0.8651 0,-0.33527 0.117399,-0.6202 0.352089,-0.85489 0.234708,-0.2347 0.51963,-0.35209 0.854893,-0.35209 0.08718,0 0.174371,0.007 0.261547,0.0202 l -0.724121,0.71415 c -0.147532,0.14752 -0.221317,0.30502 -0.221317,0.47266 0,0.18776 0.06703,0.35213 0.201144,0.49294 0.140808,0.14083 0.305087,0.21124 0.492834,0.21124 0.167649,0 0.325263,-0.0704 0.472776,-0.21124 l 1.287442,-1.25729 c 0.194456,-0.14752 0.291689,-0.33195 0.291689,-0.55323 0,-0.16764 -0.06702,-0.32188 -0.201146,-0.46269 -0.509615,-0.52304 -1.129936,-0.78453 -1.860848,-0.78453 z m -12.459955,0 c -0.201161,0 -0.365438,0.0637 -0.492832,0.19105 -0.120707,0.12071 -0.181089,0.2817 -0.181089,0.48287 v 2.2731 c 0,0.62362 0.204477,1.14333 0.613521,1.55907 0.415733,0.40905 0.935455,0.61353 1.559072,0.61353 0.281634,0 0.549771,-0.0503 0.80458,-0.15083 v 0.19105 c 0,0.22128 -0.08045,0.41248 -0.241375,0.57341 -0.160941,0.16094 -0.352011,0.24138 -0.57329,0.24138 h -0.04023 c -0.201161,0 -0.365422,0.0636 -0.492834,0.19105 -0.127395,0.12741 -0.191173,0.29167 -0.191173,0.49284 0,0.20116 0.06378,0.36216 0.191173,0.48286 0.127412,0.12741 0.291673,0.19106 0.492834,0.19106 h 0.04023 c 0.616911,0 1.133237,-0.20787 1.548989,-0.62361 0.415734,-0.41574 0.623605,-0.93208 0.623605,-1.54899 v -4.48592 c 0,-0.20117 -0.06366,-0.36216 -0.191059,-0.48287 -0.120707,-0.1274 -0.281701,-0.19105 -0.482862,-0.19105 -0.201161,0 -0.365422,0.0637 -0.492832,0.19105 -0.127415,0.12071 -0.191176,0.2817 -0.191176,0.48287 v 2.2731 c 0,0.22799 -0.07707,0.42245 -0.231289,0.58338 -0.154235,0.15423 -0.345305,0.2314 -0.573289,0.2314 -0.227986,0 -0.422437,-0.0772 -0.583378,-0.2314 -0.154219,-0.16093 -0.231402,-0.35539 -0.231402,-0.58338 v -2.2731 c 0,-0.44928 -0.227908,-0.67392 -0.683894,-0.67392 z m 21.000661,-1.19701 c -0.201158,0 -0.365538,0.0638 -0.492946,0.19117 -0.120692,0.1274 -0.180973,0.29166 -0.180973,0.49283 v 3.46003 c 0,0.62362 0.204489,1.14333 0.613519,1.55907 0.415751,0.40905 0.93546,0.61353 1.559071,0.61353 0.616914,0 1.129864,-0.20786 1.538905,-0.62361 0.415733,-0.41574 0.623606,-0.93208 0.623606,-1.54899 v -0.0905 c 0,-0.19446 -0.06367,-0.35534 -0.19106,-0.48275 -0.127413,-0.1274 -0.288405,-0.19117 -0.482859,-0.19117 -0.194471,0 -0.358734,0.0638 -0.492834,0.19117 -0.127418,0.12741 -0.19106,0.28829 -0.19106,0.48275 v 0.0905 c 0,0.22799 -0.07718,0.42245 -0.231405,0.58338 -0.154232,0.15423 -0.345304,0.2314 -0.573293,0.2314 -0.227983,0 -0.422431,-0.0772 -0.583373,-0.2314 -0.154221,-0.16093 -0.231405,-0.35539 -0.231405,-0.58338 v -1.56904 h 2.30337 c 0.449262,0 0.673919,-0.22803 0.673919,-0.68401 0,-0.20116 -0.06367,-0.36204 -0.19106,-0.48274 -0.120704,-0.12742 -0.281702,-0.19118 -0.482859,-0.19118 h -2.30337 v -0.53306 c 0,-0.20117 -0.06365,-0.36543 -0.19106,-0.49283 -0.127396,-0.12741 -0.291653,-0.19117 -0.492833,-0.19117 z m 10.56908,-0.84482 c -0.201163,0 -0.365437,0.0637 -0.492833,0.19106 -0.120704,0.1207 -0.181086,0.28158 -0.181086,0.48275 v 5.81372 c 0,0.20116 0.06038,0.36554 0.181086,0.49294 0.127396,0.12071 0.29167,0.18098 0.492833,0.18098 0.20118,0 0.365443,-0.0603 0.492833,-0.18098 0.127413,-0.1274 0.191172,-0.29178 0.191172,-0.49294 v -5.81372 c 0,-0.44927 -0.228022,-0.67381 -0.684005,-0.67381 z m -24.766877,-0.0202 c -0.623616,0 -1.143322,0.20786 -1.559075,0.6236 -0.409027,0.40904 -0.613521,0.92538 -0.613521,1.54899 v 4.3351 c 0,0.20116 0.06028,0.36554 0.180973,0.49294 0.127415,0.12071 0.29179,0.18098 0.492951,0.18098 0.201177,0 0.365438,-0.0603 0.492832,-0.18098 0.127413,-0.1274 0.191059,-0.29178 0.191059,-0.49294 v -1.5389 h 2.343596 c 0.201159,0 0.362156,-0.0604 0.482863,-0.18109 0.127396,-0.12741 0.191059,-0.29167 0.191059,-0.49283 0,-0.20117 -0.06366,-0.36543 -0.191059,-0.49284 -0.120707,-0.12741 -0.281704,-0.19105 -0.482863,-0.19105 h -2.343596 v -1.43839 c 0,-0.22799 0.07718,-0.41907 0.231403,-0.57329 0.160943,-0.16094 0.355394,-0.24149 0.583378,-0.24149 0.227984,0 0.419054,0.0806 0.573292,0.24149 0.154219,0.15422 0.231402,0.3453 0.231402,0.57329 v 0.0704 c 0,0.19445 0.06365,0.35883 0.191059,0.49295 0.134103,0.1274 0.298362,0.19105 0.492833,0.19105 0.201161,0 0.362158,-0.0636 0.482864,-0.19105 0.127395,-0.12741 0.191057,-0.29179 0.191057,-0.49295 v -0.0704 c 0,-0.61691 -0.207871,-1.13324 -0.623605,-1.54899 -0.409044,-0.41574 -0.921991,-0.6236 -1.538902,-0.6236 z m -11.006961,0 c -0.20116,0 -0.365421,0.0636 -0.492833,0.19105 -0.1206901,0.1207 -0.1810879,0.2817 -0.1810879,0.48286 v 4.3351 c 0,0.62362 0.2044919,1.14333 0.6135199,1.55908 0.415749,0.40904 0.935458,0.61352 1.559074,0.61352 h 0.442518 c 0.201162,0 0.362156,-0.0603 0.482862,-0.18098 0.127413,-0.1274 0.19106,-0.29178 0.19106,-0.49294 0,-0.20117 -0.06365,-0.36543 -0.19106,-0.49284 -0.120706,-0.1274 -0.2817,-0.19105 -0.482862,-0.19105 h -0.442518 c -0.227984,0 -0.422435,-0.0772 -0.583378,-0.23141 -0.154219,-0.16093 -0.231286,-0.35539 -0.231286,-0.58338 v -4.3351 c 0,-0.20116 -0.06376,-0.36216 -0.191176,-0.48286 -0.127394,-0.1274 -0.291655,-0.19105 -0.492833,-0.19105 z"
       style="fill:url(#linearGradient1774);fill-opacity:1;stroke:none;stroke-width:0.29678982;stroke-miterlimit:4;stroke-dasharray:none;stroke-opacity:1"
       id="path1723" />
    <path
       id="path1725"
       d="m 37.094995,115.921 c 0.03355,0.0469 0.0805,0.0704 0.140853,0.0704 0.06035,0 0.103953,-0.0234 0.130773,-0.0704 z"
       style="fill:#ffffff;fill-opacity:1;stroke:none;stroke-width:0.29678982;stroke-miterlimit:4;stroke-dasharray:none;stroke-opacity:1"
       inkscape:connector-curvature="0" />
    <circle
       style="opacity:1;fill:url(#linearGradient4751);fill-opacity:1;stroke:none;stroke-width:0.5291667;stroke-linecap:round;stroke-miterlimit:4;stroke-dasharray:none;stroke-dashoffset:0;stroke-opacity:1"
       id="path4743"
       cx="26.458334"
       cy="164.04167"
       r="26.566589" />
  </g>
  <g
     inkscape:groupmode="layer"
     id="layer1"
     inkscape:label="Muscle building"
     style="display:none"
     sodipodi:insensitive="true">
    <path
       style="display:inline;fill:#275389;fill-opacity:1;stroke-width:0.06743565"
       d="m 21.966954,42.563249 c -0.166902,-0.01338 -0.773824,-0.05726 -1.348714,-0.09745 -2.973262,-0.207779 -6.500889,-0.749495 -9.896182,-1.519684 l -0.488909,-0.11091 v -9.366243 -9.366235 l 0.488909,2.03e-4 c 0.992681,4.08e-4 2.487518,0.375086 3.286079,0.823585 0.999934,0.561594 1.831332,1.342656 2.520692,2.368069 0.671306,0.998569 1.50831,2.916982 2.171261,4.97654 l 0.187305,0.581893 0.247934,-0.312149 c 1.148732,-1.446276 3.191123,-2.306572 5.93469,-2.499812 2.936623,-0.206835 5.228586,0.632696 7.388624,2.706426 0.706465,0.678236 1.155203,1.224289 1.803398,2.194499 l 0.506176,0.757638 0.03976,-0.251871 c 0.05158,-0.326726 1.387901,-11.048606 1.387901,-11.135712 0,-0.04189 -1.00911,-0.07391 -2.748004,-0.08718 -2.463349,-0.0188 -2.772713,-0.03329 -2.986531,-0.139859 -0.318582,-0.15878 -3.879145,-3.735236 -3.976943,-3.994691 -0.04195,-0.111268 -0.0767,-0.369209 -0.07724,-0.573202 -9.01e-4,-0.345381 0.07566,-0.524452 1.113218,-2.602906 0.612812,-1.227604 1.198312,-2.331966 1.301113,-2.454138 0.397877,-0.47285 0.372087,-0.469719 3.867732,-0.469719 2.910131,0 3.155168,0.0089 3.405501,0.124887 0.14836,0.06868 0.34938,0.212166 0.446714,0.318839 0.262836,0.288056 3.747345,5.049764 3.872723,5.292217 0.0593,0.11466 1.063022,4.218805 2.230518,9.12032 2.272347,9.540068 2.203082,9.186623 1.912014,9.757161 -0.25574,0.501286 -2.024612,1.69495 -3.896772,2.629616 -3.355425,1.675179 -7.350476,2.749865 -11.915683,3.205401 -1.007132,0.100493 -5.947266,0.191228 -6.777285,0.124469 z"
       id="path993-5"
       inkscape:connector-curvature="0"
       sodipodi:nodetypes="cccccccccccssssccsscccscscccscscc" />
    <path
       style="fill:url(#linearGradient4759);fill-opacity:1;stroke:none;stroke-width:0.58424032;stroke-linecap:square;stroke-miterlimit:4;stroke-dasharray:none;stroke-opacity:1"
       d="M 19.947987,40.90342 C 19.781085,40.89003 19.174163,40.84616 18.599273,40.80597 15.626012,40.598189 12.098385,40.056474 8.7030913,39.286284 L 8.2141821,39.175379 v -9.366243 -9.366235 l 0.4889092,2.02e-4 c 0.9926815,4.07e-4 2.4875177,0.375087 3.2860797,0.823586 0.999934,0.561593 1.831332,1.342656 2.520692,2.368068 0.671305,0.998571 1.50831,2.916983 2.17126,4.976542 l 0.187306,0.581893 0.247933,-0.31215 c 1.148733,-1.446275 3.191123,-2.306572 5.934691,-2.499812 2.936622,-0.206835 5.228585,0.632696 7.388624,2.706426 0.706465,0.678236 1.155202,1.224289 1.803398,2.194499 l 0.506176,0.757639 0.03976,-0.251872 c 0.05158,-0.326726 1.387901,-11.048606 1.387901,-11.135712 0,-0.04189 -1.00911,-0.07391 -2.748003,-0.08718 -2.46335,-0.0188 -2.772714,-0.03329 -2.986532,-0.139859 -0.318582,-0.158781 -3.879144,-3.735236 -3.976942,-3.994691 -0.04196,-0.111269 -0.0767,-0.36921 -0.07724,-0.573202 -9.01e-4,-0.345382 0.07566,-0.524453 1.113218,-2.602907 0.612812,-1.227603 1.198313,-2.331965 1.301113,-2.454137 0.397877,-0.47285 0.372087,-0.469719 3.867732,-0.469719 2.910132,0 3.155168,0.0089 3.405502,0.124886 0.148359,0.06869 0.349379,0.212166 0.446713,0.31884 0.262837,0.288055 3.747345,5.049763 3.872723,5.292216 0.0593,0.114661 1.063022,4.218805 2.230519,9.12032 2.272345,9.54007 2.203082,9.186623 1.912013,9.757162 -0.255738,0.501285 -2.02461,1.694949 -3.89677,2.629617 -3.355427,1.675177 -7.350477,2.749864 -11.915684,3.205399 -1.007133,0.100493 -5.947266,0.191227 -6.777285,0.124469 z"
       id="path993"
       inkscape:connector-curvature="0"
       sodipodi:nodetypes="cccccccccccssssccsscccscscccscscc" />
    <path
       style="fill:#5792da;fill-opacity:1;stroke:none;stroke-width:0.26458335px;stroke-linecap:butt;stroke-linejoin:miter;stroke-opacity:1"
       d="m 15.83934,28.528622 c -0.05192,-0.07717 0.679326,-0.851705 2.283985,-1.570176 1.570503,-0.703178 4.036901,-1.324868 6.758174,-0.621902 0,1e-6 10e-7,1e-6 10e-7,1e-6 0.384962,0.101912 0.767465,0.225294 1.148007,0.368378 0.677264,0.254652 1.315925,0.559551 1.909173,0.882385 0.322215,0.174935 0.621317,0.351559 0.910768,0.507653 0,0 1e-6,0 1e-6,0 0.230922,0.07682 0.301085,0.191078 0.210282,0.141748 0.02107,0.06547 0.12947,-0.134861 0.387137,-0.319715 0.360504,-0.325496 0.730204,-0.618504 1.145378,-0.853465 3.15118,-1.70717 4.780972,0.348874 4.873514,-0.06921 -0.03792,0.17131 -2.284887,-0.655548 -4.443688,0.788905 -0.326371,0.207966 -0.626233,0.478187 -0.954513,0.797164 -0.11647,0.164004 -0.373293,0.450286 -0.881374,0.587206 -0.434107,8.1e-4 -0.69498,-0.135964 -0.778275,-0.224267 0,0 0,-10e-7 0,-10e-7 -0.31694,-0.159508 -0.623707,-0.330773 -0.929521,-0.489415 -0.570876,-0.295494 -1.174483,-0.577372 -1.80106,-0.813652 -0.352436,-0.132902 -0.703201,-0.248029 -1.05375,-0.343729 0,0 -1e-6,0 -1e-6,0 -2.414587,-0.676751 -4.714461,-0.219656 -6.257482,0.286871 -1.562178,0.512817 -2.45483,1.052141 -2.526756,0.945226 z"
       id="path4787"
       inkscape:connector-curvature="0"
       inkscape:path-effect="#path-effect4789"
       inkscape:original-d="m 15.510962,28.757389 c 7.209159,-5.198988 12.897715,0.04179 13.611996,-0.05524 0.714281,-0.09703 1.662658,-2.743757 6.342795,-1.707837"
       sodipodi:nodetypes="czc"
       transform="matrix(-1.1040761,0,0,-1.1040761,49.20894,68.005791)" />
  </g>
  <g
     style="display:none"
     inkscape:label="Stamina"
     id="g4836"
     inkscape:groupmode="layer"
     sodipodi:insensitive="true">
    <path
       sodipodi:nodetypes="cccccccccccssssccsscccscscccscscc"
       inkscape:connector-curvature="0"
       id="path4830"
       d="m 111.02116,47.240466 c -0.1669,-0.01338 -0.77382,-0.05726 -1.34871,-0.09745 -2.97326,-0.207779 -6.50089,-0.749495 -9.896184,-1.519684 l -0.488909,-0.11091 v -9.366243 -9.366235 l 0.488909,2.03e-4 c 0.992684,4.08e-4 2.487514,0.375086 3.286084,0.823585 0.99993,0.561594 1.83133,1.342656 2.52069,2.368069 0.6713,0.998569 1.50831,2.916982 2.17126,4.97654 l 0.1873,0.581893 0.24794,-0.312149 c 1.14873,-1.446276 3.19112,-2.306572 5.93469,-2.499812 2.93662,-0.206835 5.22858,0.632696 7.38862,2.706426 0.70647,0.678236 1.1552,1.224289 1.8034,2.194499 l 0.50618,0.757638 0.0398,-0.251871 c 0.0516,-0.326726 1.3879,-11.048606 1.3879,-11.135712 0,-0.04189 -1.00911,-0.07391 -2.74801,-0.08718 -2.46335,-0.0188 -2.77271,-0.03329 -2.98653,-0.139859 -0.31858,-0.15878 -3.87914,-3.735236 -3.97694,-3.994691 -0.0419,-0.111268 -0.0767,-0.369209 -0.0772,-0.573202 -9e-4,-0.345381 0.0757,-0.524452 1.11322,-2.602906 0.61281,-1.227604 1.19831,-2.331966 1.30111,-2.454138 0.39788,-0.47285 0.37209,-0.469719 3.86773,-0.469719 2.91013,0 3.15517,0.0089 3.4055,0.124887 0.14836,0.06868 0.34938,0.212166 0.44672,0.318839 0.26283,0.288056 3.74734,5.049764 3.87272,5.292217 0.0593,0.11466 1.06302,4.218805 2.23052,9.12032 2.27234,9.540068 2.20308,9.186623 1.91201,9.757161 -0.25574,0.501286 -2.02461,1.69495 -3.89677,2.629616 -3.35543,1.675179 -7.35048,2.749865 -11.91568,3.205401 -1.00714,0.100493 -5.94727,0.191228 -6.77729,0.124469 z"
       style="display:inline;fill:#275389;fill-opacity:1;stroke-width:0.06743565" />
    <path
       sodipodi:nodetypes="cccccccccccssssccsscccscscccscscc"
       inkscape:connector-curvature="0"
       id="path4832"
       d="m 109.0022,45.580637 c -0.16691,-0.01339 -0.77383,-0.05726 -1.34872,-0.09745 -2.97326,-0.207781 -6.50089,-0.749496 -9.896181,-1.519686 L 97.26839,43.852596 v -9.366243 -9.366235 l 0.488909,2.02e-4 c 0.992682,4.07e-4 2.487521,0.375087 3.286081,0.823586 0.99993,0.561593 1.83133,1.342656 2.52069,2.368068 0.67131,0.998571 1.50831,2.916983 2.17126,4.976542 l 0.18731,0.581893 0.24793,-0.31215 c 1.14873,-1.446275 3.19112,-2.306572 5.93469,-2.499812 2.93662,-0.206835 5.22859,0.632696 7.38863,2.706426 0.70646,0.678236 1.1552,1.224289 1.80339,2.194499 l 0.50618,0.757639 0.0398,-0.251872 c 0.0516,-0.326726 1.3879,-11.048606 1.3879,-11.135712 0,-0.04189 -1.00911,-0.07391 -2.748,-0.08718 -2.46335,-0.0188 -2.77272,-0.03329 -2.98653,-0.139859 -0.31859,-0.158781 -3.87915,-3.735236 -3.97695,-3.994691 -0.042,-0.111269 -0.0767,-0.36921 -0.0772,-0.573202 -9e-4,-0.345382 0.0757,-0.524453 1.11322,-2.602907 0.61281,-1.227603 1.19831,-2.331965 1.30111,-2.454137 0.39788,-0.47285 0.37209,-0.469719 3.86774,-0.469719 2.91013,0 3.15516,0.0089 3.4055,0.124886 0.14836,0.06869 0.34938,0.212166 0.44671,0.31884 0.26284,0.288055 3.74735,5.049763 3.87272,5.292216 0.0593,0.114661 1.06303,4.218805 2.23052,9.12032 2.27235,9.54007 2.20309,9.186623 1.91202,9.757162 -0.25574,0.501285 -2.02461,1.694949 -3.89677,2.629617 -3.35543,1.675177 -7.35048,2.749864 -11.91569,3.205399 -1.00713,0.100493 -5.94726,0.191227 -6.77728,0.124469 z"
       style="fill:url(#linearGradient4861);fill-opacity:1;stroke:none;stroke-width:0.58424032;stroke-linecap:square;stroke-miterlimit:4;stroke-dasharray:none;stroke-opacity:1" />
    <path
       transform="matrix(-1.1040761,0,0,-1.1040761,138.26315,72.683008)"
       sodipodi:nodetypes="czc"
       inkscape:original-d="m 15.510962,28.757389 c 7.209159,-5.198988 12.897715,0.04179 13.611996,-0.05524 0.714281,-0.09703 1.662658,-2.743757 6.342795,-1.707837"
       inkscape:path-effect="#path-effect4789"
       inkscape:connector-curvature="0"
       id="path4834"
       d="m 15.83934,28.528622 c -0.05192,-0.07717 0.679326,-0.851705 2.283985,-1.570176 1.570503,-0.703178 4.036901,-1.324868 6.758174,-0.621902 0,1e-6 10e-7,1e-6 10e-7,1e-6 0.384962,0.101912 0.767465,0.225294 1.148007,0.368378 0.677264,0.254652 1.315925,0.559551 1.909173,0.882385 0.322215,0.174935 0.621317,0.351559 0.910768,0.507653 0,0 1e-6,0 1e-6,0 0.230922,0.07682 0.301085,0.191078 0.210282,0.141748 0.02107,0.06547 0.12947,-0.134861 0.387137,-0.319715 0.360504,-0.325496 0.730204,-0.618504 1.145378,-0.853465 3.15118,-1.70717 4.780972,0.348874 4.873514,-0.06921 -0.03792,0.17131 -2.284887,-0.655548 -4.443688,0.788905 -0.326371,0.207966 -0.626233,0.478187 -0.954513,0.797164 -0.11647,0.164004 -0.373293,0.450286 -0.881374,0.587206 -0.434107,8.1e-4 -0.69498,-0.135964 -0.778275,-0.224267 0,0 0,-10e-7 0,-10e-7 -0.31694,-0.159508 -0.623707,-0.330773 -0.929521,-0.489415 -0.570876,-0.295494 -1.174483,-0.577372 -1.80106,-0.813652 -0.352436,-0.132902 -0.703201,-0.248029 -1.05375,-0.343729 0,0 -1e-6,0 -1e-6,0 -2.414587,-0.676751 -4.714461,-0.219656 -6.257482,0.286871 -1.562178,0.512817 -2.45483,1.052141 -2.526756,0.945226 z"
       style="fill:#5792da;fill-opacity:1;stroke:none;stroke-width:0.26458335px;stroke-linecap:butt;stroke-linejoin:miter;stroke-opacity:1" />
    <g
       id="g4889"
       transform="matrix(0.87788486,-0.15473133,0.15473133,0.87788486,-2.3328255,7.1226368)">
      <path
         inkscape:connector-curvature="0"
         id="path4849-1"
         d="m 11.213191,40.524962 c -0.698091,-0.37878 -1.021922,-1.613184 -0.61196,-2.332731 0.09131,-0.160256 2.840812,-2.514387 6.11001,-5.231397 l 5.943994,-4.940026 0.216573,0.857456 c 0.266244,1.054107 0.51947,1.63217 1.064196,2.429342 0.323609,0.47358 0.382279,0.649857 0.255035,0.766217 -0.36844,0.336911 -10.744119,8.113734 -11.178437,8.378506 -0.544809,0.332136 -1.267399,0.361304 -1.799411,0.07263 z m 11.845334,-0.913774 c -0.81703,-0.748745 -0.759537,-2.050789 0.115798,-2.622534 0.167582,-0.109465 1.809362,-0.635696 3.648398,-1.169409 1.839035,-0.533707 3.364723,-0.991406 3.390423,-1.017103 0.02567,-0.02567 -0.608961,-0.745599 -1.410354,-1.599774 -2.762688,-2.944643 -3.893212,-4.730091 -3.882731,-6.13202 0.0032,-0.43706 0.103362,-0.934812 0.239097,-1.189003 0.128408,-0.240481 1.882105,-1.974579 3.897108,-3.853553 2.015008,-1.87897 3.659173,-3.465963 3.653712,-3.526655 -0.0055,-0.06069 -0.34825,-0.580222 -0.761746,-1.154524 l -0.751825,-1.044186 -3.106921,-0.09968 c -3.341532,-0.10721 -3.757742,-0.194013 -4.001245,-0.834477 -0.223113,-0.58683 -0.148066,-1.013477 0.247935,-1.409477 0.376566,-0.376564 0.392523,-0.379276 2.767886,-0.470354 4.003225,-0.153493 5.4456,-0.135569 5.697832,0.07081 0.30933,0.253092 3.818843,4.358023 5.311318,6.212423 0.671748,0.834658 1.307057,1.757288 1.41179,2.050287 0.104738,0.293005 0.493837,1.310484 0.864671,2.261068 l 0.674246,1.728338 2.552473,0.09904 c 2.645298,0.102658 3.153264,0.212367 3.436882,0.742314 0.261217,0.488091 0.164218,1.098603 -0.238546,1.50136 -0.41606,0.416065 -0.06957,0.376282 -5.56655,0.639179 -1.696736,0.08115 -1.794175,0.07127 -2.159424,-0.219011 -0.22607,-0.179666 -0.758362,-1.054154 -1.301488,-2.138188 l -0.918972,-1.83419 -2.594062,1.925563 c -1.426732,1.059056 -2.678033,1.974546 -2.780668,2.034426 -0.139804,0.08157 0.35414,0.841874 1.969331,3.031341 1.185767,1.607363 2.269027,3.107913 2.40724,3.334554 0.51566,0.845573 0.210442,2.193614 -0.61984,2.737634 -0.381246,0.249805 -10.39467,2.387095 -11.192364,2.388929 -0.390994,0.0011 -0.631016,-0.105529 -0.999404,-0.443132 z M 8.9511048,32.209004 C 6.2650297,32.087937 5.6066984,32.020246 5.5018818,31.854353 5.3145019,31.557778 5.3388983,30.681188 5.5390106,30.520209 c 0.1682137,-0.135316 5.5370304,-0.444113 7.7060134,-0.443225 1.274452,5.29e-4 1.415883,0.093 1.516234,0.9915 0.05079,0.454615 4.23e-4,0.662523 -0.231745,0.956726 -0.345171,0.437407 -0.117817,0.429917 -5.5784096,0.183794 z m 4.6043592,-5.194987 c -3.8345592,-0.162943 -3.9500492,-0.19147 -3.9500492,-0.975784 0,-0.893003 -0.01905,-0.889956 6.9105842,-1.106403 l 2.878347,-0.0899 0.299597,0.380874 c 0.377862,0.480378 0.384645,1.155817 0.01628,1.624086 -0.33066,0.420368 -0.248142,0.418127 -6.154782,0.167132 z m 5.194058,-5.194057 c -3.834558,-0.162948 -3.950045,-0.191476 -3.950045,-0.975789 0,-0.752796 0.187518,-0.829031 2.27763,-0.925957 4.130734,-0.191564 7.125312,-0.265655 7.44938,-0.184321 0.653338,0.163976 0.874539,1.287453 0.377815,1.918934 -0.330659,0.420364 -0.248136,0.418127 -6.15478,0.167133 z m 22.703684,-0.844695 c -1.763474,-0.762657 -2.50554,-2.966956 -1.574098,-4.675844 1.654963,-3.036314 6.255583,-1.897469 6.255583,1.548518 0,1.41753 -0.784593,2.634137 -2.03595,3.15699 -0.591492,0.24714 -2.043123,0.230861 -2.645535,-0.02966 z"
         style="display:inline;fill:#275389;fill-opacity:1;stroke-width:0.1366858" />
      <path
         inkscape:connector-curvature="0"
         id="path4849"
         d="M 10.514362,39.478784 C 9.8162709,39.100002 9.49244,37.865599 9.9024017,37.146052 9.9937087,36.985796 12.743214,34.631665 16.012412,31.914655 l 5.943994,-4.940026 0.216573,0.857456 c 0.266244,1.054107 0.51947,1.63217 1.064196,2.429342 0.323609,0.47358 0.382279,0.649857 0.255035,0.766217 -0.36844,0.336911 -10.744119,8.113734 -11.178437,8.378505 -0.544809,0.332138 -1.267399,0.361305 -1.799411,0.07263 z m 11.845334,-0.913775 c -0.81703,-0.748745 -0.759537,-2.050789 0.115798,-2.622534 0.167582,-0.109465 1.809362,-0.635696 3.648398,-1.169409 1.839035,-0.533707 3.364723,-0.991406 3.390423,-1.017103 0.02567,-0.02567 -0.608961,-0.745599 -1.410354,-1.599774 -2.762688,-2.944643 -3.893212,-4.730091 -3.882731,-6.13202 0.0032,-0.43706 0.103362,-0.934812 0.239097,-1.189003 0.128408,-0.240481 1.882105,-1.974579 3.897108,-3.853553 2.015008,-1.87897 3.659174,-3.465963 3.653713,-3.526655 -0.0055,-0.06069 -0.34825,-0.580222 -0.761748,-1.154524 l -0.751824,-1.044186 -3.106921,-0.09968 c -3.341532,-0.10721 -3.757742,-0.194013 -4.001245,-0.834477 -0.223113,-0.58683 -0.148066,-1.013477 0.247935,-1.409477 0.376566,-0.376564 0.392523,-0.379276 2.767886,-0.470354 4.003225,-0.153493 5.445599,-0.135569 5.697832,0.07081 0.309329,0.253092 3.818843,4.358023 5.311317,6.212423 0.67175,0.834658 1.307059,1.757288 1.411791,2.050287 0.104738,0.293005 0.493836,1.310484 0.864672,2.261068 l 0.674246,1.728338 2.552471,0.09904 c 2.645299,0.102658 3.153265,0.212367 3.436882,0.742314 0.261218,0.488091 0.16422,1.098603 -0.238544,1.50136 -0.41606,0.416065 -0.06957,0.376282 -5.566551,0.639179 -1.696737,0.08115 -1.794174,0.07127 -2.159425,-0.219011 -0.226069,-0.179666 -0.758361,-1.054154 -1.301486,-2.138188 L 36.169464,23.55569 33.5754,25.481253 c -1.426731,1.059056 -2.678032,1.974546 -2.780667,2.034426 -0.139804,0.08157 0.35414,0.841874 1.96933,3.031341 1.185769,1.607363 2.269029,3.107913 2.407242,3.334554 0.515658,0.845573 0.21044,2.193614 -0.619841,2.737634 -0.381246,0.249805 -10.39467,2.387094 -11.192364,2.388928 -0.390994,10e-4 -0.631016,-0.105528 -0.999404,-0.443131 z M 8.252276,31.162825 C 5.5662008,31.041758 4.9078695,30.974067 4.8030529,30.808174 4.615673,30.511599 4.6400694,29.635009 4.8401817,29.47403 c 0.1682137,-0.135316 5.5370303,-0.444113 7.7060133,-0.443225 1.274452,5.17e-4 1.415883,0.093 1.516234,0.9915 0.05079,0.454615 4.13e-4,0.662523 -0.231745,0.956726 -0.345171,0.437407 -0.117817,0.429917 -5.5784093,0.183794 z m 4.604359,-5.194987 c -3.8345592,-0.162943 -3.9500494,-0.19147 -3.9500494,-0.975784 0,-0.893003 -0.019048,-0.889956 6.9105844,-1.106403 l 2.878347,-0.0899 0.299597,0.380874 c 0.377862,0.480378 0.384645,1.155817 0.01628,1.624086 -0.33066,0.420368 -0.248142,0.418127 -6.154782,0.167132 z m 5.194058,-5.194057 c -3.834558,-0.162948 -3.950045,-0.191476 -3.950045,-0.975789 0,-0.752796 0.187518,-0.829031 2.27763,-0.925957 4.130734,-0.191564 7.125312,-0.265655 7.44938,-0.184321 0.653338,0.163976 0.874539,1.287453 0.377815,1.918934 -0.330659,0.420364 -0.248136,0.418127 -6.15478,0.167133 z m 22.703685,-0.844695 c -1.763476,-0.762657 -2.505542,-2.966956 -1.574098,-4.675844 1.654962,-3.036314 6.255582,-1.897469 6.255582,1.548518 0,1.41753 -0.784592,2.634137 -2.035951,3.15699 -0.59149,0.24714 -2.043122,0.230861 -2.645533,-0.02966 z"
         style="fill:url(#linearGradient4857);fill-opacity:1;stroke-width:0.1366858" />
    </g>
  </g>
  <g
     inkscape:groupmode="layer"
     id="g4903"
     inkscape:label="Weight loss"
     style="display:inline">
    <path
       style="display:inline;fill:#275389;fill-opacity:1;stroke-width:0.06743565"
       d="m 111.02116,47.240466 c -0.1669,-0.01338 -0.77382,-0.05726 -1.34871,-0.09745 -2.97326,-0.207779 -6.50089,-0.749495 -9.896184,-1.519684 l -0.488909,-0.11091 v -9.366243 -9.366235 l 0.488909,2.03e-4 c 0.992684,4.08e-4 2.487514,0.375086 3.286084,0.823585 0.99993,0.561594 1.83133,1.342656 2.52069,2.368069 0.6713,0.998569 1.50831,2.916982 2.17126,4.97654 l 0.1873,0.581893 0.24794,-0.312149 c 1.14873,-1.446276 3.19112,-2.306572 5.93469,-2.499812 2.93662,-0.206835 5.22858,0.632696 7.38862,2.706426 0.70647,0.678236 1.1552,1.224289 1.8034,2.194499 l 0.50618,0.757638 0.0398,-0.251871 c 0.0516,-0.326726 1.3879,-11.048606 1.3879,-11.135712 0,-0.04189 -1.00911,-0.07391 -2.74801,-0.08718 -2.46335,-0.0188 -2.77271,-0.03329 -2.98653,-0.139859 -0.31858,-0.15878 -3.87914,-3.735236 -3.97694,-3.994691 -0.0419,-0.111268 -0.0767,-0.369209 -0.0772,-0.573202 -9e-4,-0.345381 0.0757,-0.524452 1.11322,-2.602906 0.61281,-1.227604 1.19831,-2.331966 1.30111,-2.454138 0.39788,-0.47285 0.37209,-0.469719 3.86773,-0.469719 2.91013,0 3.15517,0.0089 3.4055,0.124887 0.14836,0.06868 0.34938,0.212166 0.44672,0.318839 0.26283,0.288056 3.74734,5.049764 3.87272,5.292217 0.0593,0.11466 1.06302,4.218805 2.23052,9.12032 2.27234,9.540068 2.20308,9.186623 1.91201,9.757161 -0.25574,0.501286 -2.02461,1.69495 -3.89677,2.629616 -3.35543,1.675179 -7.35048,2.749865 -11.91568,3.205401 -1.00714,0.100493 -5.94727,0.191228 -6.77729,0.124469 z"
       id="path4891"
       inkscape:connector-curvature="0"
       sodipodi:nodetypes="cccccccccccssssccsscccscscccscscc" />
    <path
       style="fill:url(#linearGradient4861);fill-opacity:1;stroke:none;stroke-width:0.58424032;stroke-linecap:square;stroke-miterlimit:4;stroke-dasharray:none;stroke-opacity:1"
       d="m 109.0022,45.580637 c -0.16691,-0.01339 -0.77383,-0.05726 -1.34872,-0.09745 -2.97326,-0.207781 -6.50089,-0.749496 -9.896181,-1.519686 L 97.26839,43.852596 v -9.366243 -9.366235 l 0.488909,2.02e-4 c 0.992682,4.07e-4 2.487521,0.375087 3.286081,0.823586 0.99993,0.561593 1.83133,1.342656 2.52069,2.368068 0.67131,0.998571 1.50831,2.916983 2.17126,4.976542 l 0.18731,0.581893 0.24793,-0.31215 c 1.14873,-1.446275 3.19112,-2.306572 5.93469,-2.499812 2.93662,-0.206835 5.22859,0.632696 7.38863,2.706426 0.70646,0.678236 1.1552,1.224289 1.80339,2.194499 l 0.50618,0.757639 0.0398,-0.251872 c 0.0516,-0.326726 1.3879,-11.048606 1.3879,-11.135712 0,-0.04189 -1.00911,-0.07391 -2.748,-0.08718 -2.46335,-0.0188 -2.77272,-0.03329 -2.98653,-0.139859 -0.31859,-0.158781 -3.87915,-3.735236 -3.97695,-3.994691 -0.042,-0.111269 -0.0767,-0.36921 -0.0772,-0.573202 -9e-4,-0.345382 0.0757,-0.524453 1.11322,-2.602907 0.61281,-1.227603 1.19831,-2.331965 1.30111,-2.454137 0.39788,-0.47285 0.37209,-0.469719 3.86774,-0.469719 2.91013,0 3.15516,0.0089 3.4055,0.124886 0.14836,0.06869 0.34938,0.212166 0.44671,0.31884 0.26284,0.288055 3.74735,5.049763 3.87272,5.292216 0.0593,0.114661 1.06303,4.218805 2.23052,9.12032 2.27235,9.54007 2.20309,9.186623 1.91202,9.757162 -0.25574,0.501285 -2.02461,1.694949 -3.89677,2.629617 -3.35543,1.675177 -7.35048,2.749864 -11.91569,3.205399 -1.00713,0.100493 -5.94726,0.191227 -6.77728,0.124469 z"
       id="path4893"
       inkscape:connector-curvature="0"
       sodipodi:nodetypes="cccccccccccssssccsscccscscccscscc" />
    <path
       style="fill:#5792da;fill-opacity:1;stroke:none;stroke-width:0.26458335px;stroke-linecap:butt;stroke-linejoin:miter;stroke-opacity:1"
       d="m 15.83934,28.528622 c -0.05192,-0.07717 0.679326,-0.851705 2.283985,-1.570176 1.570503,-0.703178 4.036901,-1.324868 6.758174,-0.621902 0,1e-6 10e-7,1e-6 10e-7,1e-6 0.384962,0.101912 0.767465,0.225294 1.148007,0.368378 0.677264,0.254652 1.315925,0.559551 1.909173,0.882385 0.322215,0.174935 0.621317,0.351559 0.910768,0.507653 0,0 1e-6,0 1e-6,0 0.230922,0.07682 0.301085,0.191078 0.210282,0.141748 0.02107,0.06547 0.12947,-0.134861 0.387137,-0.319715 0.360504,-0.325496 0.730204,-0.618504 1.145378,-0.853465 3.15118,-1.70717 4.780972,0.348874 4.873514,-0.06921 -0.03792,0.17131 -2.284887,-0.655548 -4.443688,0.788905 -0.326371,0.207966 -0.626233,0.478187 -0.954513,0.797164 -0.11647,0.164004 -0.373293,0.450286 -0.881374,0.587206 -0.434107,8.1e-4 -0.69498,-0.135964 -0.778275,-0.224267 0,0 0,-10e-7 0,-10e-7 -0.31694,-0.159508 -0.623707,-0.330773 -0.929521,-0.489415 -0.570876,-0.295494 -1.174483,-0.577372 -1.80106,-0.813652 -0.352436,-0.132902 -0.703201,-0.248029 -1.05375,-0.343729 0,0 -1e-6,0 -1e-6,0 -2.414587,-0.676751 -4.714461,-0.219656 -6.257482,0.286871 -1.562178,0.512817 -2.45483,1.052141 -2.526756,0.945226 z"
       id="path4895"
       inkscape:connector-curvature="0"
       inkscape:path-effect="#path-effect4789"
       inkscape:original-d="m 15.510962,28.757389 c 7.209159,-5.198988 12.897715,0.04179 13.611996,-0.05524 0.714281,-0.09703 1.662658,-2.743757 6.342795,-1.707837"
       sodipodi:nodetypes="czc"
       transform="matrix(-1.1040761,0,0,-1.1040761,138.26315,72.683008)" />
    <g
       transform="matrix(0.87788486,-0.15473133,0.15473133,0.87788486,-48.356639,62.875061)"
       id="g4901">
      <path
         style="display:inline;fill:#275389;fill-opacity:1;stroke-width:0.1366858"
         d="m 11.213191,40.524962 c -0.698091,-0.37878 -1.021922,-1.613184 -0.61196,-2.332731 0.09131,-0.160256 2.840812,-2.514387 6.11001,-5.231397 l 5.943994,-4.940026 0.216573,0.857456 c 0.266244,1.054107 0.51947,1.63217 1.064196,2.429342 0.323609,0.47358 0.382279,0.649857 0.255035,0.766217 -0.36844,0.336911 -10.744119,8.113734 -11.178437,8.378506 -0.544809,0.332136 -1.267399,0.361304 -1.799411,0.07263 z m 11.845334,-0.913774 c -0.81703,-0.748745 -0.759537,-2.050789 0.115798,-2.622534 0.167582,-0.109465 1.809362,-0.635696 3.648398,-1.169409 1.839035,-0.533707 3.364723,-0.991406 3.390423,-1.017103 0.02567,-0.02567 -0.608961,-0.745599 -1.410354,-1.599774 -2.762688,-2.944643 -3.893212,-4.730091 -3.882731,-6.13202 0.0032,-0.43706 0.103362,-0.934812 0.239097,-1.189003 0.128408,-0.240481 1.882105,-1.974579 3.897108,-3.853553 2.015008,-1.87897 3.659173,-3.465963 3.653712,-3.526655 -0.0055,-0.06069 -0.34825,-0.580222 -0.761746,-1.154524 l -0.751825,-1.044186 -3.106921,-0.09968 c -3.341532,-0.10721 -3.757742,-0.194013 -4.001245,-0.834477 -0.223113,-0.58683 -0.148066,-1.013477 0.247935,-1.409477 0.376566,-0.376564 0.392523,-0.379276 2.767886,-0.470354 4.003225,-0.153493 5.4456,-0.135569 5.697832,0.07081 0.30933,0.253092 3.818843,4.358023 5.311318,6.212423 0.671748,0.834658 1.307057,1.757288 1.41179,2.050287 0.104738,0.293005 0.493837,1.310484 0.864671,2.261068 l 0.674246,1.728338 2.552473,0.09904 c 2.645298,0.102658 3.153264,0.212367 3.436882,0.742314 0.261217,0.488091 0.164218,1.098603 -0.238546,1.50136 -0.41606,0.416065 -0.06957,0.376282 -5.56655,0.639179 -1.696736,0.08115 -1.794175,0.07127 -2.159424,-0.219011 -0.22607,-0.179666 -0.758362,-1.054154 -1.301488,-2.138188 l -0.918972,-1.83419 -2.594062,1.925563 c -1.426732,1.059056 -2.678033,1.974546 -2.780668,2.034426 -0.139804,0.08157 0.35414,0.841874 1.969331,3.031341 1.185767,1.607363 2.269027,3.107913 2.40724,3.334554 0.51566,0.845573 0.210442,2.193614 -0.61984,2.737634 -0.381246,0.249805 -10.39467,2.387095 -11.192364,2.388929 -0.390994,0.0011 -0.631016,-0.105529 -0.999404,-0.443132 z M 8.9511048,32.209004 C 6.2650297,32.087937 5.6066984,32.020246 5.5018818,31.854353 5.3145019,31.557778 5.3388983,30.681188 5.5390106,30.520209 c 0.1682137,-0.135316 5.5370304,-0.444113 7.7060134,-0.443225 1.274452,5.29e-4 1.415883,0.093 1.516234,0.9915 0.05079,0.454615 4.23e-4,0.662523 -0.231745,0.956726 -0.345171,0.437407 -0.117817,0.429917 -5.5784096,0.183794 z m 4.6043592,-5.194987 c -3.8345592,-0.162943 -3.9500492,-0.19147 -3.9500492,-0.975784 0,-0.893003 -0.01905,-0.889956 6.9105842,-1.106403 l 2.878347,-0.0899 0.299597,0.380874 c 0.377862,0.480378 0.384645,1.155817 0.01628,1.624086 -0.33066,0.420368 -0.248142,0.418127 -6.154782,0.167132 z m 5.194058,-5.194057 c -3.834558,-0.162948 -3.950045,-0.191476 -3.950045,-0.975789 0,-0.752796 0.187518,-0.829031 2.27763,-0.925957 4.130734,-0.191564 7.125312,-0.265655 7.44938,-0.184321 0.653338,0.163976 0.874539,1.287453 0.377815,1.918934 -0.330659,0.420364 -0.248136,0.418127 -6.15478,0.167133 z m 22.703684,-0.844695 c -1.763474,-0.762657 -2.50554,-2.966956 -1.574098,-4.675844 1.654963,-3.036314 6.255583,-1.897469 6.255583,1.548518 0,1.41753 -0.784593,2.634137 -2.03595,3.15699 -0.591492,0.24714 -2.043123,0.230861 -2.645535,-0.02966 z"
         id="path4897"
         inkscape:connector-curvature="0" />
      <path
         style="fill:url(#linearGradient4929);fill-opacity:1;stroke-width:0.1366858"
         d="M 10.514362,39.478784 C 9.8162709,39.100002 9.49244,37.865599 9.9024017,37.146052 9.9937087,36.985796 12.743214,34.631665 16.012412,31.914655 l 5.943994,-4.940026 0.216573,0.857456 c 0.266244,1.054107 0.51947,1.63217 1.064196,2.429342 0.323609,0.47358 0.382279,0.649857 0.255035,0.766217 -0.36844,0.336911 -10.744119,8.113734 -11.178437,8.378505 -0.544809,0.332138 -1.267399,0.361305 -1.799411,0.07263 z m 11.845334,-0.913775 c -0.81703,-0.748745 -0.759537,-2.050789 0.115798,-2.622534 0.167582,-0.109465 1.809362,-0.635696 3.648398,-1.169409 1.839035,-0.533707 3.364723,-0.991406 3.390423,-1.017103 0.02567,-0.02567 -0.608961,-0.745599 -1.410354,-1.599774 -2.762688,-2.944643 -3.893212,-4.730091 -3.882731,-6.13202 0.0032,-0.43706 0.103362,-0.934812 0.239097,-1.189003 0.128408,-0.240481 1.882105,-1.974579 3.897108,-3.853553 2.015008,-1.87897 3.659174,-3.465963 3.653713,-3.526655 -0.0055,-0.06069 -0.34825,-0.580222 -0.761748,-1.154524 l -0.751824,-1.044186 -3.106921,-0.09968 c -3.341532,-0.10721 -3.757742,-0.194013 -4.001245,-0.834477 -0.223113,-0.58683 -0.148066,-1.013477 0.247935,-1.409477 0.376566,-0.376564 0.392523,-0.379276 2.767886,-0.470354 4.003225,-0.153493 5.445599,-0.135569 5.697832,0.07081 0.309329,0.253092 3.818843,4.358023 5.311317,6.212423 0.67175,0.834658 1.307059,1.757288 1.411791,2.050287 0.104738,0.293005 0.493836,1.310484 0.864672,2.261068 l 0.674246,1.728338 2.552471,0.09904 c 2.645299,0.102658 3.153265,0.212367 3.436882,0.742314 0.261218,0.488091 0.16422,1.098603 -0.238544,1.50136 -0.41606,0.416065 -0.06957,0.376282 -5.566551,0.639179 -1.696737,0.08115 -1.794174,0.07127 -2.159425,-0.219011 -0.226069,-0.179666 -0.758361,-1.054154 -1.301486,-2.138188 L 36.169464,23.55569 33.5754,25.481253 c -1.426731,1.059056 -2.678032,1.974546 -2.780667,2.034426 -0.139804,0.08157 0.35414,0.841874 1.96933,3.031341 1.185769,1.607363 2.269029,3.107913 2.407242,3.334554 0.515658,0.845573 0.21044,2.193614 -0.619841,2.737634 -0.381246,0.249805 -10.39467,2.387094 -11.192364,2.388928 -0.390994,10e-4 -0.631016,-0.105528 -0.999404,-0.443131 z M 8.252276,31.162825 C 5.5662008,31.041758 4.9078695,30.974067 4.8030529,30.808174 4.615673,30.511599 4.6400694,29.635009 4.8401817,29.47403 c 0.1682137,-0.135316 5.5370303,-0.444113 7.7060133,-0.443225 1.274452,5.17e-4 1.415883,0.093 1.516234,0.9915 0.05079,0.454615 4.13e-4,0.662523 -0.231745,0.956726 -0.345171,0.437407 -0.117817,0.429917 -5.5784093,0.183794 z m 4.604359,-5.194987 c -3.8345592,-0.162943 -3.9500494,-0.19147 -3.9500494,-0.975784 0,-0.893003 -0.019048,-0.889956 6.9105844,-1.106403 l 2.878347,-0.0899 0.299597,0.380874 c 0.377862,0.480378 0.384645,1.155817 0.01628,1.624086 -0.33066,0.420368 -0.248142,0.418127 -6.154782,0.167132 z m 5.194058,-5.194057 c -3.834558,-0.162948 -3.950045,-0.191476 -3.950045,-0.975789 0,-0.752796 0.187518,-0.829031 2.27763,-0.925957 4.130734,-0.191564 7.125312,-0.265655 7.44938,-0.184321 0.653338,0.163976 0.874539,1.287453 0.377815,1.918934 -0.330659,0.420364 -0.248136,0.418127 -6.15478,0.167133 z m 22.703685,-0.844695 c -1.763476,-0.762657 -2.505542,-2.966956 -1.574098,-4.675844 1.654962,-3.036314 6.255582,-1.897469 6.255582,1.548518 0,1.41753 -0.784592,2.634137 -2.035951,3.15699 -0.59149,0.24714 -2.043122,0.230861 -2.645533,-0.02966 z"
         id="path4899"
         inkscape:connector-curvature="0" />
    </g>
    <path
       style="display:inline;fill:#275389;fill-opacity:1;stroke-width:0.06615867"
       d="m 26.189996,44.387972 c -3.888164,-3.317653 -6.165338,-4.983851 -8.222509,-6.016378 -0.640717,-0.321585 -1.60642,-0.684017 -1.921812,-0.721267 -0.192604,-0.02274 -0.196918,-0.01585 -0.440411,0.704772 -0.529651,1.567497 -0.92791,3.488592 -1.016596,4.903787 l -0.04611,0.73579 -0.397778,0.04157 c -0.218778,0.02286 -0.557154,0.04158 -0.751946,0.04158 h -0.354168 l 2.25e-4,-0.314253 c 7.94e-4,-1.105234 0.310219,-3.049368 0.734443,-4.614569 0.667462,-2.462646 1.63624,-4.661964 3.212815,-7.29373 1.181477,-1.972237 1.608004,-3.563648 1.609223,-6.004167 0.0017,-3.340945 -1.183848,-7.534413 -3.313671,-11.721287 l -0.577821,-1.135898 0.652319,-0.399147 0.652319,-0.399145 0.294067,0.542664 c 1.728191,3.189166 3.032043,6.821833 3.542954,9.871039 0.216007,1.289176 0.278916,2.044623 0.278215,3.341012 -0.0015,2.704179 -0.49071,4.519236 -1.824509,6.768726 -0.686548,1.15788 -1.12058,1.960004 -1.080375,1.996614 0.02897,0.02639 20.695458,0.07759 20.695458,0.05127 0,-0.07554 -0.503367,-0.9915 -1.000873,-1.821265 -0.704394,-1.174825 -0.864109,-1.484384 -1.156605,-2.241755 -1.390238,-3.59978 -0.946483,-8.568294 1.263404,-14.145775 0.815773,-2.058907 1.956114,-4.340867 2.13493,-4.27225 0.124069,0.04761 1.207019,0.698057 1.207019,0.724966 0,0.01032 -0.221525,0.447447 -0.49227,0.9714 -0.889191,1.720752 -1.860722,4.111153 -2.376972,5.848385 -1.030437,3.467516 -1.274842,6.451641 -0.728377,8.893265 0.286795,1.281402 0.537401,1.872408 1.432893,3.379171 2.30015,3.870254 3.535022,7.553611 3.787265,11.296592 l 0.0457,0.67813 h -0.361299 c -0.198718,0 -0.538242,-0.01849 -0.754492,-0.0411 l -0.393186,-0.04109 -0.07859,-0.901666 C 40.313202,41.606187 40.015266,40.150693 39.523614,38.603189 39.25235,37.74936 39.314659,37.785844 38.487702,37.9966 c -2.923188,0.745002 -6.594765,3.192398 -10.246786,6.830289 l -0.708912,0.706178 z M 13.104823,28.960569 v -0.893144 h -1.48857 -1.48857 V 25.91727 23.767111 h 1.48857 1.48857 v -0.875474 -0.875474 l 0.732443,0.726615 c 0.402843,0.399643 1.269731,1.284857 1.926417,1.96715 l 1.193975,1.240528 -1.876798,1.944329 c -1.03224,1.06938 -1.899127,1.947611 -1.926418,1.951623 -0.02729,0.004 -0.04962,-0.39461 -0.04962,-0.885839 z m 25.940977,-1.031705 -1.878745,-1.91837 0.689414,-0.708201 c 0.37918,-0.389508 1.229768,-1.266411 1.890192,-1.948672 0.660426,-0.682261 1.217956,-1.240475 1.238951,-1.240475 0.02098,0 0.03818,0.401912 0.03818,0.89314 v 0.893145 h 1.48857 1.488569 v 2.150155 2.150159 h -1.488569 -1.48857 v 0.82698 c 0,0.454842 -0.02233,0.825527 -0.04962,0.823748 -0.02728,-0.0019 -0.895054,-0.866506 -1.928368,-1.921609 z"
       id="path4927-9"
       inkscape:connector-curvature="0" />
    <path
       style="fill:url(#linearGradient4937);fill-opacity:1;stroke-width:0.06615867"
       d="m 25.584023,43.478667 c -3.888164,-3.317652 -6.165338,-4.983851 -8.222509,-6.016378 -0.640717,-0.321585 -1.60642,-0.684017 -1.921812,-0.721267 -0.192604,-0.02274 -0.196918,-0.01585 -0.440411,0.704772 -0.529651,1.567497 -0.92791,3.488592 -1.016596,4.903787 l -0.04611,0.735789 -0.397778,0.04157 c -0.218778,0.02285 -0.557154,0.04158 -0.751946,0.04158 h -0.354168 l 2.25e-4,-0.314255 c 7.82e-4,-1.105234 0.310219,-3.049366 0.734443,-4.614567 0.667462,-2.462647 1.63624,-4.661965 3.212815,-7.293731 1.181477,-1.972235 1.608004,-3.563646 1.609223,-6.004165 0.0017,-3.340945 -1.183848,-7.534413 -3.313671,-11.721287 l -0.577821,-1.135898 0.652319,-0.399147 0.652319,-0.399145 0.294067,0.542664 c 1.728191,3.189166 3.032043,6.821833 3.542954,9.871039 0.216007,1.289176 0.278916,2.044623 0.278215,3.341012 -0.0015,2.704179 -0.49071,4.519236 -1.824509,6.768726 -0.686548,1.15788 -1.12058,1.960004 -1.080375,1.996614 0.02897,0.02639 20.695459,0.07759 20.695459,0.05127 0,-0.07554 -0.503369,-0.9915 -1.000875,-1.821265 -0.704393,-1.174825 -0.864108,-1.484384 -1.156604,-2.241755 -1.390238,-3.59978 -0.946483,-8.568294 1.263404,-14.145775 0.815772,-2.058907 1.956115,-4.340867 2.134929,-4.27225 0.12407,0.04761 1.207019,0.698057 1.207019,0.724966 0,0.01032 -0.221524,0.447447 -0.492271,0.9714 -0.889188,1.720752 -1.860722,4.111153 -2.376971,5.848385 -1.030436,3.467516 -1.274841,6.451641 -0.728376,8.893265 0.286794,1.281402 0.537399,1.872408 1.432893,3.379171 2.300151,3.870254 3.535022,7.553611 3.787264,11.296592 l 0.0457,0.67813 h -0.361301 c -0.198718,0 -0.53824,-0.0185 -0.75449,-0.0411 l -0.393186,-0.04109 -0.07859,-0.901667 c -0.129672,-1.487776 -0.427609,-2.943269 -0.919259,-4.490773 -0.271264,-0.853829 -0.208955,-0.817345 -1.035914,-0.606589 -2.923187,0.745001 -6.594764,3.192397 -10.246785,6.83029 l -0.708912,0.706176 z M 12.49885,28.051264 V 27.15812 H 11.01028 9.5217097 v -2.150155 -2.150159 h 1.4885703 1.48857 v -0.875474 -0.875474 l 0.732443,0.726615 c 0.402843,0.399643 1.269731,1.284857 1.926417,1.96715 l 1.193975,1.240528 -1.876798,1.944329 c -1.03224,1.06938 -1.899127,1.947611 -1.926418,1.951623 -0.02729,0.004 -0.04962,-0.39461 -0.04962,-0.885839 z m 25.940977,-1.031705 -1.878746,-1.91837 0.689414,-0.708201 c 0.37918,-0.389508 1.229768,-1.266411 1.890193,-1.948672 0.660426,-0.682261 1.217956,-1.240475 1.23895,-1.240475 0.02099,0 0.03818,0.401912 0.03818,0.89314 v 0.893145 h 1.488569 1.488571 v 2.150155 2.150159 h -1.488571 -1.488569 v 0.82698 c 0,0.454842 -0.02233,0.825527 -0.04962,0.823748 -0.02728,-0.0019 -0.895054,-0.866506 -1.928367,-1.921609 z"
       id="path4927"
       inkscape:connector-curvature="0" />
  </g>
</svg>
