<?xml version="1.0" encoding="UTF-8" standalone="no"?>
<!-- Created with Inkscape (http://www.inkscape.org/) -->

<svg
   xmlns:dc="http://purl.org/dc/elements/1.1/"
   xmlns:cc="http://creativecommons.org/ns#"
   xmlns:rdf="http://www.w3.org/1999/02/22-rdf-syntax-ns#"
   xmlns:svg="http://www.w3.org/2000/svg"
   xmlns="http://www.w3.org/2000/svg"
   xmlns:xlink="http://www.w3.org/1999/xlink"
   xmlns:sodipodi="http://sodipodi.sourceforge.net/DTD/sodipodi-0.dtd"
   xmlns:inkscape="http://www.inkscape.org/namespaces/inkscape"
   width="1280"
   height="720"
   viewBox="0 0 338.66666 190.50001"
   version="1.1"
   id="svg8"
   inkscape:version="0.92.3 (2405546, 2018-03-11)"
   sodipodi:docname="Lyfestyle_background.svg"
   inkscape:export-filename="/var/www/html/Lyfestyle/assets/images/Lyfestyle_background_2.png"
   inkscape:export-xdpi="96"
   inkscape:export-ydpi="96">
  <defs
     id="defs2">
    <inkscape:path-effect
       effect="fill_between_strokes"
       id="path-effect4957"
       is_visible="true"
       linkedpath=""
       secondpath=""
       reversesecond="false" />
    <inkscape:path-effect
       effect="bend_path"
       id="path-effect1250"
       is_visible="true"
       bendpath="m 224.99699,171.69216 c 166.45826,-2.97781 67.23041,27.7284 231.87703,27.7284"
       prop_scale="1.3304699"
       scale_y_rel="false"
       vertical="false"
       bendpath-nodetypes="cc" />
    <inkscape:path-effect
       effect="bounding_box"
       id="path-effect1238"
       is_visible="true"
       linkedpath=""
       visualbounds="false" />
    <inkscape:perspective
       sodipodi:type="inkscape:persp3d"
       inkscape:vp_x="735.05615 : 706.51278 : 1"
       inkscape:vp_y="-7348.1887 : -4.4994682e-13 : 0"
       inkscape:vp_z="735.05615 : 3598.2904 : 1"
       inkscape:persp3d-origin="968.36112 : 2152.4017 : 1"
       id="perspective1150" />
    <inkscape:perspective
       sodipodi:type="inkscape:persp3d"
       inkscape:vp_x="460.6785 : 383.75859 : 1"
       inkscape:vp_y="0 : -1297.8538 : 0"
       inkscape:vp_z="-784.83837 : 383.75859 : 1"
       inkscape:persp3d-origin="-162.07998 : 424.96545 : 1"
       id="perspective1062" />
    <linearGradient
       inkscape:collect="always"
       xlink:href="#linearGradient5285"
       id="linearGradient1735"
       gradientUnits="userSpaceOnUse"
       gradientTransform="translate(-1.7386694e-6,-3.0034832e-5)"
       x1="169.97583"
       y1="97.490204"
       x2="336.99945"
       y2="97.490204" />
    <linearGradient
       id="linearGradient5285"
       inkscape:collect="always">
      <stop
         id="stop5277"
         offset="0"
         style="stop-color:#6c69a7;stop-opacity:1" />
      <stop
         id="stop5283"
         offset="1"
         style="stop-color:#33b8b8;stop-opacity:1" />
    </linearGradient>
    <linearGradient
       inkscape:collect="always"
       xlink:href="#linearGradient1758"
       id="linearGradient1741"
       gradientUnits="userSpaceOnUse"
       gradientTransform="matrix(0.26458334,0,0,0.26458334,27.970238,-316.84776)"
       x1="535.71429"
       y1="1618.5713"
       x2="535.71429"
       y2="1541.4285" />
    <linearGradient
       inkscape:collect="always"
       id="linearGradient1758">
      <stop
         style="stop-color:#2b5e9d;stop-opacity:1"
         offset="0"
         id="stop1754" />
      <stop
         style="stop-color:#5a96de;stop-opacity:1"
         offset="1"
         id="stop1756" />
    </linearGradient>
    <linearGradient
       inkscape:collect="always"
       xlink:href="#linearGradient1772"
       id="linearGradient1774"
       x1="194.83949"
       y1="115.45425"
       x2="194.83949"
       y2="87.941223"
       gradientUnits="userSpaceOnUse"
       gradientTransform="translate(0,-1.0583324)" />
    <linearGradient
       inkscape:collect="always"
       id="linearGradient1772">
      <stop
         style="stop-color:#34b7b8;stop-opacity:1"
         offset="0"
         id="stop1768" />
      <stop
         id="stop1776"
         offset="0.5"
         style="stop-color:#ffffff;stop-opacity:1" />
      <stop
         style="stop-color:#85f3f5;stop-opacity:1"
         offset="1"
         id="stop1770" />
    </linearGradient>
    <linearGradient
       inkscape:collect="always"
       xlink:href="#linearGradient5285"
       id="linearGradient1735-7"
       gradientUnits="userSpaceOnUse"
       gradientTransform="translate(-1.7386694e-6,-4.3461914e-5)"
       x1="4.5894384"
       y1="97.490204"
       x2="336.99945"
       y2="97.490204" />
  </defs>
  <sodipodi:namedview
     id="base"
     pagecolor="#ffffff"
     bordercolor="#666666"
     borderopacity="1.0"
     inkscape:pageopacity="0.0"
     inkscape:pageshadow="2"
     inkscape:zoom="0.1767767"
     inkscape:cx="378.32398"
     inkscape:cy="155.3951"
     inkscape:document-units="px"
     inkscape:current-layer="g1729"
     showgrid="false"
     inkscape:window-width="1303"
     inkscape:window-height="713"
     inkscape:window-x="63"
     inkscape:window-y="27"
     inkscape:window-maximized="1"
     units="px"
     inkscape:snap-global="false" />
  <metadata
     id="metadata5">
    <rdf:RDF>
      <cc:Work
         rdf:about="">
        <dc:format>image/svg+xml</dc:format>
        <dc:type
           rdf:resource="http://purl.org/dc/dcmitype/StillImage" />
        <dc:title />
      </cc:Work>
    </rdf:RDF>
  </metadata>
  <g
     style="display:inline"
     inkscape:label="Whole"
     id="g1729"
     inkscape:groupmode="layer">
    <g
       id="g2256"
       transform="translate(0,174.625)">
      <path
         sodipodi:nodetypes="cccc"
         inkscape:connector-curvature="0"
         id="path2221"
         d="m 338.66668,190.97295 -21.95971,-20.32636 21.95971,-20.44611 z"
         style="opacity:1;fill:#ffffff;fill-opacity:0.23333333;stroke:none;stroke-width:0.14634769px;stroke-linecap:butt;stroke-linejoin:miter;stroke-opacity:1" />
      <path
         sodipodi:nodetypes="cccc"
         inkscape:connector-curvature="0"
         id="path2225"
         d="m 281.27864,175.61684 -36.27446,15.35611 47.41664,0.58539 z"
         style="opacity:1;fill:#ffffff;fill-opacity:0.11904764;stroke:none;stroke-width:0.14634769px;stroke-linecap:butt;stroke-linejoin:miter;stroke-opacity:1" />
      <path
         sodipodi:nodetypes="ccccc"
         inkscape:connector-curvature="0"
         id="path2227"
         d="m 258.10038,151.57699 23.17826,24.03985 -36.27447,15.35611 -26.94077,-25.12355 z"
         style="opacity:1;fill:#ffffff;fill-opacity:0.18095236;stroke:none;stroke-width:0.14634769px;stroke-linecap:butt;stroke-linejoin:miter;stroke-opacity:1" />
      <path
         sodipodi:nodetypes="ccccc"
         inkscape:connector-curvature="0"
         id="path2229"
         d="m 304.42216,152.55214 -23.14352,23.0647 11.14218,15.9415 24.28616,-20.91175 z"
         style="opacity:1;fill:#ffffff;fill-opacity:0.24761903;stroke:none;stroke-width:0.14634769px;stroke-linecap:butt;stroke-linejoin:miter;stroke-opacity:1" />
      <path
         sodipodi:nodetypes="ccccc"
         inkscape:connector-curvature="0"
         id="path2231"
         d="m 338.66669,129.79962 -34.24453,22.75252 12.28482,18.09445 21.95971,-20.44611 z"
         style="opacity:1;fill:#ffffff;fill-opacity:0.13809527;stroke:none;stroke-width:0.14634769px;stroke-linecap:butt;stroke-linejoin:miter;stroke-opacity:1" />
      <path
         sodipodi:nodetypes="cccc"
         inkscape:connector-curvature="0"
         id="path2233"
         d="m 292.42082,191.55834 24.28616,-20.91175 21.95972,20.32636 z"
         style="opacity:1;fill:#ffffff;fill-opacity:0.11904764;stroke:none;stroke-width:0.14634769px;stroke-linecap:butt;stroke-linejoin:miter;stroke-opacity:1" />
      <path
         inkscape:connector-curvature="0"
         id="path2235"
         d="m 245.00417,190.97295 h -52.3875 L 218.0634,165.8494 Z"
         style="fill:#ffffff;fill-opacity:0.12380952;stroke:none;stroke-width:0.26458335px;stroke-linecap:butt;stroke-linejoin:miter;stroke-opacity:1" />
      <path
         inkscape:connector-curvature="0"
         id="path2237"
         d="M 192.61667,190.97295 H 168.53959 V 160.3375 l 49.52381,5.5119 z"
         style="fill:#ffffff;fill-opacity:0.24761903;stroke:none;stroke-width:0.26458335px;stroke-linecap:butt;stroke-linejoin:miter;stroke-opacity:1" />
      <path
         sodipodi:nodetypes="ccccc"
         inkscape:connector-curvature="0"
         id="path2239"
         d="m 281.27865,175.61684 23.14351,-23.0647 -15.49715,-14.17506 -30.82463,13.19991 z"
         style="fill:#ffffff;fill-opacity:0.10952382;stroke:none;stroke-width:0.26458335px;stroke-linecap:butt;stroke-linejoin:miter;stroke-opacity:1" />
      <path
         sodipodi:nodetypes="ccccc"
         inkscape:connector-curvature="0"
         id="path2241"
         d="m 304.42216,152.55214 34.24454,-22.75252 v -26.08295 l -49.74169,34.66041 z"
         style="fill:#ffffff;fill-opacity:0.18095236;stroke:none;stroke-width:0.26458335px;stroke-linecap:butt;stroke-linejoin:miter;stroke-opacity:1" />
      <path
         sodipodi:nodetypes="ccccc"
         inkscape:connector-curvature="0"
         id="path2243"
         d="m 258.10038,151.57699 30.82463,-13.19991 -1.55681,-28.32521 -34.05014,2.61924 z"
         style="fill:#ffffff;fill-opacity:0.18095236;stroke:none;stroke-width:0.26458335px;stroke-linecap:butt;stroke-linejoin:miter;stroke-opacity:1" />
    </g>
    <rect
       inkscape:export-ydpi="96"
       inkscape:export-xdpi="96"
       inkscape:export-filename="/home/albert/Documents/Inkscape work/lyfestyle branding/Lyfestyle_logo_wip_02.png"
       ry="0"
       y="1.5624998e-06"
       x="-7.3947485e-06"
       height="190.5"
       width="338.66669"
       id="rect1649-5"
       style="display:inline;opacity:1;fill:url(#linearGradient1735-7);fill-opacity:1;stroke:none;stroke-width:1.62909067;stroke-linecap:round;stroke-miterlimit:4;stroke-dasharray:none;stroke-opacity:1" />
  </g>
  <g
     inkscape:groupmode="layer"
     id="layer1"
     inkscape:label="Split"
     style="display:none"
     sodipodi:insensitive="true">
    <rect
       inkscape:export-ydpi="96"
       inkscape:export-xdpi="96"
       inkscape:export-filename="/home/albert/Documents/Inkscape work/lyfestyle branding/Lyfestyle_logo_wip_02.png"
       ry="0"
       y="2.6458333e-06"
       x="-7.3947485e-06"
       height="190.5"
       width="338.66669"
       id="rect1649"
       style="display:inline;opacity:1;fill:url(#linearGradient1735);fill-opacity:1;stroke:none;stroke-width:1.62909067;stroke-linecap:round;stroke-miterlimit:4;stroke-dasharray:none;stroke-opacity:1" />
    <rect
       style="opacity:1;fill:#ffffff;fill-opacity:1;stroke:none;stroke-width:0.27806515;stroke-miterlimit:4;stroke-dasharray:none;stroke-opacity:1"
       id="rect1063"
       width="169.33334"
       height="190.5"
       x="0"
       y="2.8421709e-14" />
    <path
       style="display:inline;opacity:1;fill:#cef8f8;fill-opacity:1;stroke:none;stroke-width:7.13286304;stroke-linecap:round;stroke-miterlimit:4;stroke-dasharray:none;stroke-opacity:1"
       d="M -87.557177,-28.310188 A 66.68995,66.145776 0 0 0 -146.35432,6.6786036 c 6.21718,-5.527006 15.73263,-9.089646 25.04247,-8.450332 22.975323,1.577766 19.44561,12.2396414 35.364835,16.5441954 21.193363,5.730661 42.306501,-7.3362374 52.639071,-15.2665354 A 66.68995,66.145776 0 0 0 -87.557177,-28.310188 Z m 9.907185,9.68827 a 13.087897,15.106407 19.925418 0 1 4.727075,1.020862 13.087897,15.106407 19.925418 0 1 5.948638,19.2837996 13.087897,15.106407 19.925418 0 1 -17.900732,8.4452784 13.087897,15.106407 19.925418 0 1 -5.947982,-19.2831624 13.087897,15.106407 19.925418 0 1 13.173001,-9.4667776 z m 50.799188,29.272989 c -0.88447,1.980552 -2.19248,3.927507 -4.09617,5.703176 -9.64202,8.993931 -43.420187,16.29623 -43.420187,16.29623 l -6.965058,16.62557 c 0,0 29.602455,5.236742 32.575415,17.649003 1.48649,6.206142 -4.26222,21.332062 -14.704343,31.875042 -0.358296,0.36178 -0.722987,0.71731 -1.09153,1.06823 a 66.68995,66.145776 0 0 0 43.685203,-62.032673 66.68995,66.145776 0 0 0 -5.98333,-27.184578 z m -103.142946,2.513084 c -5.54236,-0.01945 -12.25157,1.151043 -20.55957,3.179363 a 66.68995,66.145776 0 0 0 -3.69421,21.492131 66.68995,66.145776 0 0 0 13.5257,39.835133 c 15.22057,-8.610523 33.45004,-24.022945 33.07197,-48.359934 -5.1465,-11.544692 -11.52086,-16.110532 -22.34389,-16.146693 z m 31.817005,55.311753 c 0,0 -10.579895,9.040494 -22.709235,14.799014 -3.61037,1.71405 -7.19704,3.06342 -10.87506,4.00589 a 66.68995,66.145776 0 0 0 44.203863,16.700668 66.68995,66.145776 0 0 0 4.421709,-0.1558 l 13.533903,-26.313828 z"
       id="path1240-3-6-2-3"
       inkscape:connector-curvature="0" />
    <rect
       style="opacity:1;fill:#cef8f8;fill-opacity:1;stroke:none;stroke-width:0.26458335;stroke-miterlimit:4;stroke-dasharray:none;stroke-opacity:1"
       id="rect2146"
       width="35.921024"
       height="35.921024"
       x="17.960512"
       y="223.42761" />
    <rect
       style="opacity:1;fill:#acb0d2;fill-opacity:1;stroke:none;stroke-width:0.26458335;stroke-miterlimit:4;stroke-dasharray:none;stroke-opacity:1"
       id="rect2146-6"
       width="35.921024"
       height="35.921024"
       x="68.100273"
       y="223.42761" />
  </g>
  <g
     inkscape:groupmode="layer"
     id="layer2"
     inkscape:label="Filler"
     sodipodi:insensitive="true"
     style="display:none">
    <g
       id="g2167"
       transform="matrix(0.52008244,0,0,0.52008244,-8.8358863,3.3621736)">
      <path
         inkscape:connector-curvature="0"
         id="path1240-3-6-2"
         d="M 92.139894,37.41286 A 58.312913,57.837095 0 0 0 40.728365,68.006649 c 5.436227,-4.832749 13.756428,-7.947879 21.896842,-7.388868 20.08935,1.37958 17.003015,10.702198 30.922593,14.466049 18.53123,5.01082 36.99231,-6.414719 46.02699,-13.34888 A 58.312913,57.837095 0 0 0 92.139894,37.41286 Z m 8.662726,8.47131 a 11.443905,13.208866 19.925418 0 1 4.1333,0.89263 11.443905,13.208866 19.925418 0 1 5.20142,16.861531 11.443905,13.208866 19.925418 0 1 -15.65219,7.384449 11.443905,13.208866 19.925418 0 1 -5.200846,-16.86097 11.443905,13.208866 19.925418 0 1 11.518316,-8.27764 z m 44.41822,25.595959 c -0.77337,1.731772 -1.91708,3.43417 -3.58164,4.98679 -8.43087,7.864192 -37.96611,14.24923 -37.96611,14.24923 l -6.090164,14.537211 c 0,0 25.884044,4.57894 28.483564,15.43208 1.29977,5.42657 -3.72684,18.6525 -12.85731,27.87116 -0.31329,0.31634 -0.63217,0.62721 -0.95442,0.93405 A 58.312913,57.837095 0 0 0 150.45259,95.25001 58.312913,57.837095 0 0 0 145.22084,71.480129 Z M 55.033856,73.677541 C 50.187679,73.660551 44.321224,74.684 37.056805,76.457542 A 58.312913,57.837095 0 0 0 33.826634,95.25001 58.312913,57.837095 0 0 0 45.65335,130.08138 C 58.962038,122.55244 74.901668,109.076 74.571092,87.79602 70.071054,77.70148 64.497383,73.709159 55.033856,73.677541 Z m 27.820412,48.363949 c 0,0 -9.25094,7.9049 -19.856686,12.94008 -3.156871,1.49875 -6.293006,2.67862 -9.50903,3.50271 a 58.312913,57.837095 0 0 0 38.651342,14.60287 58.312913,57.837095 0 0 0 3.86629,-0.13623 l 11.833886,-23.00851 z"
         style="display:inline;opacity:1;fill:#cef8f8;fill-opacity:1;stroke:none;stroke-width:6.23689222;stroke-linecap:round;stroke-miterlimit:4;stroke-dasharray:none;stroke-opacity:1" />
      <path
         id="path1721"
         style="display:inline;fill:url(#linearGradient1741);fill-opacity:1;stroke:none;stroke-width:1.32291675;stroke-miterlimit:4;stroke-dasharray:none;stroke-opacity:1"
         d="m 258.69156,76.655897 c 1.82328,0 3.27257,0.53784 4.34857,1.61385 1.07609,1.046141 1.61437,2.480871 1.61437,4.304141 v 10.80606 c 0.65291,-1.264531 1.50995,-2.431341 2.57659,-3.49798 2.74982,-2.749841 6.15715,-4.12483 10.22213,-4.12483 2.66014,0 5.24541,0.732211 7.7561,2.196791 2.8993,1.673799 4.34909,3.766417 4.34909,6.277128 0,0.807 -0.14962,1.554271 -0.44855,2.241712 0.29893,0.717359 0.44855,1.46463 0.44855,2.241729 0,1.883032 -0.76232,3.437272 -2.28669,4.662772 -0.23913,0.23911 -0.65746,0.67249 -1.25521,1.30016 0.89665,1.07604 1.34514,2.36112 1.34514,3.85559 0,0.77711 -0.13457,1.52437 -0.40359,2.24171 0.26902,0.71737 0.40359,1.4646 0.40359,2.24174 0,1.70367 -0.56798,3.12338 -1.70378,4.25915 -1.10588,1.13583 -2.5105,1.70379 -4.21421,1.70379 h -3.99044 c -4.03508,0 -7.44241,-1.39004 -10.22213,-4.16978 -1.06656,-1.06654 -1.9237,-2.23306 -2.57659,-3.49745 v 1.65933 c 0,1.70371 -0.58297,3.10883 -1.74872,4.21474 -1.13579,1.13577 -2.54039,1.70325 -4.21422,1.70325 -1.70364,0 -3.12338,-0.56748 -4.25917,-1.70325 -0.061,-0.061 -0.11964,-0.12327 -0.17725,-0.18606 -0.18258,3.15865 -1.39716,5.85176 -3.64939,8.07651 -2.42103,2.45092 -5.39493,3.67628 -8.92193,3.67628 -1.76343,0 -3.22785,-0.55292 -4.39353,-1.65883 -1.16568,-1.10588 -1.74874,-2.52555 -1.74874,-4.25915 0,-0.77714 0.13465,-1.5244 0.4036,-2.24174 -0.26895,-0.68747 -0.4036,-1.4347 -0.4036,-2.24171 0,-0.3288 0.0301,-0.64265 0.0899,-0.94155 -2.00256,-1.07603 -3.58649,-2.60016 -4.75216,-4.57284 -0.35636,-0.59394 -0.65796,-1.21036 -0.90537,-1.84899 -0.60431,1.55731 -1.53256,2.96656 -2.79105,4.22505 -2.4211,2.45094 -5.39501,3.67628 -8.92194,3.67628 -3.55681,0 -6.54578,-1.21028 -8.96689,-3.63133 -2.42103,-2.42104 -3.63182,-5.41004 -3.63182,-8.96688 v -5.85391 c -1.01352,0.97724 -2.27306,1.52773 -3.78478,1.6397 0,-0.0299 -0.0301,-0.0896 -0.0899,-0.17931 -0.0598,-0.0897 -0.0894,-0.14943 -0.0894,-0.17933 -0.0299,0.74724 -0.045,1.68833 -0.045,2.82411 v 0.85217 c 0,2.24168 -0.16419,3.96018 -0.49299,5.15575 -0.47826,1.76347 -1.44996,3.39257 -2.91455,4.88704 -2.27158,2.27161 -5.03609,3.40754 -8.29407,3.40754 -1.70365,0 -3.12331,-0.56798 -4.25917,-1.70378 -1.10589,-1.10591 -1.65881,-2.511 -1.65881,-4.21471 0,-0.77713 0.13405,-1.52387 0.40307,-2.24123 -0.26902,-0.71734 -0.40307,-1.4646 -0.40307,-2.24171 0,-1.67381 0.53785,-3.07893 1.61385,-4.21473 1.10597,-1.13581 2.49602,-1.71834 4.16977,-1.74821 v -0.53848 c 0,-0.32877 0.0146,-0.67226 0.0445,-1.03095 -0.0299,-0.38854 -0.0445,-0.7175 -0.0445,-0.986494 v -2.465999 c 0,-3.287811 1.12083,-6.052339 3.36259,-8.29405 2.27157,-2.271609 5.05116,-3.40754 8.33902,-3.407569 1.64657,0 3.02723,0.532239 4.14342,1.593189 v -0.965298 c 0,-1.703711 0.55344,-3.123383 1.65933,-4.259191 1.13586,-1.135769 2.55553,-1.703761 4.25917,-1.703761 1.58416,0 2.929,0.50822 4.0349,1.52445 1.13586,1.016241 1.77866,2.3164 1.92805,3.90054 h 7.35252 c 1.70365,0 3.10876,0.567989 4.21473,1.703761 0.31962,0.311229 0.59249,0.64656 0.82217,1.005131 0.23432,-0.392592 0.51924,-0.757981 0.85628,-1.095031 1.13579,-1.135812 2.55545,-1.70379 4.25917,-1.70379 1.82321,0 3.27301,0.53838 4.34909,1.614379 1.07601,1.046141 1.61385,2.480871 1.61385,4.304141 v 10.132182 c 0,0.47824 0.2391,0.71729 0.71727,0.71726 0.44837,3e-5 0.67283,-0.23902 0.67283,-0.71726 V 91.675658 c 0,-1.703699 0.56746,-3.10883 1.70326,-4.21473 1.13578,-1.135812 2.55597,-1.70379 4.25969,-1.70379 1.70371,0 3.10832,0.567978 4.21421,1.70379 0.0671,0.0654 0.13167,0.132019 0.19482,0.199469 v -5.086509 c 0,-1.70371 0.55284,-3.108301 1.65881,-4.214212 1.13579,-1.135798 2.55553,-1.703779 4.25917,-1.703779 z m -159.459001,-0.0894 c 1.703711,0 3.123381,0.567471 4.259171,1.70325 1.13578,1.105929 1.70377,2.51106 1.70377,4.214731 v 19.323362 c 0,0.47824 0.23901,0.71729 0.71727,0.71726 h 1.97249 c 1.68023,0 3.06944,0.55362 4.16822,1.6583 V 91.675658 c 0,-1.703699 0.55336,-3.10883 1.65933,-4.21473 1.13579,-1.135812 2.55553,-1.70379 4.25917,-1.70379 1.82328,0 3.27257,0.53838 4.34857,1.614379 1.07608,1.046141 1.61437,2.480871 1.61437,4.304141 v 10.132182 c 0,0.47824 0.23909,0.71729 0.71727,0.71726 0.44837,0 0.67231,-0.23902 0.67231,-0.71726 V 91.675658 c 1e-5,-1.703699 0.56799,-3.10883 1.70378,-4.21473 1.13579,-1.135812 2.55545,-1.70379 4.25917,-1.70379 1.70372,0 3.10884,0.567978 4.21473,1.70379 0.0925,0.0901 0.17961,0.182959 0.26458,0.276989 0.28585,-2.93624 1.47165,-5.45021 3.56154,-7.540119 2.42111,-2.421052 5.41008,-3.631301 8.9669,-3.631301 3.52692,0 6.50083,1.225331 8.92194,3.67628 2.42102,2.421041 3.6313,5.39496 3.6313,8.92193 v 0.313661 c 0,0.597778 -0.0743,1.165759 -0.22376,1.703789 0.11932,0.64429 0.18833,1.29879 0.21239,1.96215 0.63637,-1.174091 1.45193,-2.262208 2.45205,-3.262339 2.74983,-2.749841 6.15722,-4.124801 10.22211,-4.12483 2.66023,2.9e-5 5.24593,0.732211 7.75663,2.196791 2.89929,1.673799 4.34909,3.766417 4.34909,6.277128 0,0.807 -0.14964,1.554271 -0.44855,2.241712 0.29891,0.717359 0.44855,1.46463 0.44855,2.241729 0,1.883032 -0.76231,3.437272 -2.28668,4.662772 -0.23913,0.23911 -0.6574,0.67249 -1.25522,1.30016 0.89673,1.07604 1.34462,2.36112 1.34462,3.85559 0,0.77711 -0.13406,1.52437 -0.40308,2.24171 0.26902,0.71737 0.40308,1.4646 0.40308,2.24174 0,1.70367 -0.56791,3.12338 -1.70377,4.25915 -1.1059,1.13583 -2.51057,1.70379 -4.21422,1.70379 h -3.99045 c -4.03507,0 -7.44246,-1.39004 -10.22211,-4.16978 -2.11406,-2.11405 -3.41176,-4.61825 -3.90054,-7.50962 -0.0216,0.0222 -0.042,0.0451 -0.0641,0.0672 -1.10598,1.10593 -2.51109,1.65883 -4.21473,1.65883 h -7.53184 v 3.94549 c 0,1.70371 -0.56799,3.10883 -1.70377,4.21474 -1.13579,1.13577 -2.55546,1.70325 -4.25917,1.70325 -1.70365,0 -3.12383,-0.56748 -4.25969,-1.70325 -0.061,-0.061 -0.11914,-0.12327 -0.17674,-0.18606 -0.18258,3.15865 -1.39716,5.85176 -3.64939,8.07651 -2.42102,2.45092 -5.39493,3.67628 -8.92193,3.67628 -1.76343,0 -3.22778,-0.55292 -4.39353,-1.65883 -1.16568,-1.10588 -1.74874,-2.52555 -1.74874,-4.25915 0,-0.77714 0.13458,-1.5244 0.4036,-2.24174 -0.26902,-0.68747 -0.4036,-1.4347 -0.4036,-2.24171 0,-0.3288 0.0296,-0.64265 0.0894,-0.94155 -2.00255,-1.07603 -3.58648,-2.60016 -4.75216,-4.57284 -0.002,-0.003 -0.003,-0.006 -0.005,-0.008 0.001,0.0478 0.006,0.0946 0.006,0.14263 0,1.70371 -0.56799,3.10883 -1.70377,4.21474 -1.1059,1.13577 -2.51101,1.70325 -4.21473,1.70325 h -1.97249 c -3.55682,0 -6.545786,-1.21028 -8.96689,-3.63133 -2.42103,-2.42104 -3.631303,-5.41004 -3.631303,-8.96688 V 82.484787 c 0,-1.703668 0.552918,-3.108798 1.658813,-4.214728 1.135864,-1.135782 2.555525,-1.70325 4.259172,-1.70325 z"
         inkscape:connector-curvature="0" />
      <path
         id="path1723"
         style="display:inline;fill:url(#linearGradient1774);fill-opacity:1;stroke:none;stroke-width:1.32291675;stroke-miterlimit:4;stroke-dasharray:none;stroke-opacity:1"
         d="m 277.45322,88.671709 c -3.258,0 -5.97781,1.09075 -8.15973,3.272657 -2.18196,2.181943 -3.27318,4.901751 -3.27318,8.159714 0,3.25795 1.09122,5.99284 3.27318,8.20465 2.18192,2.18194 4.90173,3.27319 8.15973,3.27319 h 3.99044 c 0.89665,0 1.61378,-0.28424 2.15181,-0.85214 0.56784,-0.5679 0.85164,-1.30009 0.85164,-2.19676 0,-0.89667 -0.2838,-1.6138 -0.85164,-2.1518 -0.53803,-0.5679 -1.25516,-0.85214 -2.15181,-0.85214 h -3.99044 c -1.4945,0 -2.76453,-0.5228 -3.81064,-1.5689 -1.04619,-1.07604 -1.5694,-2.36162 -1.5694,-3.8561 0,-1.494462 0.52321,-2.764484 1.5694,-3.810622 1.04611,-1.046142 2.31614,-1.5694 3.81064,-1.5694 0.38848,0 0.77724,0.0301 1.1658,0.0899 l -3.22823,3.183279 c -0.6576,0.657571 -0.9865,1.35962 -0.9865,2.106843 0,0.83691 0.2993,1.56959 0.8971,2.19726 0.62764,0.6277 1.35982,0.94155 2.19678,0.94155 0.74721,0 1.44976,-0.31385 2.10735,-0.94155 l 5.73868,-5.604282 c 0.86678,-0.657571 1.30017,-1.479661 1.30017,-2.466001 0,-0.747239 -0.29882,-1.43473 -0.89657,-2.062401 -2.27166,-2.331378 -5.03669,-3.496947 -8.29458,-3.496947 z m -42.40466,0 c -0.89673,0 -1.62891,0.283739 -2.19676,0.851619 -0.53804,0.538031 -0.80719,1.255628 -0.80719,2.15233 v 10.132182 c 0,2.77972 0.91144,5.0963 2.73472,6.94944 1.85317,1.82327 4.1698,2.73474 6.94944,2.73474 1.25543,0 2.45108,-0.22397 3.58687,-0.67231 v 0.85161 c 0,0.98634 -0.35852,1.83857 -1.07591,2.55593 -0.71731,0.71734 -1.56951,1.0759 -2.55591,1.0759 h -0.17932 c -0.89673,0 -1.62891,0.28372 -2.19677,0.85162 -0.56793,0.5679 -0.85162,1.30008 -0.85162,2.19678 0,0.89667 0.28369,1.6143 0.85162,2.15231 0.56786,0.5679 1.30004,0.85164 2.19677,0.85164 h 0.17932 c 2.74982,0 5.05131,-0.92655 6.90448,-2.77969 1.85318,-1.85314 2.77968,-4.15467 2.77968,-6.90449 V 91.675658 c 0,-0.896702 -0.2837,-1.614299 -0.85163,-2.15233 -0.53804,-0.56788 -1.25566,-0.851619 -2.15232,-0.851619 -0.89666,0 -1.62884,0.283739 -2.19677,0.851619 -0.56786,0.538031 -0.85162,1.255628 -0.85162,2.15233 v 10.132182 c 0,1.01624 -0.34397,1.88302 -1.03147,2.60035 -0.68742,0.68747 -1.5391,1.03148 -2.5554,1.03148 -1.01622,0 -1.88304,-0.34401 -2.60036,-1.03148 -0.68749,-0.71733 -1.03146,-1.58411 -1.03146,-2.60035 V 91.675658 c 0,-2.002599 -1.01594,-3.003949 -3.04839,-3.003949 z m -33.52974,0 c -2.48088,0 -4.57297,0.851699 -6.27662,2.555399 -1.67382,1.673809 -2.51095,3.750839 -2.51095,6.231649 v 2.465999 c 0,0.209224 -0.0146,0.821894 -0.0445,1.838134 v 0.8971 c 0,0.77713 -0.26914,1.43449 -0.80718,1.97249 -0.50807,0.50811 -1.15088,0.76224 -1.92805,0.76224 -0.89666,0 -1.62884,0.28371 -2.19676,0.85161 -0.53797,0.56791 -0.80719,1.30059 -0.80719,2.19729 0,0.89667 0.26922,1.62885 0.80719,2.19676 0.56792,0.538 1.3001,0.80668 2.19676,0.80668 2.451,0 4.51347,-0.85172 6.18722,-2.5554 1.70372,-1.7037 2.57047,-3.78073 2.60036,-6.23167 l 0.045,-5.201233 c 0,-0.448329 0.0296,-0.776759 0.0894,-0.985988 0.0897,-0.239112 0.3292,-0.552982 0.71778,-0.94152 0.38852,-0.388573 1.06094,-0.657762 2.01745,-0.807191 0.98634,-0.17934 1.71859,-0.508291 2.19677,-0.986502 0.50814,-0.508129 0.76222,-1.195117 0.76222,-2.061898 0,-0.896702 -0.28429,-1.614299 -0.85214,-2.15233 -0.56793,-0.56788 -1.30011,-0.851619 -2.19677,-0.851619 z m -28.00759,0 c -3.25791,0 -5.97781,1.09075 -8.15971,3.272657 -2.18198,2.181943 -3.27267,4.901751 -3.27267,8.159714 0,3.25795 1.09069,5.99284 3.27267,8.20465 2.1819,2.18194 4.9018,3.27319 8.15971,3.27319 h 3.99045 c 0.89666,0 1.61385,-0.28424 2.15181,-0.85214 0.56794,-0.5679 0.85215,-1.30009 0.85215,-2.19676 0,-0.89667 -0.28421,-1.6138 -0.85215,-2.1518 -0.53796,-0.5679 -1.25515,-0.85214 -2.15181,-0.85214 h -3.99045 c -1.49441,0 -2.76443,-0.5228 -3.81062,-1.5689 -1.04611,-1.07604 -1.56941,-2.36162 -1.56941,-3.8561 0,-1.494462 0.5233,-2.764484 1.56941,-3.810622 1.04619,-1.046142 2.31621,-1.5694 3.81062,-1.5694 0.38858,0 0.77724,0.0301 1.16582,0.0899 l -3.22771,3.183279 c -0.65761,0.657571 -0.9865,1.35962 -0.9865,2.106843 0,0.83691 0.29876,1.56959 0.89658,2.19726 0.62764,0.6277 1.3599,0.94155 2.19677,0.94155 0.74728,0 1.44983,-0.31385 2.10736,-0.94155 l 5.73867,-5.604282 c 0.86677,-0.657571 1.30018,-1.479661 1.30018,-2.466001 0,-0.747239 -0.29876,-1.43473 -0.89659,-2.062401 -2.27157,-2.331378 -5.0366,-3.496947 -8.29458,-3.496947 z m -55.53925,0 c -0.89666,0 -1.62891,0.283739 -2.19676,0.851619 -0.53804,0.538031 -0.80719,1.255628 -0.80719,2.15233 v 10.132182 c 0,2.77972 0.91144,5.0963 2.73472,6.94944 1.8531,1.82327 4.16972,2.73474 6.94944,2.73474 1.25536,0 2.45056,-0.22397 3.58635,-0.67231 v 0.85161 c 0,0.98634 -0.35859,1.83857 -1.07591,2.55593 -0.71738,0.71734 -1.56906,1.0759 -2.55539,1.0759 h -0.17932 c -0.89666,0 -1.62884,0.28372 -2.19677,0.85162 -0.56785,0.5679 -0.85214,1.30008 -0.85214,2.19678 0,0.89667 0.28429,1.6143 0.85214,2.15231 0.56793,0.5679 1.30011,0.85164 2.19677,0.85164 h 0.17932 c 2.74983,0 5.05131,-0.92655 6.90449,-2.77969 1.8531,-1.85314 2.77967,-4.15467 2.77967,-6.90449 V 91.675658 c 0,-0.896702 -0.28377,-1.614299 -0.85163,-2.15233 -0.53804,-0.56788 -1.25566,-0.851619 -2.15232,-0.851619 -0.89666,0 -1.62884,0.283739 -2.19676,0.851619 -0.56794,0.538031 -0.85215,1.255628 -0.85215,2.15233 v 10.132182 c 0,1.01624 -0.34352,1.88302 -1.03095,2.60035 -0.68749,0.68747 -1.53917,1.03148 -2.55539,1.03148 -1.01623,0 -1.88298,-0.34401 -2.60036,-1.03148 -0.68742,-0.71733 -1.03146,-1.58411 -1.03146,-2.60035 V 91.675658 c 0,-2.002599 -1.01588,-3.003949 -3.0484,-3.003949 z m 93.60876,-5.335583 c -0.89666,0 -1.62935,0.284242 -2.19728,0.852141 -0.53796,0.567899 -0.80667,1.30006 -0.80667,2.196762 v 15.422811 c 0,2.77972 0.91151,5.0963 2.73472,6.94944 1.85317,1.82327 4.16973,2.73474 6.94944,2.73474 2.74984,0 5.03626,-0.92652 6.85954,-2.77969 1.8531,-1.85314 2.77967,-4.15465 2.77967,-6.90449 v -0.40359 c 0,-0.86678 -0.28377,-1.583896 -0.85163,-2.151803 -0.56793,-0.567899 -1.28555,-0.852139 -2.15232,-0.852139 -0.86684,0 -1.59902,0.28424 -2.19676,0.852139 -0.56794,0.567907 -0.85163,1.285023 -0.85163,2.151803 v 0.40359 c 0,1.01624 -0.34405,1.88302 -1.03146,2.60035 -0.6875,0.68747 -1.53918,1.03148 -2.55541,1.03148 -1.01622,0 -1.88297,-0.34401 -2.60035,-1.03148 -0.68742,-0.71733 -1.03147,-1.58411 -1.03147,-2.60035 v -6.993882 h 10.26708 c 2.00255,0 3.00395,-1.016421 3.00395,-3.0489 0,-0.89667 -0.28377,-1.613799 -0.85163,-2.1518 -0.53804,-0.567931 -1.25566,-0.852141 -2.15232,-0.852141 h -10.26708 v -2.376088 c 0,-0.896702 -0.28369,-1.628863 -0.85162,-2.196762 -0.56786,-0.567899 -1.30003,-0.852141 -2.19677,-0.852141 z m 47.11082,-3.765687 c -0.89666,0 -1.6289,0.283739 -2.19676,0.851638 -0.53804,0.538012 -0.80719,1.255109 -0.80719,2.151811 v 25.914182 c 0,0.89667 0.26915,1.62936 0.80719,2.19726 0.56786,0.53803 1.3001,0.80669 2.19676,0.80669 0.89674,0 1.62892,-0.26866 2.19677,-0.80669 0.56793,-0.5679 0.85214,-1.30059 0.85214,-2.19726 V 82.573888 c 0,-2.002581 -1.01639,-3.003449 -3.04891,-3.003449 z m -110.39636,-0.0899 c -2.77972,0 -5.09627,0.926518 -6.94945,2.779678 -1.82321,1.823252 -2.73472,4.12478 -2.73472,6.90449 v 19.323363 c 0,0.89667 0.26871,1.62936 0.80667,2.19726 0.56794,0.53803 1.30063,0.80669 2.19729,0.80669 0.89673,0 1.62891,-0.26866 2.19676,-0.80669 0.56793,-0.5679 0.85163,-1.30059 0.85163,-2.19726 v -6.85954 h 10.44639 c 0.89665,0 1.61428,-0.26918 2.15232,-0.80719 0.56786,-0.5679 0.85163,-1.300077 0.85163,-2.196742 0,-0.896702 -0.28377,-1.628881 -0.85163,-2.19678 -0.53804,-0.567912 -1.25567,-0.851619 -2.15232,-0.851619 h -10.44639 v -6.411492 c 0,-1.016259 0.34404,-1.867959 1.03146,-2.555399 0.71739,-0.717359 1.58414,-1.076431 2.60036,-1.076431 1.01622,0 1.8679,0.359072 2.5554,1.076431 0.68742,0.68744 1.03146,1.53914 1.03146,2.555399 v 0.313661 c 0,0.86678 0.2837,1.599491 0.85163,2.19729 0.59775,0.567899 1.32992,0.851609 2.19676,0.851609 0.89666,0 1.61429,-0.28371 2.15233,-0.851609 0.56785,-0.567901 0.85162,-1.300609 0.85162,-2.19729 v -0.313661 c 0,-2.749839 -0.92657,-5.051341 -2.77967,-6.90449 -1.82328,-1.85316 -4.1097,-2.779678 -6.85953,-2.779678 z m -49.062641,0 c -0.89666,0 -1.628836,0.283739 -2.196767,0.851609 -0.537964,0.53803 -0.807186,1.255659 -0.807186,2.15233 v 19.323362 c 0,2.77972 0.911508,5.0963 2.734715,6.94944 1.853169,1.82327 4.169729,2.73474 6.949449,2.73474 h 1.97249 c 0.89666,0 1.61428,-0.26866 2.15232,-0.80669 0.56793,-0.5679 0.85163,-1.30059 0.85163,-2.19726 0,-0.8967 -0.2837,-1.62888 -0.85163,-2.19678 -0.53804,-0.56788 -1.25566,-0.85162 -2.15232,-0.85162 h -1.97249 c -1.01622,0 -1.88297,-0.34401 -2.60036,-1.03148 -0.68742,-0.71733 -1.03094,-1.58411 -1.03094,-2.60035 V 82.484478 c 0,-0.896671 -0.28422,-1.6143 -0.85215,-2.15233 -0.56785,-0.56787 -1.30003,-0.851609 -2.196761,-0.851609 z"
         inkscape:connector-curvature="0" />
      <path
         inkscape:connector-curvature="0"
         style="display:inline;fill:#ffffff;fill-opacity:1;stroke:none;stroke-width:1.32291675;stroke-miterlimit:4;stroke-dasharray:none;stroke-opacity:1"
         d="m 217.63309,77.642992 c 0.14945,0.209235 0.35884,0.31369 0.62786,0.313666 0.26902,0 0.46335,-0.104431 0.58291,-0.313666 z"
         id="path1725" />
    </g>
    <rect
       style="opacity:1;fill:#ececec;fill-opacity:1;stroke:none;stroke-width:0.59131813;stroke-miterlimit:4;stroke-dasharray:none;stroke-opacity:1"
       id="rect2146-6-6"
       width="102.52459"
       height="62.861794"
       x="22.450642"
       y="96.955658"
       ry="11.973675" />
  </g>
</svg>
