<?xml version="1.0" encoding="UTF-8" standalone="no"?>
<!-- Created with Inkscape (http://www.inkscape.org/) -->

<svg
   xmlns:dc="http://purl.org/dc/elements/1.1/"
   xmlns:cc="http://creativecommons.org/ns#"
   xmlns:rdf="http://www.w3.org/1999/02/22-rdf-syntax-ns#"
   xmlns:svg="http://www.w3.org/2000/svg"
   xmlns="http://www.w3.org/2000/svg"
   xmlns:xlink="http://www.w3.org/1999/xlink"
   xmlns:sodipodi="http://sodipodi.sourceforge.net/DTD/sodipodi-0.dtd"
   xmlns:inkscape="http://www.inkscape.org/namespaces/inkscape"
   width="100"
   height="100"
   viewBox="0 0 6.458 6.458"
   version="1.1"
   id="svg8"
   inkscape:version="0.92.3 (2405546, 2018-03-11)"
   sodipodi:docname="Lyfestyle_favicon.svg"
   inkscape:export-filename="/var/www/html/Lyfestyle/assets/Lyfestyle_favicon.png"
   inkscape:export-xdpi="96"
   inkscape:export-ydpi="96">
  <defs
     id="defs2">
    <linearGradient
       id="linearGradient2168"
       inkscape:collect="always">
      <stop
         id="stop2162"
         offset="0"
         style="stop-color:#4dc2d8;stop-opacity:1" />
      <stop
         style="stop-color:#c5f7f7;stop-opacity:1"
         offset="0.5"
         id="stop2164" />
      <stop
         id="stop2166"
         offset="1"
         style="stop-color:#ffffff;stop-opacity:1" />
    </linearGradient>
    <inkscape:path-effect
       effect="fill_between_strokes"
       id="path-effect4957"
       is_visible="true"
       linkedpath=""
       secondpath=""
       reversesecond="false" />
    <inkscape:path-effect
       effect="bend_path"
       id="path-effect1250"
       is_visible="true"
       bendpath="m 224.99699,171.69216 c 166.45826,-2.97781 67.23041,27.7284 231.87703,27.7284"
       prop_scale="1.3304699"
       scale_y_rel="false"
       vertical="false"
       bendpath-nodetypes="cc" />
    <inkscape:path-effect
       effect="bounding_box"
       id="path-effect1238"
       is_visible="true"
       linkedpath=""
       visualbounds="false" />
    <inkscape:perspective
       sodipodi:type="inkscape:persp3d"
       inkscape:vp_x="179.4139 : 172.44697 : 1"
       inkscape:vp_y="-1793.5598 : -1.0982386e-13 : 0"
       inkscape:vp_z="179.4139 : 878.27749 : 1"
       inkscape:persp3d-origin="236.35942 : 525.36223 : 1"
       id="perspective1150" />
    <inkscape:perspective
       sodipodi:type="inkscape:persp3d"
       inkscape:vp_x="112.44328 : 93.668519 : 1"
       inkscape:vp_y="0 : -316.78259 : 0"
       inkscape:vp_z="-191.56484 : 93.668519 : 1"
       inkscape:persp3d-origin="-39.560787 : 103.72637 : 1"
       id="perspective1062" />
    <linearGradient
       inkscape:collect="always"
       xlink:href="#linearGradient2168"
       id="linearGradient1194"
       x1="344.91711"
       y1="201.56618"
       x2="344.91711"
       y2="182.41739"
       gradientUnits="userSpaceOnUse" />
    <linearGradient
       inkscape:collect="always"
       id="linearGradient1192">
      <stop
         style="stop-color:#4dc2d8;stop-opacity:1"
         offset="0"
         id="stop1188" />
      <stop
         id="stop1196"
         offset="0.5"
         style="stop-color:#c5f7f7;stop-opacity:1" />
      <stop
         style="stop-color:#97e4e4;stop-opacity:1"
         offset="1"
         id="stop1190" />
    </linearGradient>
    <linearGradient
       inkscape:collect="always"
       xlink:href="#linearGradient1192"
       id="linearGradient1898"
       gradientUnits="userSpaceOnUse"
       x1="344.91711"
       y1="201.56618"
       x2="344.91711"
       y2="182.41739" />
    <linearGradient
       inkscape:collect="always"
       xlink:href="#linearGradient1192"
       id="linearGradient1900"
       gradientUnits="userSpaceOnUse"
       x1="344.91711"
       y1="201.56618"
       x2="344.91711"
       y2="182.41739" />
    <linearGradient
       inkscape:collect="always"
       xlink:href="#linearGradient1192"
       id="linearGradient1902"
       gradientUnits="userSpaceOnUse"
       x1="344.91711"
       y1="201.56618"
       x2="344.91711"
       y2="182.41739" />
    <linearGradient
       inkscape:collect="always"
       xlink:href="#linearGradient1192"
       id="linearGradient1904"
       gradientUnits="userSpaceOnUse"
       x1="344.91711"
       y1="201.56618"
       x2="344.91711"
       y2="182.41739" />
    <linearGradient
       inkscape:collect="always"
       xlink:href="#linearGradient1192"
       id="linearGradient1906"
       gradientUnits="userSpaceOnUse"
       x1="344.91711"
       y1="201.56618"
       x2="344.91711"
       y2="182.41739" />
    <linearGradient
       inkscape:collect="always"
       xlink:href="#linearGradient1192"
       id="linearGradient1908"
       gradientUnits="userSpaceOnUse"
       x1="344.91711"
       y1="201.56618"
       x2="344.91711"
       y2="182.41739" />
    <linearGradient
       inkscape:collect="always"
       xlink:href="#linearGradient1192"
       id="linearGradient1910"
       gradientUnits="userSpaceOnUse"
       x1="344.91711"
       y1="201.56618"
       x2="344.91711"
       y2="182.41739" />
    <linearGradient
       inkscape:collect="always"
       xlink:href="#linearGradient1192"
       id="linearGradient1912"
       gradientUnits="userSpaceOnUse"
       x1="344.91711"
       y1="201.56618"
       x2="344.91711"
       y2="182.41739" />
    <linearGradient
       inkscape:collect="always"
       xlink:href="#linearGradient1192"
       id="linearGradient1914"
       gradientUnits="userSpaceOnUse"
       x1="344.91711"
       y1="201.56618"
       x2="344.91711"
       y2="182.41739" />
  </defs>
  <sodipodi:namedview
     id="base"
     pagecolor="#ffffff"
     bordercolor="#666666"
     borderopacity="1.0"
     inkscape:pageopacity="0"
     inkscape:pageshadow="2"
     inkscape:zoom="2.8"
     inkscape:cx="28.19417"
     inkscape:cy="40.281085"
     inkscape:document-units="pc"
     inkscape:current-layer="layer2"
     showgrid="false"
     inkscape:window-width="1303"
     inkscape:window-height="713"
     inkscape:window-x="63"
     inkscape:window-y="27"
     inkscape:window-maximized="1"
     units="px"
     inkscape:snap-global="false"
     scale-x="1e-05" />
  <metadata
     id="metadata5">
    <rdf:RDF>
      <cc:Work
         rdf:about="">
        <dc:format>image/svg+xml</dc:format>
        <dc:type
           rdf:resource="http://purl.org/dc/dcmitype/StillImage" />
        <dc:title></dc:title>
      </cc:Work>
    </rdf:RDF>
  </metadata>
  <g
     inkscape:groupmode="layer"
     id="layer2"
     inkscape:label="Blue Design"
     style="display:inline"
     transform="translate(0,-164.04167)">
    <circle
       id="path311"
       cx="3.2520645"
       cy="167.2476"
       r="3.2290001"
       style="fill:#ffffff;fill-opacity:1;stroke:none;stroke-width:0.07204143" />
    <path
       style="display:inline;opacity:1;fill:#5b62a5;fill-opacity:1;stroke:none;stroke-width:0.34535921;stroke-linecap:round;stroke-miterlimit:4;stroke-dasharray:none;stroke-opacity:1"
       d="m 3.2290156,164.06802 a 3.2289963,3.2026487 0 0 0 -2.84684195,1.69409 c 0.3010235,-0.26761 0.76174315,-0.44011 1.21250725,-0.40915 1.1124198,0.0764 0.9415183,0.59262 1.7122955,0.80104 1.0261412,0.27746 2.0483978,-0.35521 2.5486805,-0.73918 a 3.2289963,3.2026487 0 0 0 -2.6266413,-1.3468 z m 0.4796863,0.46908 a 0.63369032,0.73142256 19.925418 0 1 0.2288759,0.0494 0.63369032,0.73142256 19.925418 0 1 0.2880215,0.93369 0.63369032,0.73142256 19.925418 0 1 -0.8667184,0.4089 0.63369032,0.73142256 19.925418 0 1 -0.2879896,-0.93365 0.63369032,0.73142256 19.925418 0 1 0.6378106,-0.45837 z m 2.4595973,1.41734 c -0.042824,0.0959 -0.1061556,0.19017 -0.1983285,0.27614 -0.4668476,0.43547 -2.1023204,0.78903 -2.1023204,0.78903 l -0.3372343,0.80498 c 0,0 1.4332927,0.25355 1.5772376,0.85453 0.071973,0.30049 -0.2063686,1.03286 -0.7119556,1.54333 -0.017347,0.0175 -0.035006,0.0347 -0.05285,0.0517 A 3.2289963,3.2026487 0 0 0 6.458,167.27067 3.2289963,3.2026487 0 0 0 6.1682992,165.95444 Z m -4.9939788,0.12168 c -0.2683502,-9.7e-4 -0.59319707,0.0557 -0.99545402,0.15394 A 3.2289963,3.2026487 0 0 0 0,167.27067 a 3.2289963,3.2026487 0 0 0 0.65488805,1.92874 c 0.73694985,-0.41691 1.61958485,-1.16315 1.60127965,-2.34149 -0.2491834,-0.55898 -0.5578176,-0.78005 -1.0818473,-0.7818 z m 1.5405165,2.67809 c 0,0 -0.5122578,0.43772 -1.0995362,0.71654 -0.1748073,0.083 -0.3484664,0.14832 -0.5265493,0.19396 a 3.2289963,3.2026487 0 0 0 2.1402642,0.80861 3.2289963,3.2026487 0 0 0 0.2140903,-0.008 l 0.6552852,-1.27407 z"
       id="path1240-3-6"
       inkscape:connector-curvature="0" />
    <g
       aria-label="Lyfestyle"
       transform="matrix(0.26761353,0,0,0.26761353,-79.10143,105.48911)"
       style="font-style:normal;font-variant:normal;font-weight:600;font-stretch:normal;font-size:39.99996948px;line-height:1.25;font-family:'URW Gothic L';-inkscape-font-specification:'URW Gothic L, Semi-Bold';font-variant-ligatures:normal;font-variant-caps:normal;font-variant-numeric:normal;font-feature-settings:normal;text-align:center;letter-spacing:0px;word-spacing:0px;writing-mode:lr-tb;text-anchor:middle;display:inline;fill:#218383;fill-opacity:1;stroke:none;stroke-width:1.41981292;stroke-miterlimit:4;stroke-dasharray:none;stroke-opacity:1"
       id="flowRoot838-0-1-2-4">
      <path
         d="m 262.76498,199.98288 h 14.51999 v -5.23999 h -9.03999 v -24.31998 h -5.48 z"
         id="path1219-9"
         inkscape:connector-curvature="0"
         style="fill:#218383;fill-opacity:1;stroke:none;stroke-width:1.41981292;stroke-miterlimit:4;stroke-dasharray:none;stroke-opacity:1" />
      <path
         d="m 281.82309,207.38288 h 5.72 l 12.79999,-29.55998 h -6.12 l -5.35999,14.35999 -4.92,-14.35999 h -6.07999 l 8.11999,20.07999 z"
         id="path1221-8"
         inkscape:connector-curvature="0"
         style="fill:#218383;fill-opacity:1;stroke:none;stroke-width:1.41981292;stroke-miterlimit:4;stroke-dasharray:none;stroke-opacity:1" />
      <path
         d="m 303.1462,199.98288 h 5.32 V 182.6629 h 3 v -4.44 h -3 c 0.04,-2 0.72,-2.68 2.8,-2.68 h 0.52 v -5.03999 c -0.64,-0.08 -0.96,-0.08 -1.32,-0.08 -2.28,0 -4.2,0.84 -5.56,2.47999 -1.08,1.28 -1.48,2.56 -1.76,5.32 h -1.92 v 4.44 h 1.92 z"
         id="path1223-1"
         inkscape:connector-curvature="0"
         style="fill:#218383;fill-opacity:1;stroke:none;stroke-width:1.41981292;stroke-miterlimit:4;stroke-dasharray:none;stroke-opacity:1" />
      <path
         d="m 336.11805,191.26289 c 0.16,-0.76 0.2,-1.24 0.2,-2.04 0,-6.87999 -4.83999,-11.91999 -11.43999,-11.91999 -6.51999,0 -11.67999,5.16 -11.67999,11.67999 0,6.48 5.24,11.51999 11.99999,11.51999 3.64,0 6.48,-1.32 8.8,-3.99999 0.83999,-1.04 1.39999,-1.96 1.75999,-3.08 h -5.79999 c -1.36,1.6 -2.68,2.2 -4.88,2.2 -3.16,0 -5.47999,-1.68 -6.11999,-4.36 z m -17.31998,-4.68 c 0.84,-2.83999 2.99999,-4.39999 6.15999,-4.39999 3.28,0 5.44,1.56 6.12,4.39999 z"
         id="path1225-6"
         inkscape:connector-curvature="0"
         style="fill:#218383;fill-opacity:1;stroke:none;stroke-width:1.41981292;stroke-miterlimit:4;stroke-dasharray:none;stroke-opacity:1" />
      <path
         d="m 338.38305,192.94289 c 0.24,2.16 0.6,3.28 1.48,4.48 1.44,1.91999 3.95999,3.07999 6.63999,3.07999 4.44,0 7.92,-3.31999 7.92,-7.55999 0,-1.92 -0.72,-3.52 -2.08,-4.6 -0.84,-0.72 -2.16,-1.28 -4.08,-1.88 -2.16,-0.68 -2.16,-0.68 -2.68,-0.92 -0.72,-0.31999 -1.08,-0.83999 -1.08,-1.47999 0,-1.08 0.88,-1.88 2.04,-1.88 1.12,0 1.84,0.6 2.08,1.76 h 5.2 c -0.08,-1.88 -0.52,-3 -1.6,-4.2 -1.4,-1.56 -3.48,-2.44 -5.68,-2.44 -4.11999,0 -7.35999,2.96 -7.35999,6.76 0,3.23999 1.76,5.07999 6.15999,6.55999 2.04,0.68 2.2,0.76 2.76,1.12 0.64,0.4 1,1 1,1.72 0,1.24 -1.04,2.16 -2.4,2.16 -1.56,0 -2.44,-0.8 -2.96,-2.68 z"
         id="path1227-3"
         inkscape:connector-curvature="0"
         style="fill:#218383;fill-opacity:1;stroke:none;stroke-width:1.41981292;stroke-miterlimit:4;stroke-dasharray:none;stroke-opacity:1" />
      <path
         d="m 358.16116,199.98288 h 5.32 V 182.6629 h 3.2 v -4.84 h -3.2 v -7.39999 h -5.32 v 7.39999 h -2.59999 v 4.84 h 2.59999 z"
         id="path1229-9"
         inkscape:connector-curvature="0"
         style="fill:#218383;fill-opacity:1;stroke:none;stroke-width:1.41981292;stroke-miterlimit:4;stroke-dasharray:none;stroke-opacity:1" />
      <path
         d="m 371.4324,207.38288 h 5.71999 l 12.79999,-29.55998 h -6.11999 l -5.36,14.35999 -4.91999,-14.35999 h -6.08 l 8.11999,20.07999 z"
         id="path1231-3"
         inkscape:connector-curvature="0"
         style="fill:#218383;fill-opacity:1;stroke:none;stroke-width:1.41981292;stroke-miterlimit:4;stroke-dasharray:none;stroke-opacity:1" />
      <path
         d="m 392.59552,199.98288 h 5.31999 v -29.55997 h -5.31999 z"
         id="path1233-3"
         inkscape:connector-curvature="0"
         style="fill:#218383;fill-opacity:1;stroke:none;stroke-width:1.41981292;stroke-miterlimit:4;stroke-dasharray:none;stroke-opacity:1" />
      <path
         d="m 424.16486,191.26289 c 0.16,-0.76 0.2,-1.24 0.2,-2.04 0,-6.87999 -4.84,-11.91999 -11.43999,-11.91999 -6.52,0 -11.67999,5.16 -11.67999,11.67999 0,6.48 5.23999,11.51999 11.99999,11.51999 3.64,0 6.47999,-1.32 8.79999,-3.99999 0.84,-1.04 1.4,-1.96 1.76,-3.08 h -5.8 c -1.35999,1.6 -2.67999,2.2 -4.87999,2.2 -3.16,0 -5.48,-1.68 -6.12,-4.36 z m -17.31999,-4.68 c 0.84,-2.83999 3,-4.39999 6.16,-4.39999 3.28,0 5.43999,1.56 6.11999,4.39999 z"
         id="path1235-4"
         inkscape:connector-curvature="0"
         style="fill:#218383;fill-opacity:1;stroke:none;stroke-width:1.41981292;stroke-miterlimit:4;stroke-dasharray:none;stroke-opacity:1" />
    </g>
    <g
       aria-label="Lyfestyle"
       transform="matrix(0.26761353,0,0,0.26761353,-79.14424,104.65248)"
       style="font-style:normal;font-variant:normal;font-weight:600;font-stretch:normal;font-size:39.99996948px;line-height:1.25;font-family:'URW Gothic L';-inkscape-font-specification:'URW Gothic L, Semi-Bold';font-variant-ligatures:normal;font-variant-caps:normal;font-variant-numeric:normal;font-feature-settings:normal;text-align:center;letter-spacing:0px;word-spacing:0px;writing-mode:lr-tb;text-anchor:middle;display:inline;fill:url(#linearGradient1194);fill-opacity:1;stroke:#595e8d;stroke-width:1.18317735;stroke-miterlimit:4;stroke-dasharray:none;stroke-opacity:1"
       id="flowRoot838-0-1-2">
      <path
         d="m 262.76498,199.98288 h 14.51999 v -5.23999 h -9.03999 v -24.31998 h -5.48 z"
         id="path1219"
         inkscape:connector-curvature="0"
         style="fill:url(#linearGradient1898);fill-opacity:1;stroke:#595e8d;stroke-width:1.18317735;stroke-miterlimit:4;stroke-dasharray:none;stroke-opacity:1" />
      <path
         d="m 281.82309,207.38288 h 5.72 l 12.79999,-29.55998 h -6.12 l -5.35999,14.35999 -4.92,-14.35999 h -6.07999 l 8.11999,20.07999 z"
         id="path1221"
         inkscape:connector-curvature="0"
         style="fill:url(#linearGradient1900);fill-opacity:1;stroke:#595e8d;stroke-width:1.18317735;stroke-miterlimit:4;stroke-dasharray:none;stroke-opacity:1" />
      <path
         d="m 303.1462,199.98288 h 5.32 V 182.6629 h 3 v -4.44 h -3 c 0.04,-2 0.72,-2.68 2.8,-2.68 h 0.52 v -5.03999 c -0.64,-0.08 -0.96,-0.08 -1.32,-0.08 -2.28,0 -4.2,0.84 -5.56,2.47999 -1.08,1.28 -1.48,2.56 -1.76,5.32 h -1.92 v 4.44 h 1.92 z"
         id="path1223"
         inkscape:connector-curvature="0"
         style="fill:url(#linearGradient1902);fill-opacity:1;stroke:#595e8d;stroke-width:1.18317735;stroke-miterlimit:4;stroke-dasharray:none;stroke-opacity:1" />
      <path
         d="m 336.11805,191.26289 c 0.16,-0.76 0.2,-1.24 0.2,-2.04 0,-6.87999 -4.83999,-11.91999 -11.43999,-11.91999 -6.51999,0 -11.67999,5.16 -11.67999,11.67999 0,6.48 5.24,11.51999 11.99999,11.51999 3.64,0 6.48,-1.32 8.8,-3.99999 0.83999,-1.04 1.39999,-1.96 1.75999,-3.08 h -5.79999 c -1.36,1.6 -2.68,2.2 -4.88,2.2 -3.16,0 -5.47999,-1.68 -6.11999,-4.36 z m -17.31998,-4.68 c 0.84,-2.83999 2.99999,-4.39999 6.15999,-4.39999 3.28,0 5.44,1.56 6.12,4.39999 z"
         id="path1225"
         inkscape:connector-curvature="0"
         style="fill:url(#linearGradient1904);fill-opacity:1;stroke:#595e8d;stroke-width:1.18317735;stroke-miterlimit:4;stroke-dasharray:none;stroke-opacity:1" />
      <path
         d="m 338.38305,192.94289 c 0.24,2.16 0.6,3.28 1.48,4.48 1.44,1.91999 3.95999,3.07999 6.63999,3.07999 4.44,0 7.92,-3.31999 7.92,-7.55999 0,-1.92 -0.72,-3.52 -2.08,-4.6 -0.84,-0.72 -2.16,-1.28 -4.08,-1.88 -2.16,-0.68 -2.16,-0.68 -2.68,-0.92 -0.72,-0.31999 -1.08,-0.83999 -1.08,-1.47999 0,-1.08 0.88,-1.88 2.04,-1.88 1.12,0 1.84,0.6 2.08,1.76 h 5.2 c -0.08,-1.88 -0.52,-3 -1.6,-4.2 -1.4,-1.56 -3.48,-2.44 -5.68,-2.44 -4.11999,0 -7.35999,2.96 -7.35999,6.76 0,3.23999 1.76,5.07999 6.15999,6.55999 2.04,0.68 2.2,0.76 2.76,1.12 0.64,0.4 1,1 1,1.72 0,1.24 -1.04,2.16 -2.4,2.16 -1.56,0 -2.44,-0.8 -2.96,-2.68 z"
         id="path1227"
         inkscape:connector-curvature="0"
         style="fill:url(#linearGradient1906);fill-opacity:1;stroke:#595e8d;stroke-width:1.18317735;stroke-miterlimit:4;stroke-dasharray:none;stroke-opacity:1" />
      <path
         d="m 358.16116,199.98288 h 5.32 V 182.6629 h 3.2 v -4.84 h -3.2 v -7.39999 h -5.32 v 7.39999 h -2.59999 v 4.84 h 2.59999 z"
         id="path1229"
         inkscape:connector-curvature="0"
         style="fill:url(#linearGradient1908);fill-opacity:1;stroke:#595e8d;stroke-width:1.18317735;stroke-miterlimit:4;stroke-dasharray:none;stroke-opacity:1" />
      <path
         d="m 371.4324,207.38288 h 5.71999 l 12.79999,-29.55998 h -6.11999 l -5.36,14.35999 -4.91999,-14.35999 h -6.08 l 8.11999,20.07999 z"
         id="path1231"
         inkscape:connector-curvature="0"
         style="fill:url(#linearGradient1910);fill-opacity:1;stroke:#595e8d;stroke-width:1.18317735;stroke-miterlimit:4;stroke-dasharray:none;stroke-opacity:1" />
      <path
         d="m 392.59552,199.98288 h 5.31999 v -29.55997 h -5.31999 z"
         id="path1233"
         inkscape:connector-curvature="0"
         style="fill:url(#linearGradient1912);fill-opacity:1;stroke:#595e8d;stroke-width:1.18317735;stroke-miterlimit:4;stroke-dasharray:none;stroke-opacity:1" />
      <path
         d="m 424.16486,191.26289 c 0.16,-0.76 0.2,-1.24 0.2,-2.04 0,-6.87999 -4.84,-11.91999 -11.43999,-11.91999 -6.52,0 -11.67999,5.16 -11.67999,11.67999 0,6.48 5.23999,11.51999 11.99999,11.51999 3.64,0 6.47999,-1.32 8.79999,-3.99999 0.84,-1.04 1.4,-1.96 1.76,-3.08 h -5.8 c -1.35999,1.6 -2.67999,2.2 -4.87999,2.2 -3.16,0 -5.48,-1.68 -6.12,-4.36 z m -17.31999,-4.68 c 0.84,-2.83999 3,-4.39999 6.16,-4.39999 3.28,0 5.43999,1.56 6.11999,4.39999 z"
         id="path1235"
         inkscape:connector-curvature="0"
         style="fill:url(#linearGradient1914);fill-opacity:1;stroke:#595e8d;stroke-width:1.18317735;stroke-miterlimit:4;stroke-dasharray:none;stroke-opacity:1" />
    </g>
  </g>
</svg>
