<?xml version="1.0" encoding="UTF-8" standalone="no"?>
<!-- Created with Inkscape (http://www.inkscape.org/) -->

<svg
   xmlns:dc="http://purl.org/dc/elements/1.1/"
   xmlns:cc="http://creativecommons.org/ns#"
   xmlns:rdf="http://www.w3.org/1999/02/22-rdf-syntax-ns#"
   xmlns:svg="http://www.w3.org/2000/svg"
   xmlns="http://www.w3.org/2000/svg"
   xmlns:xlink="http://www.w3.org/1999/xlink"
   xmlns:sodipodi="http://sodipodi.sourceforge.net/DTD/sodipodi-0.dtd"
   xmlns:inkscape="http://www.inkscape.org/namespaces/inkscape"
   width="1200"
   height="300"
   viewBox="0 0 317.49999 79.375004"
   version="1.1"
   id="svg8"
   inkscape:version="0.92.4 (fd57863, 2020-04-02)"
   sodipodi:docname="select_fitness_goal.svg"
   inkscape:export-filename="/home/albert/Pictures/Academic images/select_fitness_goal.png"
   inkscape:export-xdpi="96"
   inkscape:export-ydpi="96">
  <defs
     id="defs2">
    <linearGradient
       inkscape:collect="always"
       id="linearGradient1772">
      <stop
         style="stop-color:#34b7b8;stop-opacity:1"
         offset="0"
         id="stop1768" />
      <stop
         id="stop1776"
         offset="0.5"
         style="stop-color:#ffffff;stop-opacity:1" />
      <stop
         style="stop-color:#85f3f5;stop-opacity:1"
         offset="1"
         id="stop1770" />
    </linearGradient>
    <linearGradient
       inkscape:collect="always"
       id="linearGradient1758">
      <stop
         style="stop-color:#2b5e9d;stop-opacity:1"
         offset="0"
         id="stop1754" />
      <stop
         style="stop-color:#5a96de;stop-opacity:1"
         offset="1"
         id="stop1756" />
    </linearGradient>
    <inkscape:path-effect
       effect="fill_between_strokes"
       id="path-effect4957"
       is_visible="true"
       linkedpath=""
       secondpath=""
       reversesecond="false" />
    <inkscape:path-effect
       effect="bend_path"
       id="path-effect1250"
       is_visible="true"
       bendpath="m 224.99699,171.69216 c 166.45826,-2.97781 67.23041,27.7284 231.87703,27.7284"
       prop_scale="1.3304699"
       scale_y_rel="false"
       vertical="false"
       bendpath-nodetypes="cc" />
    <inkscape:path-effect
       effect="bounding_box"
       id="path-effect1238"
       is_visible="true"
       linkedpath=""
       visualbounds="false" />
    <inkscape:perspective
       sodipodi:type="inkscape:persp3d"
       inkscape:vp_x="735.05614 : 706.51278 : 1"
       inkscape:vp_y="-7348.1886 : -4.4994682e-13 : 0"
       inkscape:vp_z="735.05614 : 3598.2904 : 1"
       inkscape:persp3d-origin="968.36111 : 2152.4017 : 1"
       id="perspective1150" />
    <inkscape:perspective
       sodipodi:type="inkscape:persp3d"
       inkscape:vp_x="460.67849 : 383.75859 : 1"
       inkscape:vp_y="0 : -1297.8538 : 0"
       inkscape:vp_z="-784.83836 : 383.75859 : 1"
       inkscape:persp3d-origin="-162.07998 : 424.96545 : 1"
       id="perspective1062" />
    <linearGradient
       inkscape:collect="always"
       xlink:href="#linearGradient1758"
       id="linearGradient1741"
       gradientUnits="userSpaceOnUse"
       gradientTransform="matrix(0.26458334,0,0,0.26458334,27.970238,-189.84775)"
       x1="535.71429"
       y1="1618.5713"
       x2="535.71429"
       y2="1541.4285" />
    <linearGradient
       inkscape:collect="always"
       xlink:href="#linearGradient1772"
       id="linearGradient1774"
       x1="194.83949"
       y1="115.45425"
       x2="194.83949"
       y2="87.941223"
       gradientUnits="userSpaceOnUse"
       gradientTransform="translate(0,125.94167)" />
    <linearGradient
       inkscape:collect="always"
       xlink:href="#linearGradient1758"
       id="linearGradient1185"
       x1="216.16458"
       y1="240.77084"
       x2="216.16458"
       y2="211.93126"
       gradientUnits="userSpaceOnUse" />
    <linearGradient
       inkscape:collect="always"
       xlink:href="#linearGradient1772"
       id="linearGradient1333"
       gradientUnits="userSpaceOnUse"
       x1="836"
       y1="928"
       x2="836"
       y2="785"
       gradientTransform="scale(0.26458334)" />
    <linearGradient
       inkscape:collect="always"
       xlink:href="#linearGradient5285"
       id="linearGradient1735"
       gradientUnits="userSpaceOnUse"
       gradientTransform="matrix(0.93749994,0,0,0.41666667,-2.9138132e-6,111.12499)"
       x1="4.5894384"
       y1="97.490204"
       x2="336.99945"
       y2="97.490204" />
    <linearGradient
       id="linearGradient5285"
       inkscape:collect="always">
      <stop
         id="stop5277"
         offset="0"
         style="stop-color:#6c69a7;stop-opacity:1" />
      <stop
         id="stop5283"
         offset="1"
         style="stop-color:#33b8b8;stop-opacity:1" />
    </linearGradient>
  </defs>
  <sodipodi:namedview
     id="base"
     pagecolor="#ffffff"
     bordercolor="#666666"
     borderopacity="1.0"
     inkscape:pageopacity="0.0"
     inkscape:pageshadow="2"
     inkscape:zoom="0.5"
     inkscape:cx="749.25191"
     inkscape:cy="-91.109296"
     inkscape:document-units="px"
     inkscape:current-layer="g1729"
     showgrid="false"
     inkscape:window-width="1847"
     inkscape:window-height="1025"
     inkscape:window-x="73"
     inkscape:window-y="27"
     inkscape:window-maximized="1"
     units="px"
     inkscape:snap-global="false" />
  <metadata
     id="metadata5">
    <rdf:RDF>
      <cc:Work
         rdf:about="">
        <dc:format>image/svg+xml</dc:format>
        <dc:type
           rdf:resource="http://purl.org/dc/dcmitype/StillImage" />
        <dc:title></dc:title>
      </cc:Work>
    </rdf:RDF>
  </metadata>
  <g
     inkscape:groupmode="layer"
     id="layer1"
     inkscape:label="Background"
     transform="translate(0,-111.125)"
     sodipodi:insensitive="true"
     style="display:none">
    <rect
       inkscape:export-ydpi="96"
       inkscape:export-xdpi="96"
       inkscape:export-filename="/home/albert/Documents/Inkscape work/lyfestyle branding/Lyfestyle_logo_wip_02.png"
       ry="0"
       y="111.125"
       x="-7.3947485e-06"
       height="79.375"
       width="317.5"
       id="rect1649"
       style="display:inline;opacity:1;fill:url(#linearGradient1735);fill-opacity:1;stroke:none;stroke-width:1.01818168;stroke-linecap:round;stroke-miterlimit:4;stroke-dasharray:none;stroke-opacity:1" />
  </g>
  <g
     style="display:inline"
     inkscape:label="Drawing"
     id="g1729"
     inkscape:groupmode="layer"
     transform="translate(0,-111.125)">
    <g
       id="g1434"
       transform="matrix(0.68619397,0,0,0.68619397,-23.211632,85.452524)">
      <path
         inkscape:connector-curvature="0"
         id="path1240-3-6-2"
         d="m 92.139893,37.412859 a 58.312913,57.837095 0 0 0 -51.411529,30.59379 c 5.436227,-4.83275 13.756428,-7.94788 21.896842,-7.388869 20.08935,1.37958 17.003015,10.702198 30.922593,14.46605 18.531231,5.010819 36.992311,-6.41472 46.026991,-13.348881 A 58.312913,57.837095 0 0 0 92.139893,37.412859 Z m 8.662727,8.47131 a 11.443905,13.208866 19.925418 0 1 4.1333,0.89263 11.443905,13.208866 19.925418 0 1 5.20142,16.861531 11.443905,13.208866 19.925418 0 1 -15.652191,7.38445 11.443905,13.208866 19.925418 0 1 -5.200846,-16.860971 11.443905,13.208866 19.925418 0 1 11.518317,-8.27764 z m 44.41821,25.595959 c -0.77336,1.731772 -1.91707,3.43417 -3.58163,4.98679 -8.43087,7.864192 -37.96611,14.249231 -37.96611,14.249231 l -6.090165,14.537211 c 0,0 25.884045,4.57894 28.483565,15.43208 1.29977,5.42657 -3.72684,18.6525 -12.85731,27.87116 -0.31329,0.31634 -0.63217,0.62721 -0.95442,0.93405 A 58.312913,57.837095 0 0 0 150.45259,95.250009 58.312913,57.837095 0 0 0 145.22083,71.480128 Z M 55.033855,73.67754 C 50.187678,73.66055 44.321223,74.683999 37.056804,76.457541 A 58.312913,57.837095 0 0 0 33.826633,95.250009 58.312913,57.837095 0 0 0 45.653349,130.08138 C 58.962037,122.55244 74.901667,109.076 74.571091,87.796019 70.071052,77.70148 64.497382,73.709158 55.033855,73.67754 Z m 27.820412,48.36395 c 0,0 -9.25094,7.9049 -19.856686,12.94008 -3.156871,1.49875 -6.293006,2.67862 -9.50903,3.50271 a 58.312913,57.837095 0 0 0 38.651342,14.60287 58.312913,57.837095 0 0 0 3.86629,-0.13623 l 11.833887,-23.00851 z"
         style="display:inline;opacity:1;fill:#5b62a5;fill-opacity:0.50196078;stroke:none;stroke-width:6.23689222;stroke-linecap:round;stroke-miterlimit:4;stroke-dasharray:none;stroke-opacity:1" />
      <g
         transform="translate(75.935419,-126.73542)"
         id="g1380">
        <path
           inkscape:connector-curvature="0"
           id="path1050"
           style="opacity:1;fill:url(#linearGradient1333);fill-opacity:1;stroke:none;stroke-width:0.47871584;stroke-linecap:square;stroke-miterlimit:4;stroke-dasharray:none;stroke-dashoffset:0;stroke-opacity:1"
           d="m 126.05122,227.91219 c 0.1411,0.19756 0.33877,0.29662 0.59273,0.29662 0.25404,0 0.43748,-0.0991 0.55036,-0.29662 z m 242.1878,-12.78475 c -3.07618,0 -5.64467,1.03054 -7.70496,3.09077 -2.0602,2.06021 -3.09022,4.62821 -3.09022,7.70444 0,3.07623 1.03002,5.65837 3.09022,7.74681 2.06029,2.06023 4.62878,3.09077 7.70496,3.09077 0.8467,0 1.53808,-0.26838 2.07431,-0.8046 0.5362,-0.53623 0.80407,-1.22763 0.80407,-2.07429 0,-0.84668 -0.26787,-1.52393 -0.80407,-2.03192 -0.53623,-0.53622 -1.22761,-0.8046 -2.07431,-0.8046 -1.4111,0 -2.61096,-0.49378 -3.59873,-1.48157 -0.98779,-1.01599 -1.48156,-2.22949 -1.48156,-3.6406 0,-1.41111 0.49377,-2.61044 1.48156,-3.59823 0.98777,-0.98777 2.18763,-1.48156 3.59873,-1.48156 1.41113,0 2.61046,0.49379 3.59823,1.48156 1.016,0.98779 1.52395,2.18712 1.52395,3.59823 v 7.91631 c 0,0.84668 0.25371,1.53808 0.76171,2.07429 0.5362,0.508 1.22761,0.76223 2.0743,0.76223 0.84667,0 1.53858,-0.25423 2.07481,-0.76223 0.53618,-0.53621 0.80407,-1.22761 0.80407,-2.07429 v -7.91631 c 0,-3.07623 -1.0442,-5.64423 -3.13261,-7.70444 -2.06029,-2.06023 -4.62825,-3.09077 -7.70446,-3.09077 z m -25.54933,0 c -3.0762,0 -5.64425,1.03054 -7.70445,3.09077 -2.06026,2.06021 -3.09026,4.62821 -3.09026,7.70444 0,3.07623 1.03,5.65837 3.09026,7.74681 2.0602,2.06023 4.62825,3.09077 7.70445,3.09077 3.07626,0 5.64475,-1.03054 7.70496,-3.09077 2.08841,-2.08844 3.13261,-4.67058 3.13261,-7.74681 0,-3.07623 -1.0442,-5.64423 -3.13261,-7.70444 -2.06021,-2.06023 -4.6287,-3.09077 -7.70496,-3.09077 z m -25.79637,0 c -3.07621,0 -5.64468,1.03054 -7.70496,3.09077 -2.06018,2.06021 -3.09025,4.62821 -3.09025,7.70444 0,3.07623 1.03007,5.65837 3.09025,7.74681 2.06028,2.06023 4.62875,3.09077 7.70496,3.09077 0.84669,0 1.53807,-0.26838 2.07431,-0.8046 0.5362,-0.53623 0.80406,-1.22763 0.80406,-2.07429 0,-0.84668 -0.26786,-1.52393 -0.80406,-2.03192 -0.53624,-0.53622 -1.22762,-0.8046 -2.07431,-0.8046 -1.4111,0 -2.61096,-0.49378 -3.59873,-1.48157 -0.98777,-1.01599 -1.48156,-2.22949 -1.48156,-3.6406 0,-1.41111 0.49379,-2.61044 1.48156,-3.59823 0.98777,-0.98777 2.18763,-1.48156 3.59873,-1.48156 1.4111,0 2.61046,0.49379 3.59823,1.48156 0.98779,0.98779 1.48156,2.18712 1.48156,3.59823 v 10.20248 c 0,0.3951 -0.14095,0.73373 -0.42323,1.01596 -0.28215,0.31044 -0.62082,0.4656 -1.01595,0.4656 h -3.68297 c -3.04798,0 -5.60232,1.04419 -7.6626,3.13263 -2.06018,2.08845 -3.09023,4.65644 -3.09025,7.70444 0,3.04798 1.03007,5.60238 3.09025,7.66258 2.08852,2.08849 4.65698,3.13262 7.70496,3.13262 3.048,0 5.60181,-1.04413 7.66207,-3.13262 2.08841,-2.0602 3.13264,-4.6146 3.13264,-7.66258 0,-0.84668 -0.26789,-1.53808 -0.8041,-2.07429 -0.508,-0.53623 -1.18575,-0.80409 -2.03242,-0.80409 -0.81846,0 -1.50987,0.26786 -2.07431,0.80409 -0.5362,0.56444 -0.80409,1.25584 -0.80409,2.07429 0,1.41112 -0.49377,2.61097 -1.48156,3.59874 -0.98777,0.98778 -2.18713,1.48157 -3.59823,1.48157 -1.4111,0 -2.61096,-0.49379 -3.59873,-1.48157 -0.98777,-0.98777 -1.48156,-2.18762 -1.48156,-3.59874 0,-1.41112 0.49379,-2.62461 1.48156,-3.64061 0.98777,-0.98778 2.18763,-1.48156 3.59873,-1.48156 h 3.64061 c 2.00377,0 3.69689,-0.70556 5.07979,-2.11667 1.3829,-1.38289 2.07431,-3.07602 2.07431,-5.07979 v -10.20248 c 0,-3.07623 -1.03005,-5.64423 -3.09026,-7.70444 -2.06028,-2.06023 -4.62825,-3.09077 -7.70445,-3.09077 z m 69.18391,-8.59327 c -0.84669,0 -1.5386,0.26786 -2.07481,0.80408 -0.508,0.508 -0.76173,1.18525 -0.76171,2.03192 v 24.46879 c 0,0.84668 0.25371,1.53808 0.76171,2.07429 0.53621,0.508 1.22812,0.76223 2.07481,0.76223 0.84667,0 1.53808,-0.25423 2.07428,-0.76223 0.53623,-0.53621 0.8041,-1.22761 0.8041,-2.07429 v -24.46879 c 0,-1.89089 -0.95928,-2.836 -2.87838,-2.836 z m -99.45907,8.59327 c -2.34244,0 -4.31811,0.80463 -5.92675,2.41329 -1.58043,1.58045 -2.3704,3.54195 -2.3704,5.8844 v 2.32802 c 0,0.19755 -0.0143,0.77625 -0.0424,1.73581 v 0.84646 c 0,0.73378 -0.25421,1.35494 -0.76221,1.86294 -0.47979,0.47977 -1.08625,0.71985 -1.82004,0.71985 -0.84669,0 -1.53861,0.26786 -2.07481,0.80409 -0.508,0.53622 -0.76174,1.22762 -0.76174,2.07429 0,0.84666 0.25374,1.53807 0.76174,2.07429 0.5362,0.50801 1.22812,0.76223 2.07481,0.76223 2.31423,0 4.26159,-0.80463 5.842,-2.41329 1.60867,-1.60868 2.42686,-3.57018 2.45515,-5.8844 l 0.0424,-4.91029 c 0,-0.42333 0.0283,-0.73365 0.0847,-0.93121 0.0846,-0.22578 0.31057,-0.52247 0.67747,-0.88935 0.36684,-0.36689 1.00168,-0.6206 1.90481,-0.76171 0.93133,-0.16934 1.62272,-0.48018 2.07428,-0.93173 0.47977,-0.47978 0.71985,-1.12872 0.71985,-1.94717 v 0 c 0,-0.84666 -0.26789,-1.52391 -0.80409,-2.03192 -0.53623,-0.53621 -1.22762,-0.8046 -2.07431,-0.8046 z m -20.4225,0 c -2.34247,0 -4.31814,0.80463 -5.92679,2.41329 -1.58042,1.58045 -2.37039,3.54195 -2.37039,5.8844 v 2.32802 c 0,0.19755 -0.0142,0.77625 -0.0424,1.73581 v 0.84646 c 0,0.73378 -0.25423,1.35494 -0.76223,1.86294 -0.47977,0.47977 -1.0863,0.71985 -1.82004,0.71985 -0.84669,0 -1.53808,0.26786 -2.07429,0.80409 -0.508,0.53622 -0.76223,1.22762 -0.76223,2.07429 0,0.84666 0.25423,1.53807 0.76223,2.07429 0.53621,0.50801 1.2276,0.76223 2.07429,0.76223 2.31424,0 4.2616,-0.80463 5.84202,-2.41329 1.60865,-1.60868 2.42693,-3.57018 2.45515,-5.8844 l 0.0424,-4.91029 c 0,-0.42333 0.0284,-0.73365 0.0848,-0.93121 0.0847,-0.22578 0.31012,-0.52247 0.67696,-0.88935 0.3669,-0.36689 1.0022,-0.6206 1.90532,-0.76171 0.93134,-0.16934 1.62272,-0.48018 2.07428,-0.93173 0.47977,-0.47978 0.71935,-1.12872 0.71935,-1.94717 0,-0.84666 -0.26789,-1.52391 -0.80409,-2.03192 -0.53621,-0.53621 -1.22762,-0.8046 -2.07428,-0.8046 z m -26.44491,0 c -3.07627,0 -5.64476,1.03054 -7.70496,3.09077 -2.06021,2.06021 -3.09025,4.62821 -3.09025,7.70444 0,3.07623 1.03004,5.65837 3.09025,7.74681 2.0602,2.06023 4.62869,3.09077 7.70496,3.09077 h 3.76721 c 0.84668,0 1.52443,-0.26838 2.03243,-0.8046 0.53622,-0.53623 0.80409,-1.22763 0.80409,-2.07429 0,-0.84668 -0.26787,-1.52393 -0.80409,-2.03192 -0.508,-0.53622 -1.18575,-0.8046 -2.03243,-0.8046 h -3.76721 c -1.41112,0 -2.61098,-0.49378 -3.59875,-1.48157 -0.98778,-1.01599 -1.48156,-2.22949 -1.48156,-3.6406 0,-1.41111 0.49378,-2.61044 1.48156,-3.59823 0.98777,-0.98777 2.18763,-1.48156 3.59875,-1.48156 0.36684,0 0.73328,0.0283 1.10019,0.0847 l -3.04788,3.00551 c -0.62087,0.62088 -0.93121,1.28398 -0.93121,1.98954 0,0.79022 0.28203,1.48162 0.84646,2.07429 0.59266,0.59266 1.28405,0.88884 2.07429,0.88884 0.70553,0 1.3692,-0.29618 1.99006,-0.88884 l 5.41828,-5.29167 c 0.81846,-0.62089 1.22783,-1.39669 1.22783,-2.32802 0,-0.70556 -0.28196,-1.35502 -0.84646,-1.94768 -2.14486,-2.20134 -4.75536,-3.30213 -7.83156,-3.30213 z m -23.97528,0 c -2.59649,0 -4.76977,0.87487 -6.5195,2.62465 -1.74981,1.72156 -2.62465,3.88068 -2.62465,6.47712 v 9.60975 c 0,0.84668 0.25371,1.53808 0.76171,2.07429 0.53621,0.508 1.22812,0.76223 2.07481,0.76223 0.84668,0 1.53808,-0.25423 2.07429,-0.76223 0.53622,-0.53621 0.80409,-1.22761 0.80409,-2.07429 v -9.60975 c 0,-0.95955 0.3245,-1.76365 0.97358,-2.41277 0.67737,-0.64911 1.49611,-0.97358 2.45567,-0.97358 0.93133,0 1.72131,0.33862 2.37039,1.01595 0.67731,0.64911 1.01596,1.43906 1.01596,2.3704 l 0.0424,12.61525 c 0,2.62467 0.86068,4.79794 2.58227,6.5195 1.7498,1.74978 3.93723,2.62465 6.56187,2.62465 h 0.16898 c 0.84668,0 1.53859,-0.26787 2.07481,-0.80409 0.53622,-0.508 0.80409,-1.18577 0.80409,-2.03243 0,-0.84668 -0.26787,-1.53807 -0.80409,-2.07429 -0.53622,-0.53622 -1.22761,-0.80409 -2.07429,-0.80409 h -0.1695 c -0.95956,0 -1.77784,-0.33862 -2.45515,-1.01596 -0.64916,-0.6491 -0.9741,-1.45373 -0.9741,-2.41329 v -12.61525 c 0,-2.59644 -0.87491,-4.75556 -2.62464,-6.47712 -1.74981,-1.74978 -3.92256,-2.62465 -6.51898,-2.62465 z m -38.30619,0 c -0.84662,0 -1.53757,0.26839 -2.07378,0.8046 -0.50799,0.50801 -0.76223,1.18526 -0.76223,2.03192 v 15.875 c 0,0.84668 0.25424,1.53808 0.76223,2.07429 0.53621,0.508 1.22716,0.76223 2.07378,0.76223 0.84668,0 1.53859,-0.25423 2.0748,-0.76223 0.53623,-0.53621 0.80409,-1.22761 0.80409,-2.07429 v -15.875 c 0,-1.89089 -0.95978,-2.83652 -2.87889,-2.83652 z m 9.8397,-5.03741 c -0.84668,0 -1.53859,0.26786 -2.0748,0.80408 -0.508,0.53622 -0.76171,1.22814 -0.76171,2.07481 v 14.56242 c 0,2.62467 0.86068,4.81209 2.58227,6.56187 1.74974,1.72155 3.93717,2.58227 6.56187,2.58227 2.59642,0 4.75502,-0.87487 6.47661,-2.62464 1.74973,-1.74978 2.62464,-3.92306 2.62464,-6.5195 v -0.38086 c 0,-0.81845 -0.26787,-1.49569 -0.80408,-2.03191 -0.53621,-0.53623 -1.21345,-0.80461 -2.03192,-0.80461 -0.81839,0 -1.50978,0.26838 -2.07429,0.80461 -0.53621,0.53622 -0.8046,1.21346 -0.8046,2.03191 v 0.38086 c 0,0.95956 -0.3245,1.77781 -0.97359,2.45514 -0.64908,0.64912 -1.45321,0.97411 -2.41277,0.97411 -0.95955,0 -1.77829,-0.32499 -2.45566,-0.97411 -0.64909,-0.67733 -0.97359,-1.49558 -0.97359,-2.45514 v -6.60425 h 9.6945 c 1.8909,0 2.836,-0.95926 2.836,-2.87838 0,-0.84667 -0.26787,-1.52391 -0.80408,-2.03191 -0.50799,-0.53623 -1.18523,-0.80461 -2.03192,-0.80461 h -9.6945 v -2.24327 c 0,-0.84667 -0.26786,-1.53859 -0.80408,-2.07481 -0.53622,-0.53622 -1.22762,-0.80408 -2.0743,-0.80408 z m -25.69042,-3.64061 c -2.62463,0 -4.81206,0.87486 -6.56187,2.62464 -1.72151,1.72155 -2.58227,3.89483 -2.58227,6.51951 v 18.24539 c 0,0.84668 0.25423,1.53808 0.76223,2.07429 0.53621,0.508 1.22715,0.76223 2.07377,0.76223 0.84668,0 1.5386,-0.25423 2.07481,-0.76223 0.53622,-0.53621 0.80408,-1.22761 0.80408,-2.07429 v -6.47712 h 9.86349 c 0.84668,0 1.52444,-0.25371 2.03243,-0.76171 0.53622,-0.53622 0.80409,-1.22763 0.80409,-2.07429 0,-0.84667 -0.26787,-1.53808 -0.80409,-2.0743 -0.50799,-0.53622 -1.18575,-0.8046 -2.03243,-0.8046 h -9.86349 v -6.05337 c 0,-0.95956 0.32443,-1.76418 0.97359,-2.4133 0.67731,-0.67733 1.49611,-1.01595 2.45566,-1.01595 0.95956,0 1.76362,0.33862 2.41278,1.01595 0.64908,0.64912 0.97358,1.45374 0.97358,2.4133 v 0.2961 c 0,0.81845 0.26838,1.50985 0.8046,2.07429 0.56443,0.53622 1.25583,0.80461 2.07429,0.80461 0.84669,0 1.52393,-0.26839 2.03192,-0.80461 0.53622,-0.53622 0.80409,-1.22762 0.80409,-2.07429 v -0.2961 c 0,-2.59645 -0.87484,-4.76973 -2.62465,-6.51951 -1.72152,-1.74978 -3.88012,-2.62464 -6.47661,-2.62464 z m 15.85072,-0.38086 c -0.95956,0 -1.79201,0.35278 -2.49753,1.05834 -0.6773,0.67733 -1.01596,1.49558 -1.01596,2.45514 0,0.95955 0.33866,1.79197 1.01596,2.49753 0.70552,0.67733 1.53797,1.01596 2.49753,1.01596 0.95955,0 1.77829,-0.33863 2.45566,-1.01596 0.70553,-0.70556 1.05833,-1.53798 1.05833,-2.49753 0,-0.95956 -0.3528,-1.77781 -1.05833,-2.45514 -0.67737,-0.70556 -1.49611,-1.05834 -2.45566,-1.05834 z m -90.43273,9.05888 c -3.076197,0 -5.644682,1.03054 -7.704956,3.09077 -2.060204,2.06021 -3.090251,4.62821 -3.090251,7.70444 0,3.07623 1.030047,5.65837 3.090251,7.74681 2.060274,2.06023 4.628759,3.09077 7.704956,3.09077 h 3.767211 c 0.846686,0 1.52444,-0.26838 2.032434,-0.8046 0.536216,-0.53623 0.804088,-1.22763 0.804088,-2.07429 0,-0.84668 -0.267872,-1.52393 -0.804088,-2.03192 -0.507994,-0.53622 -1.185748,-0.8046 -2.032434,-0.8046 H 87.03655 c -1.411116,0 -2.610972,-0.49378 -3.598746,-1.48157 -0.987777,-1.01599 -1.481564,-2.22949 -1.481564,-3.6406 0,-1.41111 0.493787,-2.61044 1.481564,-3.59823 0.987774,-0.98777 2.18763,-1.48156 3.598746,-1.48156 0.366908,0 0.733356,0.0283 1.10019,0.0847 l -3.047876,3.00551 c -0.620868,0.62088 -0.931209,1.28398 -0.931209,1.98954 0,0.79022 0.282028,1.48162 0.846461,2.07429 0.592653,0.59266 1.284047,0.88884 2.074291,0.88884 0.705525,0 1.369123,-0.29618 1.990061,-0.88884 l 5.418272,-5.29167 c 0.818468,-0.62089 1.227834,-1.39669 1.227834,-2.32802 0,-0.70556 -0.282028,-1.35502 -0.846461,-1.94768 -2.144926,-2.20134 -4.755364,-3.30213 -7.831563,-3.30213 z m -33.238798,0 c -3.076197,0 -5.644166,1.03054 -7.70444,3.09077 -2.060204,2.06021 -3.090251,4.62821 -3.090251,7.70444 0,3.07623 1.030047,5.65837 3.090251,7.74681 2.060274,2.06023 4.628243,3.09077 7.70444,3.09077 h 3.767727 c 0.846686,0 1.52444,-0.26838 2.032434,-0.8046 0.536215,-0.53623 0.804088,-1.22763 0.804088,-2.07429 0,-0.84668 -0.267873,-1.52393 -0.804088,-2.03192 -0.507994,-0.53622 -1.185748,-0.8046 -2.032434,-0.8046 h -3.767727 c -1.411116,0 -2.610454,-0.49378 -3.598231,-1.48157 -0.987774,-1.01599 -1.481563,-2.22949 -1.481563,-3.6406 0,-1.41111 0.493789,-2.61044 1.481563,-3.59823 0.987777,-0.98777 2.187115,-1.48156 3.598231,-1.48156 0.366905,0 0.734319,0.0283 1.101225,0.0847 l -3.048395,3.00551 c -0.620866,0.62088 -0.931209,1.28398 -0.931209,1.98954 0,0.79022 0.282028,1.48162 0.846461,2.07429 0.59265,0.59266 1.284044,0.88884 2.074291,0.88884 0.705593,0 1.369192,-0.29618 1.990061,-0.88884 l 5.418272,-5.29167 c 0.818468,-0.62089 1.227834,-1.39669 1.227834,-2.32802 0,-0.70556 -0.282028,-1.35502 -0.846461,-1.94768 -2.144927,-2.20134 -4.755883,-3.30213 -7.832079,-3.30213 z m -17.458884,0 c -2.342454,0 -4.318127,0.80463 -5.92677,2.41329 -1.580425,1.58045 -2.370397,3.54195 -2.370397,5.8844 v 2.32802 c 0,0.19755 -0.01415,0.77625 -0.04237,1.73581 v 0.84646 c 0,0.73378 -0.254233,1.35494 -0.762228,1.86294 -0.47978,0.47977 -1.086302,0.71985 -1.820044,0.71985 -0.846684,0 -1.538078,0.26786 -2.074292,0.80409 -0.507997,0.53622 -0.762228,1.22762 -0.762228,2.07429 0,0.84666 0.254231,1.53807 0.762228,2.07429 0.536214,0.50801 1.227608,0.76223 2.074292,0.76223 2.314235,0 4.261595,-0.80463 5.84202,-2.41329 1.608646,-1.60868 2.426931,-3.57018 2.455149,-5.8844 l 0.04237,-4.91029 c 0,-0.42333 0.02832,-0.73365 0.08475,-0.93121 0.08465,-0.22578 0.310123,-0.52247 0.67696,-0.88935 0.366906,-0.36689 1.002189,-0.6206 1.90531,-0.76171 0.931338,-0.16934 1.622732,-0.48018 2.074293,-0.93173 0.479777,-0.47978 0.719336,-1.12872 0.719336,-1.94717 0,-0.84666 -0.267872,-1.52391 -0.804087,-2.03192 -0.536212,-0.53621 -1.227606,-0.8046 -2.074292,-0.8046 z m 74.178942,-0.0842 c -3.0762,0 -5.64424,1.04418 -7.70444,3.13262 -2.06027,2.06023 -3.090256,4.62823 -3.090256,7.70444 0,3.04801 1.029986,5.61652 3.090256,7.70496 2.08842,2.06021 4.65645,3.09025 7.70444,3.09025 0.84668,0 1.53859,-0.25423 2.0748,-0.76223 0.53622,-0.53621 0.80409,-1.22761 0.80409,-2.07429 0,-0.84666 -0.26787,-1.53806 -0.80409,-2.07429 -0.53621,-0.53622 -1.22812,-0.80408 -2.0748,-0.80408 -1.41112,0 -2.61046,-0.49431 -3.59824,-1.48209 -0.98777,-0.98777 -1.48156,-2.1871 -1.48156,-3.59823 0,-1.4111 0.49379,-2.61045 1.48156,-3.59823 0.98778,-1.016 2.18712,-1.52393 3.59824,-1.52393 0.84668,0 1.53859,-0.25422 2.0748,-0.76223 0.53622,-0.53622 0.80409,-1.22763 0.80409,-2.07429 0,-0.84667 -0.26787,-1.53807 -0.80409,-2.07429 -0.53621,-0.53623 -1.22812,-0.80409 -2.0748,-0.80409 z m 9.81852,-4.95318 c -0.84669,0 -1.5386,0.26786 -2.07481,0.80408 -0.508,0.53622 -0.76171,1.22814 -0.76171,2.07481 v 14.56242 c 0,2.62467 0.86076,4.81209 2.58227,6.56187 1.74981,1.72155 3.93724,2.58227 6.56187,2.58227 2.59649,0 4.7551,-0.87487 6.47661,-2.62464 1.74981,-1.74978 2.62464,-3.92306 2.62464,-6.5195 v -0.38086 c 0,-0.81845 -0.26786,-1.49569 -0.80408,-2.03191 -0.53621,-0.53623 -1.21345,-0.80461 -2.03192,-0.80461 -0.81846,0 -1.50986,0.26838 -2.07429,0.80461 -0.53622,0.53622 -0.8046,1.21346 -0.8046,2.03191 v 0.38086 c 0,0.95956 -0.3245,1.77781 -0.97358,2.45514 -0.64916,0.64912 -1.45322,0.97411 -2.41278,0.97411 -0.95955,0 -1.77835,-0.32499 -2.45566,-0.97411 -0.64909,-0.67733 -0.97359,-1.49558 -0.97359,-2.45514 v -6.60425 h 9.6945 c 1.8909,0 2.836,-0.95926 2.836,-2.87838 0,-0.84667 -0.26786,-1.52391 -0.80408,-2.03191 -0.50799,-0.53623 -1.18523,-0.80461 -2.03192,-0.80461 h -9.6945 v -2.24327 c 0,-0.84667 -0.26787,-1.53859 -0.80408,-2.07481 -0.53629,-0.53622 -1.22768,-0.80408 -2.07429,-0.80408 z M 69.320835,206.5342 c -0.846614,0 -1.538007,0.26786 -2.074291,0.80408 -0.507997,0.508 -0.761712,1.18525 -0.761712,2.03192 v 24.46879 c 0,0.84668 0.253715,1.53808 0.761712,2.07429 0.536284,0.508 1.227677,0.76223 2.074291,0.76223 0.846685,0 1.538595,-0.25423 2.07481,-0.76223 0.536215,-0.53621 0.804084,-1.22761 0.804084,-2.07429 V 209.3702 c 0,-1.89089 -0.959778,-2.836 -2.878894,-2.836 z" />
        <path
           inkscape:connector-curvature="0"
           id="path987"
           style="font-style:normal;font-variant:normal;font-weight:bold;font-stretch:normal;font-size:41.0058403px;line-height:1.25;font-family:'Alba Super';-inkscape-font-specification:'Alba Super Bold';font-variant-ligatures:normal;font-variant-caps:normal;font-variant-numeric:normal;font-feature-settings:normal;text-align:start;letter-spacing:0px;word-spacing:0px;writing-mode:lr-tb;text-anchor:start;fill:url(#linearGradient1185);fill-opacity:1;stroke:none;stroke-width:1.32291675;stroke-miterlimit:4;stroke-dasharray:none;stroke-opacity:1"
           d="m 391.70731,238.07233 q 0,2.413 -1.65097,3.97934 -1.60874,1.60866 -3.97938,1.60866 -2.41297,0 -4.02161,-1.60866 -1.56642,-1.56634 -1.56642,-3.97934 v -28.702 q 0,-2.41301 1.56642,-3.97934 1.60864,-1.60866 4.02161,-1.60866 2.58237,0 4.10636,1.524 1.52399,1.48166 1.52399,4.064 z m -2.75168,-4.23334 v -24.46866 q 0,-2.83633 -2.87867,-2.83633 -1.27003,0 -2.07435,0.80433 -0.762,0.76199 -0.762,2.032 v 24.46866 q 0,1.27001 0.762,2.07434 0.80432,0.76199 2.07435,0.76199 1.27002,0 2.07434,-0.76199 0.80433,-0.80433 0.80433,-2.07434 z m -7.12782,4.23334 q 0,2.413 -1.65107,3.97934 -1.60865,1.60866 -3.97929,1.60866 -2.37064,0 -3.93695,-1.524 -1.60875,1.60866 -4.02172,1.60866 -5.75733,0 -9.65196,-3.93699 -3.89473,-3.89467 -3.89473,-9.65201 0,-1.05833 0.16941,-2.11667 -0.16941,-1.05832 -0.16941,-2.11666 0,-5.75733 3.89473,-9.652 3.89463,-3.89467 9.65196,-3.89467 5.75734,0 9.65197,3.937 3.93706,3.89467 3.93706,9.60967 z m -2.75169,-4.23334 v -7.91633 q 0,-4.61434 -3.13263,-7.70466 -3.09041,-3.09034 -7.70471,-3.09034 -4.61429,0 -7.7047,3.09034 -3.09031,3.09032 -3.09031,7.70466 0,4.61434 3.09031,7.747 3.09041,3.09034 7.7047,3.09034 1.27003,0 2.07435,-0.80434 0.80432,-0.80434 0.80432,-2.07433 0,-1.27001 -0.80432,-2.032 -0.80432,-0.80433 -2.07435,-0.80433 -2.11667,0 -3.59833,-1.48168 -1.48166,-1.524 -1.48166,-3.64066 0,-2.11666 1.48166,-3.59834 1.48166,-1.48166 3.59833,-1.48166 2.11668,0 3.59834,1.48166 1.52399,1.48168 1.52399,3.59834 v 7.91633 q 0,1.27001 0.762,2.07434 0.80432,0.76199 2.07434,0.76199 1.27003,0 2.07435,-0.76199 0.80432,-0.80433 0.80432,-2.07434 z m -9.10171,-5.29167 q -0.71967,-0.71966 -1.73563,-0.71966 -0.55035,0 -1.01595,0.21166 0.42327,0.21167 1.31225,0.29634 1.05838,0.0847 1.43933,0.21166 z m -13.69546,1.60867 q 0,5.715 -3.93696,9.65201 -3.93706,3.93699 -9.65207,3.93699 -5.75734,0 -9.65197,-3.93699 -3.89463,-3.89467 -3.89463,-9.65201 0,-1.05833 0.16931,-2.11667 -0.16931,-1.05832 -0.16931,-2.11666 0,-5.75733 3.89463,-9.652 3.89463,-3.89467 9.65197,-3.89467 5.75734,0 9.65207,3.89467 3.93696,3.89467 3.93696,9.652 0,1.10066 -0.16931,2.159 0.16931,1.016 0.16931,2.07433 z m -2.75169,-4.23333 q 0,-4.61434 -3.13264,-7.70466 -3.0903,-3.09034 -7.7047,-3.09034 -4.6143,0 -7.7046,3.09034 -3.09041,3.09032 -3.09041,7.70466 0,4.61434 3.09041,7.747 3.0903,3.09034 7.7046,3.09034 4.6144,0 7.7047,-3.09034 3.13264,-3.13266 3.13264,-7.747 z m -5.71501,0 q 0,2.11666 -1.52399,3.64066 -1.48167,1.48168 -3.59834,1.48168 -2.11668,0 -3.59834,-1.48168 -1.48166,-1.524 -1.48166,-3.64066 0,-2.11666 1.48166,-3.59834 1.48166,-1.48166 3.59834,-1.48166 2.11667,0 3.59834,1.48166 1.52399,1.48168 1.52399,3.59834 z m -17.37247,26.7547 q 0,5.71501 -3.93706,9.60964 -3.89463,3.93695 -9.60964,3.93695 -5.71501,0 -9.65197,-3.93695 -3.89473,-3.89463 -3.89473,-9.60964 0,-1.05839 0.16941,-2.11668 -0.16941,-1.05836 -0.16941,-2.11668 0,-5.29167 3.42903,-9.144 -3.42903,-3.81001 -3.42903,-9.14401 0,-1.05833 0.16941,-2.11667 -0.16941,-1.05832 -0.16941,-2.11666 0,-5.75733 3.89473,-9.652 3.89463,-3.89467 9.65197,-3.89467 5.75734,0 9.65197,3.89467 3.89473,3.89467 3.89473,9.652 v 14.43567 q 0,2.45533 -1.10072,4.61433 1.10072,1.48166 1.10072,3.47134 0,1.31233 -0.21174,2.53996 0.21174,0.80432 0.21174,1.6934 z M 318.58638,228.505 q -0.67734,-0.67734 -1.6933,-0.67734 -0.55036,0 -1.01596,0.21166 0.42327,0.21167 1.35468,0.29634 0.97363,0.0847 1.35458,0.16934 z m 9.10171,19.939 q 0,-1.27001 -0.80432,-2.07434 -0.762,-0.80433 -2.03202,-0.80433 -1.2277,0 -2.07435,0.80433 -0.80432,0.84667 -0.80432,2.07434 0,2.11668 -1.48166,3.59834 -1.48167,1.48167 -3.59834,1.48167 -2.11668,0 -3.59834,-1.48167 -1.48166,-1.48166 -1.48166,-3.59834 0,-2.11667 1.48166,-3.64067 1.48166,-1.48167 3.59834,-1.48167 h 3.64066 q 3.00565,0 5.08,-2.11666 2.07435,-2.07434 2.07435,-5.08 v -10.20234 q 0,-4.61434 -3.09031,-7.70466 -3.09041,-3.09034 -7.7047,-3.09034 -4.6143,0 -7.70471,3.09034 -3.0903,3.09032 -3.0903,7.70466 0,4.61434 3.0903,7.747 3.09041,3.09034 7.70471,3.09034 1.27002,0 2.07435,-0.80434 0.80432,-0.80434 0.80432,-2.07433 0,-1.27001 -0.80432,-2.032 -0.80433,-0.80433 -2.07435,-0.80433 -2.11668,0 -3.59834,-1.48168 -1.48166,-1.524 -1.48166,-3.64066 0,-2.11666 1.48166,-3.59834 1.48166,-1.48166 3.59834,-1.48166 2.11667,0 3.59834,1.48166 1.48166,1.48168 1.48166,3.59834 V 236.125 q 0,0.59266 -0.42338,1.016 -0.42327,0.46566 -1.01596,0.46566 h -3.68299 q -4.57197,0 -7.66238,3.13266 -3.0903,3.13268 -3.0903,7.70468 0,4.57198 3.0903,7.66228 3.13274,3.13274 7.70471,3.13274 4.57197,0 7.66238,-3.13274 3.13263,-3.0903 3.13263,-7.66228 z m -9.35568,1.86262 h -1.43933 q -0.55036,0 -1.01596,0.25406 0.4656,0.21164 1.01596,0.21164 0.80432,0 1.43933,-0.4657 z m -26.08394,-28.10929 q 0,2.28599 -1.52399,3.85233 -1.48166,1.56633 -3.76765,1.73567 0,-0.0423 -0.0847,-0.16934 -0.0847,-0.12699 -0.0847,-0.16933 -0.0423,1.05834 -0.0423,2.667 v 0.80433 q 0,3.17501 -0.4656,4.86834 -0.67734,2.49767 -2.75169,4.61433 -3.21739,3.21733 -7.83169,3.21733 -2.41296,0 -4.02161,-1.60866 -1.56642,-1.56634 -1.56642,-3.97934 0,-1.10066 0.38105,-2.11666 -0.38105,-1.016 -0.38105,-2.11667 0,-2.37067 1.52399,-3.97933 1.56642,-1.60867 3.93706,-1.651 v -0.508 q 0,-0.46567 0.0423,-0.97367 -0.0423,-0.55033 -0.0423,-0.93133 V 223.425 q 0,-4.65668 3.17496,-7.83167 3.21739,-3.21734 7.87402,-3.21734 2.41296,0 4.02171,1.60867 1.60864,1.56633 1.60864,3.97933 0,1.143 -0.38105,2.11667 0.38105,0.97367 0.38105,2.11667 z m -2.75169,-4.23334 q 0,-1.26999 -0.80432,-2.032 -0.80432,-0.80433 -2.07435,-0.80433 -3.51368,0 -5.92665,2.413 -2.37063,2.37067 -2.37063,5.88434 v 2.32833 q 0,0.29633 -0.0423,1.73567 0,0 0,0.84666 0,1.10067 -0.762,1.86267 -0.71966,0.71966 -1.82038,0.71966 -1.27003,0 -2.07435,0.80434 -0.76199,0.80433 -0.76199,2.07433 0,1.27 0.76199,2.07433 0.80432,0.76201 2.07435,0.76201 3.47135,0 5.84199,-2.413 2.41297,-2.41301 2.4554,-5.88434 l 0.0423,-4.91066 q 0,-0.635 0.0847,-0.93134 0.12698,-0.33867 0.67734,-0.889 0.55026,-0.55033 1.90494,-0.762 1.397,-0.254 2.07434,-0.93133 0.71967,-0.71967 0.71967,-1.94734 z m -17.67082,4.23334 q 0,2.28599 -1.52399,3.85233 -1.48166,1.56633 -3.76775,1.73567 0,-0.0423 -0.0847,-0.16934 -0.0847,-0.12699 -0.0847,-0.16933 -0.0423,1.05834 -0.0423,2.667 v 0.80433 q 0,3.17501 -0.4657,4.86834 -0.67724,2.49767 -2.75159,4.61433 -3.21739,3.21733 -7.83168,3.21733 -2.41297,0 -4.02172,-1.60866 -1.56631,-1.56634 -1.56631,-3.97934 0,-1.10066 0.38105,-2.11666 -0.38105,-1.016 -0.38105,-2.11667 0,-2.37067 1.52399,-3.97933 1.56631,-1.60867 3.93706,-1.651 v -0.508 q 0,-0.46567 0.0423,-0.97367 -0.0423,-0.55033 -0.0423,-0.93133 V 223.425 q 0,-4.65668 3.17496,-7.83167 3.21739,-3.21734 7.87401,-3.21734 2.41297,0 4.02161,1.60867 1.60875,1.56633 1.60875,3.97933 0,1.143 -0.38105,2.11667 0.38105,0.97367 0.38105,2.11667 z m -2.75169,-4.23334 q 0,-1.26999 -0.80432,-2.032 -0.80432,-0.80433 -2.07435,-0.80433 -3.51368,0 -5.92665,2.413 -2.37064,2.37067 -2.37064,5.88434 v 2.32833 q 0,0.29633 -0.0423,1.73567 0,0 0,0.84666 0,1.10067 -0.762,1.86267 -0.71967,0.71966 -1.82028,0.71966 -1.27003,0 -2.07435,0.80434 -0.76199,0.80433 -0.76199,2.07433 0,1.27 0.76199,2.07433 0.80432,0.76201 2.07435,0.76201 3.47136,0 5.84199,-2.413 2.41297,-2.41301 2.4553,-5.88434 l 0.0423,-4.91066 q 0,-0.635 0.0846,-0.93134 0.12698,-0.33867 0.67724,-0.889 0.55035,-0.55033 1.90504,-0.762 1.397,-0.254 2.07434,-0.93133 0.71967,-0.71967 0.71967,-1.94734 z m -17.89382,6.64634 q 0,2.667 -2.159,4.40267 -0.33862,0.33866 -1.18527,1.22766 1.27003,1.524 1.27003,3.64067 0,1.10066 -0.38105,2.11666 0.38105,1.016 0.38105,2.11667 0,2.41301 -1.60875,4.02167 -1.56631,1.60866 -3.97928,1.60866 h -3.76765 q -5.71501,0 -9.65207,-3.93699 -3.89463,-3.89467 -3.89463,-9.65201 0,-1.05833 0.16931,-2.11667 -0.16931,-1.05832 -0.16931,-2.11666 0,-5.75733 3.89463,-9.652 3.89473,-3.89467 9.65207,-3.89467 3.76765,0 7.32366,2.07434 4.10626,2.37066 4.10626,5.92667 0,1.14299 -0.42327,2.11666 0.42327,1.016 0.42327,2.11667 z m -2.75158,-4.23333 q 0,-1.05834 -0.84675,-1.94734 -3.21729,-3.302 -7.83159,-3.302 -4.6144,0 -7.7047,3.09034 -3.09031,3.09032 -3.09031,7.70466 0,4.61434 3.09031,7.747 3.0903,3.09034 7.7047,3.09034 h 3.76765 q 1.27002,0 2.03202,-0.80434 0.80432,-0.80434 0.80432,-2.07433 0,-1.27001 -0.80432,-2.032 -0.762,-0.80433 -2.03202,-0.80433 h -3.76765 q -2.11667,0 -3.59833,-1.48168 -1.48167,-1.524 -1.48167,-3.64066 0,-2.11666 1.48167,-3.59834 1.48166,-1.48166 3.59833,-1.48166 0.55026,0 1.10062,0.0847 l -3.04798,3.00568 q -0.93131,0.93132 -0.93131,1.98966 0,1.18533 0.84665,2.07434 0.88898,0.88899 2.07435,0.88899 1.05829,0 1.98959,-0.88899 l 5.41872,-5.29167 q 1.2277,-0.93134 1.2277,-2.32833 z m -14.28092,27.00866 q 0,2.413 -1.65098,3.97934 -1.60874,1.60865 -3.97938,1.60865 -5.12233,0 -8.59368,-3.38665 -3.47126,-3.38667 -3.47126,-8.50901 v -1.98966 l -0.0423,-10.62567 q 0,-0.635 -0.63491,-0.635 -0.67734,0 -0.67734,0.635 v 9.60967 q 0,2.413 -1.60875,3.97934 -1.60864,1.60866 -4.02161,1.60866 -2.41297,0 -4.02171,-1.60866 -1.56632,-1.56634 -1.56632,-3.97934 v -13.843 q 0,-4.99533 3.42903,-8.42434 3.47135,-3.429 8.4667,-3.429 4.99524,0 8.42427,3.429 3.47135,3.42901 3.47135,8.42434 v 12.61533 q 0,0.67733 0.67734,0.67733 2.49762,0 4.1487,1.56634 1.65097,1.60867 1.65097,4.064 0,1.143 -0.38105,2.11666 0.38105,0.97367 0.38105,2.11667 z m -2.75169,-4.23333 q 0,-1.27001 -0.80432,-2.07434 -0.80433,-0.80433 -2.07435,-0.80433 h -0.16931 q -1.43934,0 -2.45529,-1.016 -0.97374,-0.97366 -0.97374,-2.413 v -12.61533 q 0,-3.89467 -2.6246,-6.47701 -2.62471,-2.62466 -6.51934,-2.62466 -3.89473,0 -6.51933,2.62466 -2.62471,2.58234 -2.62471,6.47701 v 9.60966 q 0,1.27001 0.762,2.07434 0.80432,0.76199 2.07435,0.76199 1.27002,0 2.07434,-0.76199 0.80433,-0.80433 0.80433,-2.07434 v -9.60966 q 0,-1.43933 0.97363,-2.41301 1.01606,-0.97366 2.45539,-0.97366 1.39701,0 2.37064,1.016 1.01596,0.97366 1.01596,2.37067 l 0.0423,12.61533 q 0,3.937 2.58238,6.51934 2.6247,2.62466 6.56166,2.62466 h 0.16931 q 1.27002,0 2.07435,-0.80433 0.80432,-0.76201 0.80432,-2.032 z m -25.92651,-11.38767 q 0,4.99534 -3.42903,8.42434 -3.42892,3.47133 -8.42427,3.47133 -5.03767,0 -8.4667,-3.42901 -3.42902,-3.42899 -3.42902,-8.46666 v -18.796 q 0,-2.413 1.56631,-4.02167 1.60875,-1.60866 4.02172,-1.60866 2.24365,0 3.80997,1.43933 1.60864,1.43933 1.82038,3.683 h 6.94261 q 2.41307,0 3.97939,1.60867 1.60864,1.56633 1.60864,3.97933 0,1.18534 -0.33862,2.20134 0.33862,0.97366 0.33862,2.032 0,1.39699 -0.4657,2.53999 0.4657,1.10067 0.4657,2.32834 v 0.38099 q 0,1.18534 -0.21164,2.28601 0.21164,0.76199 0.21164,1.56633 z m -2.75169,-4.23334 v -0.38099 q 0,-1.22767 -0.80432,-2.032 -0.80432,-0.80434 -2.03202,-0.80434 -1.22759,0 -2.07435,0.80434 -0.80432,0.80433 -0.80432,2.032 v 0.38099 q 0,1.43934 -0.97363,2.45534 -0.97363,0.97367 -2.41297,0.97367 -1.43933,0 -2.45539,-0.97367 -0.97363,-1.016 -0.97363,-2.45534 v -6.60399 h 9.69429 q 2.83634,0 2.83634,-2.87867 0,-1.27 -0.80432,-2.032 -0.76199,-0.80434 -2.03202,-0.80434 h -9.69429 v -2.24366 q 0,-1.27 -0.80433,-2.07433 -0.80432,-0.80433 -2.07434,-0.80433 -1.27003,0 -2.07435,0.80433 -0.762,0.80433 -0.762,2.07433 v 14.56266 q 0,3.93701 2.58238,6.56168 2.62461,2.58232 6.56166,2.58232 3.89463,0 6.47701,-2.62466 2.6246,-2.62467 2.6246,-6.51934 z m -8.55135,0.381 h -1.14294 q 0.21164,0.29634 0.59268,0.29634 0.38095,0 0.55026,-0.29634 z m -10.43182,-14.09699 q 0,1.60866 -0.71967,2.96333 0.0847,0.55033 0.0847,1.18533 v 20.10834 q 0,2.413 -1.65097,3.97934 -1.60864,1.60866 -3.97938,1.60866 -2.41297,0 -4.02161,-1.60866 -1.56632,-1.56634 -1.56632,-3.97934 v -20.10834 q 0,-0.59266 0.0847,-1.143 -0.76199,-1.397 -0.76199,-3.00566 0,-1.10067 0.38094,-2.11667 -0.38094,-1.016 -0.38094,-2.11666 0,-2.58234 1.82028,-4.40267 1.86271,-1.86267 4.44499,-1.86267 2.58237,0 4.40276,1.86267 1.86261,1.82033 1.86261,4.40267 0,1.10066 -0.38095,2.11666 0.38095,1.016 0.38095,2.11667 z M 180.9832,209.582 q 0,-1.43934 -1.05829,-2.45534 -1.01606,-1.05834 -2.45539,-1.05834 -1.43934,0 -2.49762,1.05834 -1.01596,1.016 -1.01596,2.45534 0,1.43932 1.01596,2.49766 1.05828,1.016 2.49762,1.016 1.43933,0 2.45539,-1.016 1.05829,-1.05834 1.05829,-2.49766 z m -0.63501,24.25699 v -15.875 q 0,-2.83633 -2.87867,-2.83633 -1.26993,0 -2.07425,0.80433 -0.76199,0.76201 -0.76199,2.032 v 15.875 q 0,1.27001 0.76199,2.07434 0.80432,0.76199 2.07425,0.76199 1.27002,0 2.07434,-0.76199 0.80433,-0.80433 0.80433,-2.07434 z m -6.70713,-5.08 q 0,2.413 -1.60864,4.02167 -1.56642,1.56633 -3.97939,1.56633 h -7.11202 v 3.72534 q 0,2.413 -1.60864,3.97934 -1.60864,1.60866 -4.02171,1.60866 -2.41297,0 -4.02161,-1.60866 -1.56632,-1.56634 -1.56632,-3.97934 v -22.479 q 0,-5.03767 3.42903,-8.46667 3.42892,-3.429 8.46659,-3.429 4.99535,0 8.42438,3.47133 3.42902,3.42901 3.42902,8.42434 v 0.29633 q 0,0.84666 -0.21174,1.60867 0.21174,1.143 0.21174,2.32833 v 0.29633 q 0,1.05834 -0.33872,1.98967 0.50803,1.10067 0.50803,2.413 0,1.143 -0.38105,2.11667 0.38105,1.016 0.38105,2.11666 z m -2.75168,-4.23333 q 0,-1.27 -0.80433,-2.07433 -0.76199,-0.80434 -2.03202,-0.80434 h -9.8637 v -6.05366 q 0,-1.43933 0.97373,-2.41301 1.01596,-1.016 2.45529,-1.016 1.43934,0 2.41307,1.016 0.97363,0.97368 0.97363,2.41301 v 0.29633 q 0,1.22767 0.80433,2.07433 0.84665,0.80433 2.07434,0.80433 1.27003,0 2.03202,-0.80433 0.80433,-0.80433 0.80433,-2.07433 v -0.29633 q 0,-3.89467 -2.62471,-6.51933 -2.58228,-2.62468 -6.47701,-2.62468 -3.93695,0 -6.56166,2.62468 -2.58227,2.58232 -2.58227,6.51933 v 18.24566 q 0,1.27001 0.76199,2.07434 0.80432,0.76199 2.07425,0.76199 1.27002,0 2.07434,-0.76199 0.80433,-0.80433 0.80433,-2.07434 v -6.477 h 9.8637 q 1.27003,0 2.03202,-0.762 0.80433,-0.80433 0.80433,-2.07433 z m -32.39227,7.239 q 0,4.99534 -3.42902,8.42434 -3.42903,3.47133 -8.42438,3.47133 -5.03767,0 -8.46659,-3.42901 -3.42903,-3.42899 -3.42903,-8.46666 v -18.796 q 0,-2.413 1.56632,-4.02167 1.60864,-1.60866 4.02171,-1.60866 2.24366,0 3.80997,1.43933 1.60865,1.43933 1.82028,3.683 h 6.94271 q 2.41297,0 3.97939,1.60867 1.60864,1.56633 1.60864,3.97933 0,1.18534 -0.33872,2.20134 0.33872,0.97366 0.33872,2.032 0,1.39699 -0.4657,2.53999 0.4657,1.10067 0.4657,2.32834 v 0.38099 q 0,1.18534 -0.21174,2.28601 0.21174,0.76199 0.21174,1.56633 z m -2.75168,-4.23334 v -0.38099 q 0,-1.22767 -0.80433,-2.032 -0.80432,-0.80434 -2.03202,-0.80434 -1.22769,0 -2.07434,0.80434 -0.80433,0.80433 -0.80433,2.032 v 0.38099 q 0,1.43934 -0.97363,2.45534 -0.97373,0.97367 -2.41307,0.97367 -1.43933,0 -2.45529,-0.97367 -0.97363,-1.016 -0.97363,-2.45534 v -6.60399 h 9.69429 q 2.83635,0 2.83635,-2.87867 0,-1.27 -0.80433,-2.032 -0.76199,-0.80434 -2.03202,-0.80434 h -9.69429 v -2.24366 q 0,-1.27 -0.80432,-2.07433 -0.80443,-0.80433 -2.07435,-0.80433 -1.27003,0 -2.07435,0.80433 -0.76199,0.80433 -0.76199,2.07433 v 14.56266 q 0,3.93701 2.58227,6.56168 2.62471,2.58232 6.56166,2.58232 3.89474,0 6.47701,-2.62466 2.62471,-2.62467 2.62471,-6.51934 z m -8.55136,0.381 h -1.14294 q 0.21164,0.29634 0.59258,0.29634 0.38105,0 0.55036,-0.29634 z m -11.04567,10.16001 q 0,2.413 -1.65097,3.97934 -1.60864,1.60866 -3.97939,1.60866 -5.71501,0 -9.65196,-3.93701 -3.894633,-3.89466 -3.894633,-9.60966 0,-1.05834 0.169309,-2.11666 -0.169309,-1.05834 -0.169309,-2.11668 0,-5.75733 3.894633,-9.652 3.89462,-3.93699 9.65196,-3.93699 2.41307,0 4.02172,1.60866 1.60864,1.60867 1.60864,4.02167 0,1.10067 -0.38105,2.11667 0.38105,1.016 0.38105,2.11666 0,2.413 -1.60864,4.02167 -1.60865,1.56633 -4.02172,1.56633 -0.55036,0 -1.01596,0.25401 0.4656,0.21166 1.01596,0.21166 2.41307,0 4.02172,1.60867 1.60864,1.60866 1.60864,4.02166 0,1.143 -0.38105,2.11667 0.38105,1.016 0.38105,2.11667 z m -2.75169,-4.23334 q 0,-1.26999 -0.80432,-2.07433 -0.80432,-0.80433 -2.07435,-0.80433 -2.11667,0 -3.59833,-1.48167 -1.48167,-1.48166 -1.48167,-3.59834 0,-2.11666 1.48167,-3.59832 1.48166,-1.524 3.59833,-1.524 1.27003,0 2.07435,-0.76201 0.80432,-0.80433 0.80432,-2.07433 0,-1.27 -0.80432,-2.07433 -0.80432,-0.80434 -2.07435,-0.80434 -4.61429,0 -7.7046,3.13267 -3.090408,3.09034 -3.090408,7.70466 0,4.57201 3.090408,7.70468 3.13263,3.09032 7.7046,3.09032 1.27003,0 2.07435,-0.76199 0.80432,-0.80433 0.80432,-2.07434 z m -14.930386,-9.22866 q 0,2.667 -2.159003,4.40267 -0.338721,0.33866 -1.185371,1.22766 1.270026,1.524 1.270026,3.64067 0,1.10066 -0.381049,2.11666 0.381049,1.016 0.381049,2.11667 0,2.41301 -1.608644,4.02167 -1.56642,1.60866 -3.979386,1.60866 h -3.767647 q -5.715012,0 -9.651967,-3.93699 -3.894732,-3.89467 -3.894732,-9.65201 0,-1.05833 0.169309,-2.11667 -0.169309,-1.05832 -0.169309,-2.11666 0,-5.75733 3.894732,-9.652 3.894628,-3.89467 9.651967,-3.89467 3.767647,0 7.323656,2.07434 4.106369,2.37066 4.106369,5.92667 0,1.14299 -0.423377,2.11666 0.423377,1.016 0.423377,2.11667 z M 95.714636,220.377 q 0,-1.05834 -0.84665,-1.94734 -3.217391,-3.302 -7.831687,-3.302 -4.614295,0 -7.704705,3.09034 -3.090306,3.09032 -3.090306,7.70466 0,4.61434 3.090306,7.747 3.09041,3.09034 7.704705,3.09034 h 3.767647 q 1.270025,0 2.03202,-0.80434 0.804322,-0.80434 0.804322,-2.07433 0,-1.27001 -0.804322,-2.032 -0.761995,-0.80433 -2.03202,-0.80433 h -3.767647 q -2.116675,0 -3.598337,-1.48168 -1.481662,-1.524 -1.481662,-3.64066 0,-2.11666 1.481662,-3.59834 1.481662,-1.48166 3.598337,-1.48166 0.550359,0 1.100613,0.0847 l -3.047978,3.00568 q -0.931304,0.93132 -0.931304,1.98966 0,1.18533 0.846649,2.07434 0.888977,0.88899 2.074348,0.88899 1.058285,0 1.989693,-0.88899 l 5.418617,-5.29167 q 1.227699,-0.93134 1.227699,-2.32833 z m -20.763195,17.69533 q 0,2.413 -1.650972,3.97934 -1.608644,1.60866 -3.979386,1.60866 -2.412966,0 -4.02161,-1.60866 -1.566317,-1.56634 -1.566317,-3.97934 v -28.702 q 0,-2.41301 1.566317,-3.97934 1.608644,-1.60866 4.02161,-1.60866 2.582379,0 4.106368,1.524 1.52399,1.48166 1.52399,4.064 z m -2.751688,-4.23334 v -24.46866 q 0,-2.83633 -2.87867,-2.83633 -1.269922,0 -2.074347,0.80433 -0.761995,0.76199 -0.761995,2.032 v 24.46866 q 0,1.27001 0.761995,2.07434 0.804425,0.76199 2.074347,0.76199 1.270026,0 2.074348,-0.76199 0.804322,-0.80433 0.804322,-2.07434 z m -6.97172,-9.22866 q 0,2.667 -2.159003,4.40267 -0.338721,0.33866 -1.185371,1.22766 1.270026,1.524 1.270026,3.64067 0,1.10066 -0.381049,2.11666 0.381049,1.016 0.381049,2.11667 0,2.41301 -1.608644,4.02167 -1.566317,1.60866 -3.979386,1.60866 h -3.767646 q -5.715013,0 -9.651968,-3.93699 -3.894732,-3.89467 -3.894732,-9.65201 0,-1.05833 0.169413,-2.11667 -0.169413,-1.05832 -0.169413,-2.11666 0,-5.75733 3.894732,-9.652 3.894628,-3.89467 9.651968,-3.89467 3.767646,0 7.323656,2.07434 4.106368,2.37066 4.106368,5.92667 0,1.14299 -0.423377,2.11666 0.423377,1.016 0.423377,2.11667 z M 62.476345,220.377 q 0,-1.05834 -0.846649,-1.94734 -3.217392,-3.302 -7.831687,-3.302 -4.614296,0 -7.704706,3.09034 -3.090306,3.09032 -3.090306,7.70466 0,4.61434 3.090306,7.747 3.09041,3.09034 7.704706,3.09034 h 3.767646 q 1.270026,0 2.03202,-0.80434 0.804322,-0.80434 0.804322,-2.07433 0,-1.27001 -0.804322,-2.032 -0.761994,-0.80433 -2.03202,-0.80433 h -3.767646 q -2.116675,0 -3.598338,-1.48168 -1.481662,-1.524 -1.481662,-3.64066 0,-2.11666 1.481662,-3.59834 1.481663,-1.48166 3.598338,-1.48166 0.550358,0 1.100716,0.0847 l -3.048082,3.00568 q -0.931304,0.93132 -0.931304,1.98966 0,1.18533 0.846649,2.07434 0.888977,0.88899 2.074348,0.88899 1.058389,0 1.989693,-0.88899 l 5.418618,-5.29167 q 1.227698,-0.93134 1.227698,-2.32833 z m -20.507167,1.82033 q 0,2.28599 -1.523989,3.85233 -1.481662,1.56633 -3.76775,1.73567 0,-0.0423 -0.08465,-0.16934 -0.08465,-0.12699 -0.08465,-0.16933 -0.04233,1.05834 -0.04233,2.667 v 0.80433 q 0,3.17501 -0.4656,4.86834 -0.677341,2.49767 -2.751688,4.61433 -3.217392,3.21733 -7.831687,3.21733 -2.412966,0 -4.021714,-1.60866 -1.566317,-1.56634 -1.566317,-3.97934 0,-1.10066 0.381049,-2.11666 -0.381049,-1.016 -0.381049,-2.11667 0,-2.37067 1.52399,-3.97933 1.566317,-1.60867 3.937059,-1.651 v -0.508 q 0,-0.46567 0.04233,-0.97367 -0.04233,-0.55033 -0.04233,-0.93133 V 223.425 q 0,-4.65668 3.174961,-7.83167 3.217391,-3.21734 7.874014,-3.21734 2.412966,0 4.021713,1.60867 1.608644,1.56633 1.608644,3.97933 0,1.143 -0.381048,2.11667 0.381048,0.97367 0.381048,2.11667 z m -2.751687,-4.23334 q 0,-1.26999 -0.804322,-2.032 -0.804322,-0.80433 -2.074348,-0.80433 -3.513683,0 -5.926649,2.413 -2.370638,2.37067 -2.370638,5.88434 v 2.32833 q 0,0.29633 -0.04233,1.73567 0,0 0,0.84666 0,1.10067 -0.761994,1.86267 -0.719668,0.71966 -1.820281,0.71966 -1.270026,0 -2.074348,0.80434 -0.761995,0.80433 -0.761995,2.07433 0,1.27 0.761995,2.07433 0.804322,0.76201 2.074348,0.76201 3.471355,0 5.841994,-2.413 2.412966,-2.41301 2.455293,-5.88434 l 0.04233,-4.91066 q 0,-0.635 0.08465,-0.93134 0.126982,-0.33867 0.677237,-0.889 0.550358,-0.55033 1.905039,-0.762 1.397007,-0.254 2.074347,-0.93133 0.719668,-0.71967 0.719668,-1.94734 z" />
        <path
           inkscape:connector-curvature="0"
           style="opacity:1;fill:#ff0000;fill-opacity:1;stroke:none;stroke-width:1.80931962;stroke-linecap:square;stroke-miterlimit:4;stroke-dasharray:none;stroke-dashoffset:0;stroke-opacity:1"
           d="m 729.53906,861.40039 c 0.53327,0.74668 1.28014,1.12109 2.24024,1.12109 0.95987,0 1.65347,-0.37441 2.08008,-1.12109 z"
           transform="scale(0.26458334)"
           id="path1048" />
        <path
           inkscape:connector-curvature="0"
           style="opacity:1;fill:#ff0000;fill-opacity:1;stroke:none;stroke-width:1.80931962;stroke-linecap:square;stroke-miterlimit:4;stroke-dasharray:none;stroke-dashoffset:0;stroke-opacity:1"
           d="m 860.48828,893.91797 v 1.24219 c 0,1.57395 0.73591,2.41472 2.1875,2.53711 -0.78796,-1.23167 -1.52019,-2.48993 -2.1875,-3.7793 z"
           transform="scale(0.26458334)"
           id="path1046" />
      </g>
    </g>
    <path
       inkscape:connector-curvature="0"
       d="m 258.69156,203.65589 c 1.82328,0 3.27257,0.53784 4.34857,1.61385 1.07609,1.04614 1.61438,2.48087 1.61438,4.30414 v 10.80606 c 0.6529,-1.26453 1.50994,-2.43134 2.57658,-3.49798 2.74983,-2.74984 6.15715,-4.12483 10.22212,-4.12483 2.66016,0 5.24542,0.73221 7.75612,2.19679 2.89929,1.6738 4.34908,3.76642 4.34908,6.27713 0,0.807 -0.14963,1.55427 -0.44855,2.24171 0.29892,0.71736 0.44855,1.46463 0.44855,2.24173 0,1.88304 -0.76231,3.43728 -2.28668,4.66278 -0.23913,0.23911 -0.65747,0.67249 -1.25522,1.30016 0.89666,1.07604 1.34514,2.36112 1.34514,3.85559 0,0.77711 -0.13457,1.52437 -0.40359,2.24171 0.26902,0.71737 0.40359,1.4646 0.40359,2.24174 0,1.70367 -0.56799,3.12338 -1.70377,4.25915 -1.1059,1.13583 -2.5105,1.70379 -4.21422,1.70379 h -3.99045 c -4.03508,0 -7.4424,-1.39004 -10.22212,-4.16978 -1.06655,-1.06654 -1.9237,-2.23306 -2.57658,-3.49745 v 1.65933 c 0,1.70371 -0.58298,3.10883 -1.74873,4.21474 -1.13579,1.13577 -2.54039,1.70325 -4.21422,1.70325 -1.70364,0 -3.12338,-0.56748 -4.25917,-1.70325 -0.061,-0.061 -0.11964,-0.12327 -0.17725,-0.18606 -0.18258,3.15865 -1.39716,5.85176 -3.64939,8.07651 -2.42103,2.45092 -5.39493,3.67628 -8.92193,3.67628 -1.76343,0 -3.22785,-0.55292 -4.39353,-1.65883 -1.16568,-1.10588 -1.74874,-2.52555 -1.74874,-4.25915 0,-0.77714 0.13465,-1.5244 0.4036,-2.24174 -0.26895,-0.68747 -0.4036,-1.4347 -0.4036,-2.24171 0,-0.3288 0.0301,-0.64265 0.0899,-0.94155 -2.00256,-1.07603 -3.58649,-2.60016 -4.75216,-4.57284 -0.35636,-0.59394 -0.65796,-1.21036 -0.90537,-1.84899 -0.60431,1.55731 -1.53256,2.96656 -2.79105,4.22505 -2.4211,2.45094 -5.39501,3.67628 -8.92194,3.67628 -3.55681,0 -6.54578,-1.21028 -8.96689,-3.63133 -2.42103,-2.42104 -3.63182,-5.41004 -3.63182,-8.96688 v -5.85391 c -1.01352,0.97724 -2.27306,1.52773 -3.78478,1.6397 0,-0.0299 -0.0301,-0.0896 -0.0899,-0.17931 -0.0598,-0.0897 -0.0894,-0.14943 -0.0894,-0.17933 -0.0299,0.74724 -0.045,1.68833 -0.045,2.82411 v 0.85217 c 0,2.24168 -0.16419,3.96018 -0.49299,5.15575 -0.47826,1.76347 -1.44996,3.39257 -2.91455,4.88704 -2.27158,2.27161 -5.03609,3.40754 -8.29407,3.40754 -1.70365,0 -3.12331,-0.56798 -4.25917,-1.70378 -1.10589,-1.10591 -1.65881,-2.511 -1.65881,-4.21471 0,-0.77713 0.13405,-1.52387 0.40307,-2.24123 -0.26902,-0.71734 -0.40307,-1.4646 -0.40307,-2.24171 0,-1.67381 0.53785,-3.07893 1.61385,-4.21473 1.10597,-1.13581 2.49602,-1.71834 4.16977,-1.74821 v -0.53848 c 0,-0.32877 0.0146,-0.67226 0.0445,-1.03095 -0.0299,-0.38854 -0.0445,-0.7175 -0.0445,-0.9865 v -2.466 c 0,-3.28781 1.12083,-6.05234 3.36259,-8.29405 2.27157,-2.27161 5.05116,-3.40754 8.33902,-3.40757 1.64657,0 3.02723,0.53224 4.14342,1.59319 v -0.9653 c 0,-1.70371 0.55344,-3.12338 1.65933,-4.25919 1.13586,-1.13577 2.55553,-1.70376 4.25917,-1.70376 1.58416,0 2.929,0.50822 4.0349,1.52445 1.13586,1.01624 1.77866,2.3164 1.92805,3.90054 h 7.35252 c 1.70365,0 3.10876,0.56799 4.21473,1.70376 0.31962,0.31123 0.59249,0.64656 0.82217,1.00513 0.23432,-0.39259 0.51924,-0.75798 0.85628,-1.09503 1.13579,-1.13581 2.55545,-1.70379 4.25917,-1.70379 1.82321,0 3.27301,0.53838 4.34909,1.61438 1.07601,1.04614 1.61385,2.48087 1.61385,4.30414 v 10.13219 c 0,0.47824 0.2391,0.71729 0.71727,0.71726 0.44837,3e-5 0.67283,-0.23902 0.67283,-0.71726 v -10.13219 c 0,-1.7037 0.56746,-3.10883 1.70326,-4.21473 1.13578,-1.13581 2.55597,-1.70379 4.25969,-1.70379 1.70371,0 3.10832,0.56798 4.21421,1.70379 0.0671,0.0654 0.13167,0.13202 0.19482,0.19947 v -5.08651 c 0,-1.70371 0.55284,-3.1083 1.65881,-4.21421 1.13579,-1.1358 2.55553,-1.70378 4.25917,-1.70378 z m -159.459003,-0.0894 c 1.703713,0 3.123383,0.56747 4.259173,1.70325 1.13578,1.10593 1.70377,2.51106 1.70377,4.21473 v 19.32337 c 0,0.47824 0.23901,0.71729 0.71727,0.71726 h 1.97249 c 1.68023,0 3.06944,0.55362 4.16822,1.6583 v -12.50775 c 0,-1.7037 0.55336,-3.10883 1.65933,-4.21473 1.13579,-1.13581 2.55553,-1.70379 4.25917,-1.70379 1.82328,0 3.27257,0.53838 4.34857,1.61438 1.07608,1.04614 1.61437,2.48087 1.61437,4.30414 v 10.13219 c 0,0.47824 0.23909,0.71729 0.71727,0.71726 0.44837,0 0.67231,-0.23902 0.67231,-0.71726 v -10.13219 c 1e-5,-1.7037 0.56799,-3.10883 1.70378,-4.21473 1.13579,-1.13581 2.55545,-1.70379 4.25917,-1.70379 1.70372,0 3.10884,0.56798 4.21473,1.70379 0.0925,0.0901 0.17961,0.18296 0.26458,0.27699 0.28585,-2.93624 1.47165,-5.45021 3.56154,-7.54012 2.42111,-2.42105 5.41008,-3.6313 8.9669,-3.6313 3.52692,0 6.50083,1.22533 8.92194,3.67628 2.42102,2.42104 3.6313,5.39496 3.6313,8.92193 v 0.31366 c 0,0.59778 -0.0743,1.16576 -0.22376,1.70379 0.11932,0.64429 0.18833,1.29879 0.21239,1.96215 0.63637,-1.17409 1.45193,-2.26221 2.45205,-3.26234 2.74983,-2.74984 6.15722,-4.1248 10.22211,-4.12483 2.66023,3e-5 5.24593,0.73221 7.75663,2.19679 2.89929,1.6738 4.34909,3.76642 4.34909,6.27713 0,0.807 -0.14964,1.55427 -0.44855,2.24171 0.29891,0.71736 0.44855,1.46463 0.44855,2.24173 0,1.88304 -0.76231,3.43728 -2.28668,4.66278 -0.23913,0.23911 -0.6574,0.67249 -1.25522,1.30016 0.89673,1.07604 1.34462,2.36112 1.34462,3.85559 0,0.77711 -0.13406,1.52437 -0.40308,2.24171 0.26902,0.71737 0.40308,1.4646 0.40308,2.24174 0,1.70367 -0.56791,3.12338 -1.70377,4.25915 -1.1059,1.13583 -2.51057,1.70379 -4.21422,1.70379 h -3.99045 c -4.03507,0 -7.44246,-1.39004 -10.22211,-4.16978 -2.11406,-2.11405 -3.41176,-4.61825 -3.90054,-7.50962 -0.0216,0.0222 -0.042,0.0451 -0.0641,0.0672 -1.10598,1.10593 -2.51109,1.65883 -4.21473,1.65883 h -7.53184 v 3.94549 c 0,1.70371 -0.56799,3.10883 -1.70377,4.21474 -1.13579,1.13577 -2.55546,1.70325 -4.25917,1.70325 -1.70365,0 -3.12383,-0.56748 -4.25969,-1.70325 -0.061,-0.061 -0.11914,-0.12327 -0.17674,-0.18606 -0.18258,3.15865 -1.39716,5.85176 -3.64939,8.07651 -2.42102,2.45092 -5.39493,3.67628 -8.92193,3.67628 -1.76343,0 -3.22778,-0.55292 -4.39353,-1.65883 -1.16568,-1.10588 -1.74874,-2.52555 -1.74874,-4.25915 0,-0.77714 0.13458,-1.5244 0.4036,-2.24174 -0.26902,-0.68747 -0.4036,-1.4347 -0.4036,-2.24171 0,-0.3288 0.0296,-0.64265 0.0894,-0.94155 -2.00255,-1.07603 -3.58648,-2.60016 -4.75216,-4.57284 -0.002,-0.003 -0.003,-0.006 -0.005,-0.008 0.001,0.0478 0.006,0.0946 0.006,0.14263 0,1.70371 -0.56799,3.10883 -1.70377,4.21474 -1.1059,1.13577 -2.51101,1.70325 -4.21473,1.70325 h -1.97249 c -3.55682,0 -6.545793,-1.21028 -8.966897,-3.63133 -2.42103,-2.42104 -3.631303,-5.41004 -3.631303,-8.96688 v -23.80682 c 0,-1.70367 0.552918,-3.1088 1.658813,-4.21473 1.135864,-1.13578 2.555528,-1.70325 4.259173,-1.70325 z"
       style="fill:url(#linearGradient1741);fill-opacity:1;stroke:none;stroke-width:1.32291675;stroke-miterlimit:4;stroke-dasharray:none;stroke-opacity:1"
       id="path1721" />
    <path
       inkscape:connector-curvature="0"
       d="m 277.45321,215.6717 c -3.25798,0 -5.97781,1.09075 -8.15971,3.27266 -2.18197,2.18194 -3.27318,4.90175 -3.27318,8.15972 0,3.25795 1.09121,5.99284 3.27318,8.20465 2.1819,2.18194 4.90173,3.27319 8.15971,3.27319 h 3.99045 c 0.89666,0 1.61377,-0.28424 2.15181,-0.85214 0.56785,-0.5679 0.85163,-1.30009 0.85163,-2.19676 0,-0.89667 -0.28378,-1.6138 -0.85163,-2.1518 -0.53804,-0.5679 -1.25515,-0.85214 -2.15181,-0.85214 h -3.99045 c -1.49448,0 -2.76451,-0.5228 -3.81062,-1.5689 -1.04619,-1.07604 -1.56941,-2.36162 -1.56941,-3.8561 0,-1.49447 0.52322,-2.76449 1.56941,-3.81063 1.04611,-1.04614 2.31614,-1.5694 3.81062,-1.5694 0.38851,0 0.77724,0.0301 1.16582,0.0899 l -3.22823,3.18328 c -0.6576,0.65757 -0.9865,1.35962 -0.9865,2.10685 0,0.83691 0.29928,1.56959 0.8971,2.19726 0.62764,0.6277 1.35981,0.94155 2.19677,0.94155 0.7472,0 1.44976,-0.31385 2.10736,-0.94155 l 5.73867,-5.60429 c 0.86677,-0.65757 1.30018,-1.47966 1.30018,-2.466 0,-0.74724 -0.29884,-1.43473 -0.89659,-2.0624 -2.27164,-2.33138 -5.03667,-3.49695 -8.29458,-3.49695 z m -42.40465,0 c -0.89673,0 -1.62891,0.28374 -2.19676,0.85162 -0.53804,0.53803 -0.80719,1.25563 -0.80719,2.15233 v 10.13219 c 0,2.77972 0.91144,5.0963 2.73472,6.94944 1.85317,1.82327 4.1698,2.73474 6.94944,2.73474 1.25543,0 2.45108,-0.22397 3.58687,-0.67231 v 0.85161 c 0,0.98634 -0.35852,1.83857 -1.07591,2.55593 -0.71731,0.71734 -1.56951,1.0759 -2.55591,1.0759 h -0.17932 c -0.89673,0 -1.62891,0.28372 -2.19677,0.85162 -0.56793,0.5679 -0.85162,1.30008 -0.85162,2.19678 0,0.89667 0.28369,1.6143 0.85162,2.15231 0.56786,0.5679 1.30004,0.85164 2.19677,0.85164 h 0.17932 c 2.74982,0 5.05131,-0.92655 6.90448,-2.77969 1.85318,-1.85314 2.77968,-4.15467 2.77968,-6.90449 v -19.99567 c 0,-0.8967 -0.2837,-1.6143 -0.85163,-2.15233 -0.53804,-0.56788 -1.25566,-0.85162 -2.15232,-0.85162 -0.89666,0 -1.62884,0.28374 -2.19677,0.85162 -0.56786,0.53803 -0.85162,1.25563 -0.85162,2.15233 v 10.13219 c 0,1.01624 -0.34397,1.88302 -1.03147,2.60035 -0.68742,0.68747 -1.5391,1.03148 -2.5554,1.03148 -1.01622,0 -1.88304,-0.34401 -2.60036,-1.03148 -0.68749,-0.71733 -1.03146,-1.58411 -1.03146,-2.60035 v -10.13219 c 0,-2.0026 -1.01594,-3.00395 -3.04839,-3.00395 z m -33.52974,0 c -2.48088,0 -4.57297,0.8517 -6.27662,2.5554 -1.67382,1.67381 -2.51095,3.75084 -2.51095,6.23165 v 2.466 c 0,0.20923 -0.0146,0.8219 -0.0445,1.83814 v 0.8971 c 0,0.77713 -0.26914,1.43449 -0.80718,1.97249 -0.50807,0.50811 -1.15088,0.76224 -1.92805,0.76224 -0.89666,0 -1.62884,0.28371 -2.19676,0.85161 -0.53797,0.56791 -0.80719,1.30059 -0.80719,2.19729 0,0.89667 0.26922,1.62885 0.80719,2.19676 0.56792,0.538 1.3001,0.80668 2.19676,0.80668 2.451,0 4.51347,-0.85172 6.18722,-2.5554 1.70372,-1.7037 2.57047,-3.78073 2.60036,-6.23167 l 0.045,-5.20124 c 0,-0.44833 0.0296,-0.77676 0.0894,-0.98599 0.0897,-0.23911 0.3292,-0.55298 0.71778,-0.94152 0.38852,-0.38857 1.06094,-0.65776 2.01745,-0.80719 0.98634,-0.17934 1.71859,-0.50829 2.19677,-0.9865 0.50814,-0.50813 0.76222,-1.19512 0.76222,-2.0619 0,-0.8967 -0.28429,-1.6143 -0.85214,-2.15233 -0.56793,-0.56788 -1.30011,-0.85162 -2.19677,-0.85162 z m -28.00759,0 c -3.25791,0 -5.97781,1.09075 -8.15971,3.27266 -2.18198,2.18194 -3.27267,4.90175 -3.27267,8.15972 0,3.25795 1.09069,5.99284 3.27267,8.20465 2.1819,2.18194 4.9018,3.27319 8.15971,3.27319 h 3.99045 c 0.89666,0 1.61385,-0.28424 2.15181,-0.85214 0.56794,-0.5679 0.85215,-1.30009 0.85215,-2.19676 0,-0.89667 -0.28421,-1.6138 -0.85215,-2.1518 -0.53796,-0.5679 -1.25515,-0.85214 -2.15181,-0.85214 h -3.99045 c -1.49441,0 -2.76443,-0.5228 -3.81062,-1.5689 -1.04611,-1.07604 -1.56941,-2.36162 -1.56941,-3.8561 0,-1.49447 0.5233,-2.76449 1.56941,-3.81063 1.04619,-1.04614 2.31621,-1.5694 3.81062,-1.5694 0.38858,0 0.77724,0.0301 1.16582,0.0899 l -3.22771,3.18328 c -0.65761,0.65757 -0.9865,1.35962 -0.9865,2.10685 0,0.83691 0.29876,1.56959 0.89658,2.19726 0.62764,0.6277 1.3599,0.94155 2.19677,0.94155 0.74728,0 1.44983,-0.31385 2.10736,-0.94155 l 5.73867,-5.60429 c 0.86677,-0.65757 1.30018,-1.47966 1.30018,-2.466 0,-0.74724 -0.29876,-1.43473 -0.89659,-2.0624 -2.27157,-2.33138 -5.0366,-3.49695 -8.29458,-3.49695 z m -55.53925,0 c -0.89666,0 -1.62891,0.28374 -2.19676,0.85162 -0.53804,0.53803 -0.80719,1.25563 -0.80719,2.15233 v 10.13219 c 0,2.77972 0.91144,5.0963 2.73472,6.94944 1.8531,1.82327 4.16972,2.73474 6.94944,2.73474 1.25536,0 2.45056,-0.22397 3.58635,-0.67231 v 0.85161 c 0,0.98634 -0.35859,1.83857 -1.07591,2.55593 -0.71738,0.71734 -1.56906,1.0759 -2.55539,1.0759 h -0.17932 c -0.89666,0 -1.62884,0.28372 -2.19677,0.85162 -0.56785,0.5679 -0.85214,1.30008 -0.85214,2.19678 0,0.89667 0.28429,1.6143 0.85214,2.15231 0.56793,0.5679 1.30011,0.85164 2.19677,0.85164 h 0.17932 c 2.74983,0 5.05131,-0.92655 6.90449,-2.77969 1.8531,-1.85314 2.77967,-4.15467 2.77967,-6.90449 v -19.99567 c 0,-0.8967 -0.28377,-1.6143 -0.85163,-2.15233 -0.53804,-0.56788 -1.25566,-0.85162 -2.15232,-0.85162 -0.89666,0 -1.62884,0.28374 -2.19676,0.85162 -0.56794,0.53803 -0.85215,1.25563 -0.85215,2.15233 v 10.13219 c 0,1.01624 -0.34352,1.88302 -1.03095,2.60035 -0.68749,0.68747 -1.53917,1.03148 -2.55539,1.03148 -1.01623,0 -1.88298,-0.34401 -2.60036,-1.03148 -0.68742,-0.71733 -1.03146,-1.58411 -1.03146,-2.60035 v -10.13219 c 0,-2.0026 -1.01588,-3.00395 -3.0484,-3.00395 z m 93.60876,-5.33558 c -0.89666,0 -1.62935,0.28424 -2.19728,0.85214 -0.53796,0.5679 -0.80667,1.30006 -0.80667,2.19676 v 15.42282 c 0,2.77972 0.91151,5.0963 2.73472,6.94944 1.85317,1.82327 4.16973,2.73474 6.94944,2.73474 2.74984,0 5.03626,-0.92652 6.85954,-2.77969 1.8531,-1.85314 2.77967,-4.15465 2.77967,-6.90449 v -0.40359 c 0,-0.86678 -0.28377,-1.5839 -0.85163,-2.15181 -0.56793,-0.5679 -1.28555,-0.85214 -2.15232,-0.85214 -0.86684,0 -1.59902,0.28424 -2.19676,0.85214 -0.56794,0.56791 -0.85163,1.28503 -0.85163,2.15181 v 0.40359 c 0,1.01624 -0.34405,1.88302 -1.03146,2.60035 -0.6875,0.68747 -1.53918,1.03148 -2.55541,1.03148 -1.01622,0 -1.88297,-0.34401 -2.60035,-1.03148 -0.68742,-0.71733 -1.03147,-1.58411 -1.03147,-2.60035 v -6.99389 h 10.26708 c 2.00255,0 3.00395,-1.01642 3.00395,-3.0489 0,-0.89667 -0.28377,-1.6138 -0.85163,-2.1518 -0.53804,-0.56793 -1.25566,-0.85214 -2.15232,-0.85214 h -10.26708 v -2.37609 c 0,-0.8967 -0.28369,-1.62886 -0.85162,-2.19676 -0.56786,-0.5679 -1.30003,-0.85214 -2.19677,-0.85214 z m 47.11082,-3.76569 c -0.89666,0 -1.6289,0.28374 -2.19676,0.85164 -0.53804,0.53801 -0.80719,1.25511 -0.80719,2.15181 v 25.91419 c 0,0.89667 0.26915,1.62936 0.80719,2.19726 0.56786,0.53803 1.3001,0.80669 2.19676,0.80669 0.89674,0 1.62892,-0.26866 2.19677,-0.80669 0.56793,-0.5679 0.85214,-1.30059 0.85214,-2.19726 v -25.91419 c 0,-2.00258 -1.01639,-3.00345 -3.04891,-3.00345 z m -110.39636,-0.0899 c -2.77972,0 -5.09627,0.92652 -6.94945,2.77968 -1.82321,1.82325 -2.73472,4.12478 -2.73472,6.90449 v 19.32337 c 0,0.89667 0.26871,1.62936 0.80667,2.19726 0.56794,0.53803 1.30063,0.80669 2.19729,0.80669 0.89673,0 1.62891,-0.26866 2.19676,-0.80669 0.56793,-0.5679 0.85163,-1.30059 0.85163,-2.19726 v -6.85954 h 10.44639 c 0.89665,0 1.61428,-0.26918 2.15232,-0.80719 0.56786,-0.5679 0.85163,-1.30008 0.85163,-2.19675 0,-0.8967 -0.28377,-1.62888 -0.85163,-2.19678 -0.53804,-0.56791 -1.25567,-0.85162 -2.15232,-0.85162 h -10.44639 v -6.41149 c 0,-1.01626 0.34404,-1.86796 1.03146,-2.5554 0.71739,-0.71736 1.58414,-1.07643 2.60036,-1.07643 1.01622,0 1.8679,0.35907 2.5554,1.07643 0.68742,0.68744 1.03146,1.53914 1.03146,2.5554 v 0.31366 c 0,0.86678 0.2837,1.59949 0.85163,2.19729 0.59775,0.5679 1.32992,0.85161 2.19676,0.85161 0.89666,0 1.61429,-0.28371 2.15233,-0.85161 0.56785,-0.5679 0.85162,-1.30061 0.85162,-2.19729 v -0.31366 c 0,-2.74984 -0.92657,-5.05134 -2.77967,-6.90449 -1.82328,-1.85316 -4.1097,-2.77968 -6.85953,-2.77968 z m -49.062643,0 c -0.896658,0 -1.628834,0.28374 -2.196765,0.85161 -0.537966,0.53803 -0.807185,1.25566 -0.807185,2.15233 v 19.32337 c 0,2.77972 0.911508,5.0963 2.734715,6.94944 1.853168,1.82327 4.169728,2.73474 6.949448,2.73474 h 1.97249 c 0.89666,0 1.61428,-0.26866 2.15232,-0.80669 0.56793,-0.5679 0.85163,-1.30059 0.85163,-2.19726 0,-0.8967 -0.2837,-1.62888 -0.85163,-2.19678 -0.53804,-0.56788 -1.25566,-0.85162 -2.15232,-0.85162 h -1.97249 c -1.01622,0 -1.88297,-0.34401 -2.60036,-1.03148 -0.68742,-0.71733 -1.03094,-1.58411 -1.03094,-2.60035 v -19.32337 c 0,-0.89667 -0.28422,-1.6143 -0.85215,-2.15233 -0.56785,-0.56787 -1.30003,-0.85161 -2.196763,-0.85161 z"
       style="fill:url(#linearGradient1774);fill-opacity:1;stroke:none;stroke-width:1.32291675;stroke-miterlimit:4;stroke-dasharray:none;stroke-opacity:1"
       id="path1723" />
    <path
       id="path1725"
       d="m 217.63309,77.642991 c 0.14945,0.209233 0.35884,0.31369 0.62786,0.313664 0.26902,0 0.46335,-0.104431 0.58291,-0.313664 z"
       style="fill:#ffffff;fill-opacity:1;stroke:none;stroke-width:1.32291675;stroke-miterlimit:4;stroke-dasharray:none;stroke-opacity:1"
       inkscape:connector-curvature="0" />
    <flowRoot
       transform="matrix(1.0323733,0,0,1.0323733,-1184.3883,-696.21576)"
       style="font-style:normal;font-variant:normal;font-weight:bold;font-stretch:normal;font-size:39.99926758px;line-height:1.25;font-family:'Helvetica Rounded LT Std';-inkscape-font-specification:'Helvetica Rounded LT Std, Bold';font-variant-ligatures:normal;font-variant-caps:normal;font-variant-numeric:normal;font-feature-settings:normal;text-align:start;letter-spacing:0px;word-spacing:0px;writing-mode:lr-tb;text-anchor:start;display:inline;fill:#000000;fill-opacity:1;stroke:none;stroke-width:1.28143251;stroke-miterlimit:4;stroke-dasharray:none;stroke-opacity:1"
       id="flowRoot1719-1"
       xml:space="preserve"><flowRegion
         style="font-style:normal;font-variant:normal;font-weight:bold;font-stretch:normal;font-size:39.99926758px;font-family:'Helvetica Rounded LT Std';-inkscape-font-specification:'Helvetica Rounded LT Std, Bold';font-variant-ligatures:normal;font-variant-caps:normal;font-variant-numeric:normal;font-feature-settings:normal;text-align:start;writing-mode:lr-tb;text-anchor:start;fill:#000000;fill-opacity:1;stroke:none;stroke-width:1.28143251;stroke-miterlimit:4;stroke-dasharray:none;stroke-opacity:1"
         id="flowRegion1715-0"><rect
           style="font-style:normal;font-variant:normal;font-weight:bold;font-stretch:normal;font-size:39.99926758px;font-family:'Helvetica Rounded LT Std';-inkscape-font-specification:'Helvetica Rounded LT Std, Bold';font-variant-ligatures:normal;font-variant-caps:normal;font-variant-numeric:normal;font-feature-settings:normal;text-align:start;writing-mode:lr-tb;text-anchor:start;fill:#000000;fill-opacity:1;stroke:none;stroke-width:1.28143251;stroke-miterlimit:4;stroke-dasharray:none;stroke-opacity:1"
           y="951.42859"
           x="1182.8572"
           height="331.42856"
           width="908.57141"
           id="rect1713-4" /></flowRegion><flowPara
         style="font-style:normal;font-variant:normal;font-weight:bold;font-stretch:normal;font-size:41.0058403px;font-family:'Alba Super';-inkscape-font-specification:'Alba Super Bold';font-variant-ligatures:normal;font-variant-caps:normal;font-variant-numeric:normal;font-feature-settings:normal;text-align:start;writing-mode:lr-tb;text-anchor:start;fill:#000000;fill-opacity:1;stroke:none;stroke-width:1.28143251;stroke-miterlimit:4;stroke-dasharray:none;stroke-opacity:1"
         id="flowPara1717-2">select fitness goal</flowPara></flowRoot>  </g>
</svg>
